<?xml version="1.0" encoding="UTF-8"?>
<svg width="15px" height="17px" viewBox="0 0 15 17" version="1.1" xmlns="http://www.w3.org/2000/svg" xmlns:xlink="http://www.w3.org/1999/xlink">
    <!-- Generator: Sketch 52.5 (67469) - http://www.bohemiancoding.com/sketch -->
    <title>noun_Delete_1534869</title>
    <desc>Created with Sketch.</desc>
    <g id="Page-1" stroke="none" stroke-width="1" fill="none" fill-rule="evenodd">
        <g id="5" transform="translate(-712.000000, -880.000000)" fill="#FFFFFF">
            <g id="Group-10" transform="translate(707.000000, 876.000000)">
                <g id="noun_Delete_1534869" transform="translate(5.000000, 4.000000)">
                    <g id="Group">
                        <path d="M10.0192308,2.26923077 L10.0192308,0.0961538462 L4.76923077,0.0961538462 L4.76923077,2.26923077 L0.0769230769,2.26923077 L0.0769230769,3.05769231 L1.46153846,3.05769231 L2.46153846,16.0769231 L12.3461538,16.0769231 L13.3461538,3.05769231 L14.9423077,3.05769231 L14.9423077,2.26923077 L10.0192308,2.26923077 Z M9.25,0.865384615 L9.25,2.25 L5.55769231,2.25 L5.55769231,0.865384615 L9.25,0.865384615 Z M12.5576923,3.01923077 L11.6153846,15.25 L3.17307692,15.25 L2.25,3.01923077 L12.5576923,3.01923077 Z" id="Shape" fill-rule="nonzero"></path>
                        <rect id="Rectangle" x="7" y="5.11538462" width="1" height="8.13461538"></rect>
                        <polygon id="Rectangle" transform="translate(9.778689, 9.172657) rotate(3.101402) translate(-9.778689, -9.172657) " points="9.38447208 5.09587866 10.1729057 5.09587866 10.1729057 13.2494362 9.38447208 13.2494362"></polygon>
                        <polygon id="Rectangle" transform="translate(5.000726, 9.176439) rotate(86.899503) translate(-5.000726, -9.176439) " points="0.923950572 8.78222231 9.07750111 8.78222231 9.07750111 9.57065526 0.923950572 9.57065526"></polygon>
                    </g>
                </g>
            </g>
        </g>
    </g>
</svg>