<?xml version="1.0" encoding="UTF-8"?>
<svg width="16px" height="17px" viewBox="0 0 16 17" version="1.1" xmlns="http://www.w3.org/2000/svg" xmlns:xlink="http://www.w3.org/1999/xlink">
    <!-- Generator: Sketch 52.2 (67145) - http://www.bohemiancoding.com/sketch -->
    <title>Path</title>
    <desc>Created with Sketch.</desc>
    <g id="Page-1" stroke="none" stroke-width="1" fill="none" fill-rule="evenodd">
        <g id="21" transform="translate(-313.000000, -844.000000)" fill="#FFFFFF" stroke="#FFFFFF" stroke-width="0.5">
            <g id="Group-15" transform="translate(303.000000, 827.000000)">
                <path d="M23.0629204,27.2410345 L17.0993976,21.261223 C16.10703,20.2680369 14.8607474,20.1843993 13.9939515,21.0535627 C13.1271556,21.9217801 13.2096219,23.173359 14.2001026,24.1674911 L19.5638943,29.5459334 C19.7466352,29.7282274 20.0445991,29.7282274 20.2263965,29.5459334 C20.4091375,29.3626933 20.4091375,29.0639156 20.2263965,28.8816215 L14.8626049,23.5031793 C14.3819001,23.0211615 14.0754743,22.2995243 14.6555102,21.7178745 C15.2346322,21.1362543 15.9552176,21.4444335 16.4359519,21.9264809 L22.3985312,27.9053463 C24.1096268,29.6229781 24.5359929,30.4141508 23.5164706,31.4364873 C22.484742,32.4691418 21.3921292,32.2126116 19.7485222,30.5645152 L13.1234111,23.9184998 C12.0532945,22.8454308 11.303638,21.0930312 12.7101654,19.6835785 C14.3800131,18.0091698 16.28697,19.6554037 16.8304754,20.2013101 L22.917683,26.3070363 C23.0994804,26.4902764 23.3974738,26.4902764 23.5801852,26.3070363 C23.7619827,26.1237962 23.7619827,25.825935 23.5801852,25.6417785 L17.4929776,19.5369983 C15.6525658,17.6915596 13.5657279,17.4942469 12.0467196,19.0192667 C10.5117901,20.5574427 10.6776662,22.7937522 12.4609089,24.5828116 L19.0869339,31.2259889 C19.6501051,31.7925904 20.8561127,33 22.2429744,33 C22.8652017,33 23.525817,32.7557095 24.1808303,32.098907 C26.0427949,30.2309402 24.3204659,28.5010687 23.0629204,27.2410345 Z" id="Path"></path>
            </g>
        </g>
    </g>
</svg>