<?xml version="1.0" encoding="UTF-8"?>
<svg width="20px" height="27px" viewBox="0 0 20 27" version="1.1" xmlns="http://www.w3.org/2000/svg" xmlns:xlink="http://www.w3.org/1999/xlink">
    <!-- Generator: Sketch 52.2 (67145) - http://www.bohemiancoding.com/sketch -->
    <title>Shape</title>
    <desc>Created with Sketch.</desc>
    <g id="Page-1" stroke="none" stroke-width="1" fill="none" fill-rule="evenodd">
        <g id="2" transform="translate(-314.000000, -2176.000000)" fill="#000000" fill-rule="nonzero">
            <g id="Group-13" transform="translate(289.000000, 2156.000000)">
                <g id="google-forms" transform="translate(25.000000, 20.000000)">
                    <path d="M12.1995843,0 L1.48041229,0 C0.664088282,0 0,0.65901466 0,1.46910197 L0,25.3880409 C0,26.1981282 0.664088282,26.8571429 1.48041229,26.8571429 L18.5195877,26.8571429 C19.3359117,26.8571429 20,26.1981282 20,25.3880409 L20,7.25087521 C20,6.85862498 19.8460371,6.48975796 19.5664859,6.21222012 L13.2298278,0.414164331 C12.9522505,0.146910197 12.5873289,0 12.1995843,0 Z M18.1494846,25.0207654 L1.85051537,25.0207654 L1.85051537,1.83637747 L10.7043678,1.83637747 L10.7043678,6.76227638 C10.7043678,7.85002396 11.5956994,8.73503548 12.6912045,8.73503548 L18.1494846,8.73503548 L18.1494846,25.0207654 Z M12.6912045,6.89865801 C12.6160736,6.89865801 12.5548832,6.83744543 12.5548832,6.76227638 L12.5548832,2.89608969 L16.8688046,6.89853559 L12.6912045,6.89853559 L12.6912045,6.89865801 Z M4.54844341,11.9737932 C3.91433348,11.9737932 3.39853316,12.4857752 3.39853316,13.1149182 C3.39853316,13.7441835 3.91445684,14.2560431 4.54844341,14.2560431 C5.18255334,14.2560431 5.69835366,13.7440611 5.69835366,13.1149182 C5.69835366,12.4857752 5.18242997,11.9737932 4.54844341,11.9737932 Z M6.64569416,12.1968518 L16.4534256,12.1968518 L16.4534256,14.0332293 L6.64569416,14.0332293 L6.64569416,12.1968518 Z M4.54844341,15.6465481 C3.91433348,15.6465481 3.39853316,16.1585302 3.39853316,16.7876731 C3.39853316,17.416816 3.91445684,17.928798 4.54844341,17.928798 C5.18255334,17.928798 5.69835366,17.416816 5.69835366,16.7876731 C5.69835366,16.1585302 5.18242997,15.6465481 4.54844341,15.6465481 Z M6.64569416,15.8694844 L16.4534256,15.8694844 L16.4534256,17.7058618 L6.64569416,17.7058618 L6.64569416,15.8694844 Z M4.54844341,19.3193031 C3.91433348,19.3193031 3.39853316,19.8312851 3.39853316,20.460428 C3.39853316,21.0895709 3.91445684,21.601553 4.54844341,21.601553 C5.18255334,21.601553 5.69835366,21.0895709 5.69835366,20.460428 C5.69835366,19.8312851 5.18242997,19.3193031 4.54844341,19.3193031 Z M6.64569416,19.5422393 L16.4534256,19.5422393 L16.4534256,21.3786168 L6.64569416,21.3786168 L6.64569416,19.5422393 Z" id="Shape"></path>
                </g>
            </g>
        </g>
    </g>
</svg>