<?xml version="1.0" encoding="UTF-8"?>
<svg width="25px" height="25px" viewBox="0 0 25 25" version="1.1" xmlns="http://www.w3.org/2000/svg" xmlns:xlink="http://www.w3.org/1999/xlink">
    <!-- Generator: Sketch 52.5 (67469) - http://www.bohemiancoding.com/sketch -->
    <title>Shape</title>
    <desc>Created with Sketch.</desc>
    <g id="Page-1" stroke="none" stroke-width="1" fill="none" fill-rule="evenodd">
        <g id="24" transform="translate(-190.000000, -1032.000000)" fill="#FFFFFF" fill-rule="nonzero">
            <g id="Group-26" transform="translate(182.000000, 152.000000)">
                <g id="Group-22" transform="translate(0.000000, 872.000000)">
                    <g id="noun_manager_845890" transform="translate(8.000000, 8.000000)">
                        <path d="M7.70092845,9.06652375 C6.72064487,10.1060859 6.74575026,11.7348198 7.75761028,12.7438068 C8.76947029,13.7527939 10.4017308,13.7767201 11.4428555,12.7978263 C11.6954728,12.5457522 12.1050464,12.5457522 12.3576637,12.7978263 C12.6102809,13.0499004 12.6102809,13.4585933 12.3576637,13.7106675 C10.8130563,15.2046696 8.35284255,15.1855492 6.83174359,13.6677209 C5.31064463,12.1498926 5.29148306,9.69496882 6.78870452,8.15368262 C8.17928724,6.77562933 10.371693,6.62203011 11.9416068,7.79267201 C12.1262563,7.9308613 12.2229974,8.15685095 12.1953888,8.38551284 C12.1677802,8.61417474 12.0200163,8.8107697 11.8077582,8.9012423 C11.5955002,8.9917149 11.3509951,8.96232021 11.1663457,8.82413091 C10.1109633,8.03567407 8.63575682,8.13885918 7.70092845,9.06652375 Z M1.39288703,13.1407864 L2.33612141,13.3058198 C2.4540937,13.6669195 2.59922164,14.0186152 2.77026764,14.3579079 L2.21983224,15.1315021 C1.75204804,15.795162 1.83057104,16.6984113 2.40589491,17.2717793 L3.20699808,18.07116 C3.78160157,18.6452468 4.68679725,18.7236009 5.35188722,18.2568226 L6.12714835,17.7075707 C6.46712548,17.8790674 6.81957598,18.024744 7.18150349,18.1433621 L7.34689253,19.0845683 C7.48642581,19.8841044 8.18229732,20.4674667 8.99561454,20.4667233 L10.13008,20.4667233 C10.9433972,20.4674667 11.6392687,19.8841044 11.778802,19.0845683 L11.9441911,18.1433621 C12.3060981,18.0246891 12.6585445,17.8790141 12.9985462,17.7075707 L13.7738073,18.2568226 C13.9622454,18.3995581 14.2137982,18.428101 14.4295414,18.3312267 C14.6452845,18.2343524 14.7907082,18.0275566 14.8086238,17.7921628 C14.8265394,17.5567691 14.7140811,17.3304305 14.5154738,17.2021558 L13.4042662,16.4285617 C13.1989731,16.2850592 12.929024,16.2729979 12.7116996,16.3976179 C12.2379395,16.6701551 11.7306105,16.8799319 11.2025246,17.0216505 C10.9590699,17.0876822 10.776408,17.2890846 10.7347837,17.53738 L10.4996211,18.8705406 C10.4670155,19.052865 10.3079307,19.185513 10.1223274,19.1851356 L9.00595136,19.1851356 C8.82034803,19.185513 8.66126328,19.052865 8.6286576,18.8705406 L8.39349506,17.53738 C8.3518707,17.2890846 8.16920881,17.0876822 7.92575418,17.0216505 C7.39763029,16.8800433 6.89028706,16.6702607 6.41657917,16.3976179 C6.19925477,16.2729979 5.92930561,16.2850592 5.72401256,16.4285617 L4.61280493,17.2021558 C4.46559579,17.3053548 4.26602625,17.2913611 4.13472724,17.1686334 L3.32328725,16.3718314 C3.19246554,16.2413502 3.17396851,16.0361489 3.27935579,15.8844671 L4.05461692,14.7756488 C4.19842864,14.5707971 4.21051592,14.3014284 4.08562736,14.0845713 C3.81231751,13.6119211 3.60207839,13.1056581 3.46025005,12.5786413 C3.39407605,12.3357102 3.1922397,12.153441 2.9434093,12.1119062 L1.60737594,11.8772493 C1.42213281,11.8453923 1.28809338,11.6831367 1.29210308,11.4956095 L1.29210308,10.366162 C1.29172482,10.1809577 1.42465866,10.022215 1.60737594,9.98967947 L2.9434093,9.75502257 C3.19292855,9.71307966 3.3949402,9.52964433 3.46025005,9.28570877 C3.60199418,8.7586634 3.81223774,8.2523897 4.08562736,7.77977877 C4.21204365,7.5639098 4.20197197,7.29456934 4.05978533,7.08870131 L3.28452419,5.97988299 C3.17913692,5.82820116 3.19763395,5.62299987 3.32845566,5.49251866 L4.12955883,4.69313801 C4.26050665,4.56239731 4.46686324,4.54496553 4.61797334,4.65187965 L5.72918097,5.42547383 C5.93447401,5.56897633 6.20442318,5.58103762 6.42174758,5.4564176 C6.89542933,5.1837219 7.40277967,4.97393631 7.93092258,4.83238496 C8.17538378,4.76721554 8.35921438,4.56563825 8.40124767,4.31665551 L8.63641022,2.98349488 C8.66901589,2.80117047 8.82810064,2.66852247 9.01370397,2.66889992 L10.1481694,2.66889992 C10.3337727,2.66852247 10.4928575,2.80117047 10.5254632,2.98349488 L10.7606257,4.31665551 C10.8022501,4.56495088 10.984912,4.76635325 11.2283666,4.83238496 C11.7564715,4.97404793 12.2638076,5.18382764 12.7375416,5.4564176 C12.954866,5.58103762 13.2248152,5.56897633 13.4301082,5.42547383 L14.5413158,4.65187965 C14.7399231,4.52360501 14.8523814,4.29726638 14.8344658,4.06187265 C14.8165503,3.82647892 14.6711266,3.61968311 14.4553834,3.52280878 C14.2396403,3.42593444 13.9880874,3.45447738 13.7996494,3.59721293 L13.0243882,4.14646479 C12.6844111,3.97496807 12.3319606,3.82929145 11.9700331,3.71067341 L11.804644,2.76946716 C11.6651108,1.96993105 10.9692393,1.38656877 10.155922,1.38731223 L9.00595136,1.38731223 C8.19263413,1.38656877 7.49676262,1.96993105 7.35722935,2.76946716 L7.1918403,3.71067341 C6.82990597,3.82927307 6.4774541,3.97495026 6.13748516,4.14646479 L5.36222403,3.59721293 C4.69713406,3.13043455 3.79193838,3.20878871 3.2173349,3.78287553 L2.41623172,4.58225618 C1.84090785,5.15562416 1.76238485,6.0588735 2.23016905,6.7225334 L2.78060446,7.49612757 C2.60222247,7.83735338 2.4501751,8.19165507 2.32578459,8.5559516 L1.38255021,8.72098502 C0.582318627,8.86133078 -0.000962782344,9.55541187 1.19308946e-06,10.366162 L1.19308946e-06,11.4981881 C0.00116298472,12.3112456 0.589508555,13.0050681 1.39288703,13.1407864 Z M16.0039752,3.04796106 C16.0054021,1.36353092 17.3747495,-0.000948547156 19.0628096,4.9476802e-07 C20.7508697,0.000949536692 22.1186753,1.36696785 22.1182001,3.05139853 C22.1177249,4.73582921 20.7491486,6.10107881 19.0610883,6.10107941 C17.372864,6.09823681 16.0053974,4.73255715 16.0039752,3.04796106 Z M17.2960771,3.04796106 C17.2960771,4.02065384 18.0862995,4.80917714 19.0610883,4.80917714 C20.035877,4.80917714 20.8260994,4.02065384 20.8260994,3.04796106 C20.8260994,2.07526828 20.035877,1.28674499 19.0610883,1.28674499 C18.0868896,1.28816516 17.2975003,2.07585715 17.2960771,3.04796106 Z M23.573108,7.58638023 C24.1042796,8.1802815 24.3570594,8.97168436 24.2682589,9.76275851 L23.6402973,14.481683 C23.5514549,15.2640371 23.0907902,15.9559475 22.4024637,16.3408877 L21.3946243,23.7106615 C21.3006107,24.4500724 20.668565,25.0033064 19.9216281,24.9999851 L18.2057168,24.9999851 C17.4517907,24.9995817 16.8180955,24.4349197 16.7327206,23.6874537 L15.7248812,16.3331517 C15.0311037,15.9500735 14.5646038,15.257107 14.4715423,14.4713684 L13.859086,9.77565175 C13.7653216,8.98255279 14.0159909,8.18730683 14.5478475,7.59056264 C15.0797042,6.99381845 15.841954,6.65256713 16.6422735,6.65290992 L17.4356241,6.65290992 C17.6652838,6.65203267 17.8825772,6.75664179 18.0248225,6.93656112 L19.058504,8.22588475 L20.0921856,6.93656112 C20.234388,6.75832125 20.4504853,6.65477959 20.6787998,6.65548857 L21.4721504,6.65548857 C22.2735453,6.65222592 23.038109,6.99098856 23.573108,7.58638023 Z M22.6092,8.44506976 C22.3264311,8.11814646 21.9152664,7.92994436 21.4824872,7.92934031 L20.947557,7.92934031 L19.7898337,9.37338277 C19.6091436,9.58843442 19.3423277,9.71265073 19.0610883,9.71265073 C18.7798488,9.71265073 18.5130329,9.58843442 18.3323428,9.37338277 L17.1746195,7.93191896 L16.6422735,7.93191896 C16.2119818,7.9313738 15.8019177,8.11413329 15.5151599,8.43425689 C15.2284021,8.7543805 15.0922219,9.18142358 15.1408511,9.60803967 L15.7636442,14.3089136 C15.8106516,14.7599125 16.1117391,15.1444758 16.5389054,15.2991142 C16.7622217,15.3814048 16.9220915,15.5795739 16.9549622,15.8148436 L18.0119015,23.5378921 C18.0185593,23.6391054 18.1015127,23.7185246 18.2031326,23.7209761 L19.9164597,23.7209761 C20.0145002,23.7215493 20.0970933,23.6480435 20.1076908,23.5507854 L21.1646301,15.8148436 C21.1975008,15.5795739 21.3573706,15.3814048 21.5806869,15.2991142 C22.0047415,15.1475326 22.3054552,14.7684478 22.3559481,14.3218069 L22.9839096,9.60288238 C23.0307528,9.18122602 22.8943462,8.75974405 22.6092,8.44506976 Z" id="Shape"></path>
                    </g>
                </g>
            </g>
        </g>
    </g>
</svg>