<?xml version="1.0" encoding="UTF-8"?>
<svg width="14px" height="10px" viewBox="0 0 14 10" version="1.1" xmlns="http://www.w3.org/2000/svg" xmlns:xlink="http://www.w3.org/1999/xlink">
    <!-- Generator: Sketch 52.2 (67145) - http://www.bohemiancoding.com/sketch -->
    <title>Shape</title>
    <desc>Created with Sketch.</desc>
    <g id="Page-1" stroke="none" stroke-width="1" fill="none" fill-rule="evenodd">
        <g id="8" transform="translate(-676.000000, -2357.000000)" fill="#FFFFFF" fill-rule="nonzero">
            <g id="Group-7" transform="translate(188.000000, 266.000000)">
                <g id="Rectangle-Copy-2" transform="translate(58.000000, 1067.000000)">
                    <g id="Group-17" transform="translate(43.000000, 748.000000)">
                        <g id="Group-13-Copy" transform="translate(235.000000, 255.000000)">
                            <g id="download-(3)" transform="translate(146.000000, 14.000000)">
                                <g id="eye" transform="translate(13.000000, 12.000000) scale(1, -1) translate(-13.000000, -12.000000) translate(6.000000, 7.000000)">
                                    <path d="M7,0 C4.32515086,0 1.89945791,1.63669641 0.109542805,4.29512697 C-0.0365142682,4.5129261 -0.0365142682,4.8172043 0.109542805,5.03500343 C1.89945791,7.69663693 4.32515086,9.33333333 7,9.33333333 C9.67484914,9.33333333 12.1005421,7.69663693 13.8904572,5.03820636 C14.0365143,4.82040723 14.0365143,4.51612903 13.8904572,4.2983299 C12.1005421,1.63669641 9.67484914,0 7,0 Z M7.1918789,7.9528712 C5.41628311,8.0777854 3.94998466,6.441089 4.06167536,4.45207046 C4.15331901,2.81217113 5.34182264,1.48295585 6.8081211,1.38046214 C8.58371689,1.25554793 10.0500153,2.89224434 9.93832464,4.88126287 C9.84381712,6.51795928 8.65531349,7.84717456 7.1918789,7.9528712 Z M7.10309911,6.43468314 C6.14656848,6.50194464 5.35614197,5.62113933 5.41914698,4.55136124 C5.46783267,3.66735301 6.10933824,2.95309998 6.89976475,2.89544727 C7.85629539,2.82818577 8.6467219,3.70899108 8.58371689,4.77876916 C8.53216733,5.66598032 7.89066176,6.38023336 7.10309911,6.43468314 Z" id="Shape"></path>
                                </g>
                            </g>
                        </g>
                    </g>
                </g>
            </g>
        </g>
    </g>
</svg>