<?xml version="1.0" encoding="UTF-8"?>
<svg width="10px" height="10px" viewBox="0 0 14 14" version="1.1" xmlns="http://www.w3.org/2000/svg" xmlns:xlink="http://www.w3.org/1999/xlink">
    <!-- Generator: Sketch 52.2 (67145) - http://www.bohemiancoding.com/sketch -->
    <title>noun_Close_1983627</title>
    <desc>Created with Sketch.</desc>
    <g id="Page-1" stroke="none" stroke-width="1" fill="none" fill-rule="evenodd">
        <g id="18" transform="translate(-788.000000, -76.000000)" fill="#ffffff" stroke="#ffffff">
            <g id="Group-5" transform="translate(772.000000, 60.000000)">
                <g id="noun_Close_1983627" transform="translate(17.000000, 17.000000)">
                    <path d="M11.8591109,11.0274791 L6.75747504,5.92593123 L11.760291,0.92310786 C11.9490438,0.734311463 11.9490438,0.428470048 11.760291,0.23968927 C11.5715226,0.0509397292 11.265426,0.0509397292 11.0768762,0.23968927 L6.07404467,5.24249702 L0.972346323,0.140871037 C0.784515034,-0.0469570124 0.479808514,-0.0469570124 0.291977225,0.140871037 C0.103927274,0.328699087 0.103927274,0.633619011 0.291977225,0.82144706 L5.39358186,5.92299495 L0.141506027,11.1750271 C-0.0471686755,11.3638078 -0.0471686755,11.6696493 0.141506027,11.8584144 C0.330274441,12.0471952 0.6362617,12.0471952 0.825030115,11.8584144 L6.07702785,6.60642916 L11.1787731,11.7080864 C11.3666043,11.8959144 11.6710766,11.8959144 11.8591265,11.7080864 C12.0469578,11.5202427 12.0469578,11.2153228 11.8591265,11.0274791 L11.8591109,11.0274791 Z" id="Path"></path>
                </g>
            </g>
        </g>
    </g>
</svg>