<?xml version="1.0" encoding="UTF-8"?>
<svg width="19px" height="26px" viewBox="0 0 19 26" version="1.1" xmlns="http://www.w3.org/2000/svg" xmlns:xlink="http://www.w3.org/1999/xlink">
    <!-- Generator: Sketch 52.2 (67145) - http://www.bohemiancoding.com/sketch -->
    <title>library</title>
    <desc>Created with Sketch.</desc>
    <g id="Page-1" stroke="none" stroke-width="1" fill="none" fill-rule="evenodd">
        <g id="15-copy-10" transform="translate(-65.000000, -340.000000)" fill="#000000">
            <g id="library" transform="translate(65.000000, 340.000000)">
                <path d="M11.9649621,3.37777778 L11.9649621,1.9 C11.9649621,0.844444444 11.1373106,0 10.1027462,0 C9.06818182,0 8.2405303,0.844444444 8.2405303,1.9 L8.2405303,3.37777778 L0.791666667,3.37777778 L0.791666667,25.3333333 L19,25.3333333 L19,3.37777778 L11.9649621,3.37777778 Z M9.06818182,1.9 C9.06818182,1.30888889 9.52339015,0.844444444 10.1027462,0.844444444 C10.6821023,0.844444444 11.1373106,1.30888889 11.1373106,1.9 L11.1373106,3.37777778 L10.7234848,3.37777778 L10.7234848,2.53333333 L9.89583333,2.53333333 L9.89583333,3.37777778 L9.06818182,3.37777778 L9.06818182,1.9 Z M9.06818182,4.22222222 L9.89583333,4.22222222 L9.89583333,6.75555556 C9.89583333,7.00888889 9.73030303,7.17777778 9.48200758,7.17777778 C9.23371212,7.17777778 9.06818182,7.00888889 9.06818182,6.75555556 L9.06818182,4.22222222 Z M18.1723485,24.4888889 L1.61931818,24.4888889 L1.61931818,4.22222222 L8.2405303,4.22222222 L8.2405303,6.75555556 C8.2405303,7.47333333 8.77850379,8.02222222 9.48200758,8.02222222 C10.1855114,8.02222222 10.7234848,7.47333333 10.7234848,6.75555556 L10.7234848,4.22222222 L18.1723485,4.22222222 L18.1723485,24.4888889 Z" id="Shape" fill-rule="nonzero"></path>
                <rect id="Rectangle" stroke="#000000" stroke-width="0.5" x="3.16666667" y="10.4444444" width="13.4583333" height="1"></rect>
                <rect id="Rectangle" stroke="#000000" stroke-width="0.5" x="3.16666667" y="14" width="13.4583333" height="1"></rect>
                <rect id="Rectangle" stroke="#000000" stroke-width="0.5" x="3.16666667" y="17" width="13.4583333" height="1"></rect>
            </g>
        </g>
    </g>
</svg>