<?xml version="1.0" encoding="UTF-8"?>
<svg width="21px" height="17px" viewBox="0 0 21 17" version="1.1" xmlns="http://www.w3.org/2000/svg" xmlns:xlink="http://www.w3.org/1999/xlink">
    <!-- Generator: Sketch 52.5 (67469) - http://www.bohemiancoding.com/sketch -->
    <title>noun_Mail_1913611</title>
    <desc>Created with Sketch.</desc>
    <g id="Page-1" stroke="none" stroke-width="1" fill="none" fill-rule="evenodd">
        <g id="24" transform="translate(-191.000000, -609.000000)">
            <g id="Group-26" transform="translate(182.000000, 152.000000)">
                <g id="Group-21" transform="translate(0.000000, 444.000000)">
                    <g id="noun_Mail_1913611" transform="translate(10.000000, 14.000000)">
                        <path d="M19.0520833,0 L0.322916667,0 C0.144574716,0 0,0.146096555 0,0.326315789 L0,12.0736842 C0,12.2539034 0.144574716,12.4 0.322916667,12.4 L1.61458333,12.4 L1.61458333,11.7473684 L0.645833333,11.7473684 L0.645833333,2.47771579 L7.10416667,5.62862105 L7.10416667,5.81755789 C7.10506489,6.77703622 7.56358586,7.67724729 8.33577083,8.23555789 L9.49988542,9.07582105 C9.61212966,9.15678933 9.76287034,9.15678933 9.87511458,9.07582105 L11.0376146,8.23555789 C11.8104106,7.67760138 12.2695623,6.7773321 12.2708333,5.81755789 L12.2708333,5.62862105 L18.7291667,2.47771579 L18.7291667,11.7473684 L17.7604167,11.7473684 L17.7604167,12.4 L19.0520833,12.4 C19.2304253,12.4 19.375,12.2539034 19.375,12.0736842 L19.375,0.326315789 C19.375,0.146096555 19.2304253,0 19.0520833,0 Z M11.625,5.81755789 C11.6241864,6.56629379 11.2664478,7.26877329 10.664,7.70464211 L9.6875,8.40948421 L8.711,7.70464211 C8.10855219,7.26877329 7.75081362,6.56629379 7.75,5.81755789 L7.75,4.22709474 C8.46736311,4.16073757 9.14555909,3.86672891 9.6875,3.38715789 C10.2294409,3.86672891 10.9076369,4.16073757 11.625,4.22709474 L11.625,5.81755789 Z M18.7291667,1.75296842 L12.2708333,4.90387368 L12.2708333,3.91578947 C12.2708333,3.73557024 12.1262586,3.58947368 11.9479167,3.58947368 C11.2062238,3.59163202 10.4944951,3.29388574 9.97134375,2.76258947 L9.916125,2.70646316 C9.78800344,2.58347784 9.58699656,2.58347784 9.458875,2.70646316 L9.40397917,2.76226316 C8.88080232,3.29375969 8.16893473,3.59163293 7.42708333,3.58947368 C7.24874138,3.58947368 7.10416667,3.73557024 7.10416667,3.91578947 L7.10416667,4.90387368 L0.645833333,1.75296842 L0.645833333,0.652631579 L18.7291667,0.652631579 L18.7291667,1.75296842 Z" id="Shape" stroke="#FFFFFF" fill="#000000" fill-rule="nonzero"></path>
                        <path d="M8.94705208,5.64297895 L8.49044792,6.10438947 L9.13628125,6.75702105 C9.26238016,6.88440884 9.46678651,6.88440884 9.59288542,6.75702105 L10.8845521,5.45175789 L10.4279479,4.99034737 L9.36458333,6.06490526 L8.94705208,5.64297895 Z" id="Path" fill="#FFFFFF"></path>
                        <rect id="Rectangle" fill="#FFFFFF" x="2.26041667" y="10.7684211" width="1" height="2.93684211"></rect>
                        <rect id="Rectangle" fill="#FFFFFF" x="2.26041667" y="14.3578947" width="1" height="1"></rect>
                        <rect id="Rectangle" fill="#FFFFFF" x="3.55208333" y="11.0947368" width="1" height="3.26315789"></rect>
                        <rect id="Rectangle" fill="#FFFFFF" x="4.84375" y="10.4421053" width="1" height="3.26315789"></rect>
                        <rect id="Rectangle" fill="#FFFFFF" x="4.84375" y="14.3578947" width="1" height="1"></rect>
                        <rect id="Rectangle" fill="#FFFFFF" x="6.13541667" y="13.0526316" width="1" height="1"></rect>
                        <rect id="Rectangle" fill="#FFFFFF" x="6.13541667" y="14.3578947" width="1" height="1.30526316"></rect>
                        <rect id="Rectangle" fill="#FFFFFF" x="7.42708333" y="11.0947368" width="1" height="2.61052632"></rect>
                        <rect id="Rectangle" fill="#FFFFFF" x="7.42708333" y="14.3578947" width="1" height="1"></rect>
                        <rect id="Rectangle" fill="#FFFFFF" x="8.71875" y="13.0526316" width="1" height="1.30526316"></rect>
                        <rect id="Rectangle" fill="#FFFFFF" x="8.71875" y="15.0105263" width="1" height="1"></rect>
                        <rect id="Rectangle" fill="#FFFFFF" x="10.0104167" y="10.4421053" width="1" height="3.26315789"></rect>
                        <rect id="Rectangle" fill="#FFFFFF" x="10.0104167" y="14.3578947" width="1" height="1"></rect>
                        <rect id="Rectangle" fill="#FFFFFF" x="11.3020833" y="13.0526316" width="1" height="1.30526316"></rect>
                        <rect id="Rectangle" fill="#FFFFFF" x="11.3020833" y="15.0105263" width="1" height="1"></rect>
                        <rect id="Rectangle" fill="#FFFFFF" x="12.59375" y="11.0947368" width="1" height="3.91578947"></rect>
                        <rect id="Rectangle" fill="#FFFFFF" x="13.8854167" y="10.4421053" width="1" height="2.61052632"></rect>
                        <rect id="Rectangle" fill="#FFFFFF" x="13.8854167" y="13.7052632" width="1" height="1"></rect>
                        <rect id="Rectangle" fill="#FFFFFF" x="15.1770833" y="12.0736842" width="1" height="1.63157895"></rect>
                        <rect id="Rectangle" fill="#FFFFFF" x="15.1770833" y="14.3578947" width="1" height="1"></rect>
                        <rect id="Rectangle" fill="#FFFFFF" x="16.46875" y="11.0947368" width="1" height="2.61052632"></rect>
                        <rect id="Rectangle" fill="#FFFFFF" x="16.46875" y="14.3578947" width="1" height="1.30526316"></rect>
                    </g>
                </g>
            </g>
        </g>
    </g>
</svg>