<?xml version="1.0" encoding="UTF-8"?>
<svg width="20px" height="19px" viewBox="0 0 20 19" version="1.1" xmlns="http://www.w3.org/2000/svg" xmlns:xlink="http://www.w3.org/1999/xlink">
    <!-- Generator: Sketch 52.2 (67145) - http://www.bohemiancoding.com/sketch -->
    <title>portfolio (1)</title>
    <desc>Created with Sketch.</desc>
    <g id="Page-1" stroke="none" stroke-width="1" fill="none" fill-rule="evenodd">
        <g id="10" transform="translate(-118.000000, -694.000000)" fill="#979797" fill-rule="nonzero" stroke="#FFFFFF" stroke-width="0.5">
            <g id="Group-8-Copy" transform="translate(108.000000, 684.000000)">
                <g id="portfolio-(1)" transform="translate(11.000000, 11.000000)">
                    <path d="M17.4759521,2.26681423 C17.4748535,2.26681423 17.4737549,2.26666667 17.4726563,2.26666667 L12.6914063,2.26666667 L12.6914063,1.7 C12.6914063,0.762638889 11.9816895,0 11.109375,0 L6.890625,0 C6.01831055,0 5.30859375,0.762638889 5.30859375,1.7 L5.30859375,2.26666667 L0.52734375,2.26666667 C0.233734148,2.26666667 0,2.52520833 0,2.83333333 L0,15.3 C0,16.2373611 0.709716797,17 1.58203125,17 L16.4179688,17 C17.2902832,17 18,16.2373611 18,15.3 L18,2.84528645 C18,2.84454861 18,2.84381077 18,2.8430729 C17.9798126,2.47090278 17.7668152,2.26888022 17.4759521,2.26681423 Z M6.36328125,1.7 C6.36328125,1.3875955 6.5998993,1.13333333 6.890625,1.13333333 L11.109375,1.13333333 C11.4001007,1.13333333 11.6367188,1.3875955 11.6367188,1.7 L11.6367188,2.26666667 L6.36328125,2.26666667 L6.36328125,1.7 Z M16.7409668,3.4 L15.1033173,8.67914932 C15.0314941,8.91098089 14.8304443,9.06666667 14.6031647,9.06666667 L11.6367188,9.06666667 L11.6367188,8.5 C11.6367188,8.18700522 11.40065,7.93333333 11.109375,7.93333333 L6.890625,7.93333333 C6.59934998,7.93333333 6.36328125,8.18700522 6.36328125,8.5 L6.36328125,9.06666667 L3.39683534,9.06666667 C3.16955566,9.06666667 2.96850586,8.91098089 2.89668273,8.67914932 L1.2590332,3.4 L16.7409668,3.4 Z M10.5820313,9.06666667 L10.5820313,10.2 L7.41796875,10.2 L7.41796875,9.06666667 L10.5820313,9.06666667 Z M16.9453125,15.3 C16.9453125,15.6124045 16.7086944,15.8666667 16.4179688,15.8666667 L1.58203125,15.8666667 C1.29130555,15.8666667 1.0546875,15.6124045 1.0546875,15.3 L1.0546875,6.32526911 L1.89610291,9.0375955 C2.11170959,9.73294272 2.714859,10.2 3.39683534,10.2 L6.36328125,10.2 L6.36328125,10.7666667 C6.36328125,11.0796614 6.59934998,11.3333333 6.890625,11.3333333 L11.109375,11.3333333 C11.40065,11.3333333 11.6367188,11.0796614 11.6367188,10.7666667 L11.6367188,10.2 L14.6031647,10.2 C15.285141,10.2 15.8882904,9.73294272 16.1038971,9.0375955 L16.9453125,6.32526911 L16.9453125,15.3 Z" id="Shape"></path>
                </g>
            </g>
        </g>
    </g>
</svg>