<?xml version="1.0" encoding="UTF-8"?>
<svg width="16px" height="16px" viewBox="0 0 17 13" version="1.1" xmlns="http://www.w3.org/2000/svg" xmlns:xlink="http://www.w3.org/1999/xlink">
    <!-- Generator: Sketch 52.2 (67145) - http://www.bohemiancoding.com/sketch -->
    <title>mail</title>
    <desc>Created with Sketch.</desc>
    <g id="Page-1" stroke="none" stroke-width="1" fill="none" fill-rule="evenodd">
        <g id="1" transform="translate(-149.000000, -311.000000)" fill="#000000" opacity="1">
            <g id="Group-11" transform="translate(135.000000, 182.000000)">
                <g id="Group-10" transform="translate(0.000000, 6.000000)">
                    <g id="Group-3" transform="translate(0.000000, 104.000000)">
                        <g id="Group-6" transform="translate(14.770992, 15.000000)">
                            <g id="mail" transform="translate(0.000000, 4.000000)">
                                <g id="Group" transform="translate(2.512134, 5.913043)">
                                    <path d="M10.103301,3.49944664 C10.0415025,3.49944664 9.97970399,3.47525692 9.93147102,3.42633992 L7.04050707,0.524648221 C6.93951928,0.423588933 6.93449501,0.253185771 7.02945368,0.14513834 C7.12441235,0.0360158103 7.2826768,0.0311778656 7.38466945,0.133312253 L10.2756334,3.03500395 C10.3766212,3.13606324 10.3816454,3.3064664 10.2866868,3.41451383 C10.2369465,3.47095652 10.1706262,3.49944664 10.103301,3.49944664 Z" id="Path"></path>
                                    <path d="M0.453188995,3.49944664 C0.386366227,3.49944664 0.31954346,3.47095652 0.269803204,3.41451383 C0.174844534,3.3064664 0.179868803,3.13606324 0.280856594,3.03500395 L3.17282539,0.133312253 C3.27431561,0.0322529644 3.43358491,0.0365533597 3.52804115,0.14513834 C3.62299982,0.253185771 3.61797555,0.423588933 3.51698776,0.524648221 L0.625018968,3.42633992 C0.576785993,3.47525692 0.514987494,3.49944664 0.453188995,3.49944664 Z" id="Path"></path>
                                </g>
                                <path d="M14.3251936,12.1104506 L1.25606706,12.1104506 C0.563722896,12.1104506 0,11.5078577 0,10.7665771 L0,1.60297233 C0,0.8616917 0.563722896,0.259098814 1.25606706,0.259098814 L14.3251936,0.259098814 C15.0175377,0.259098814 15.5812606,0.8616917 15.5812606,1.60297233 L15.5812606,10.7665771 C15.5812606,11.5078577 15.0175377,12.1104506 14.3251936,12.1104506 Z M1.25606706,0.796648221 C0.840560075,0.796648221 0.502426823,1.15841897 0.502426823,1.60297233 L0.502426823,10.7665771 C0.502426823,11.2111304 0.840560075,11.5729012 1.25606706,11.5729012 L14.3251936,11.5729012 C14.7407006,11.5729012 15.0788338,11.2111304 15.0788338,10.7665771 L15.0788338,1.60297233 C15.0788338,1.15841897 14.7407006,0.796648221 14.3251936,0.796648221 L1.25606706,0.796648221 Z" id="Shape" fill-rule="nonzero"></path>
                                <path d="M7.79063032,7.53536759 C7.45651648,7.53536759 7.12240265,7.41656917 6.86817467,7.17950988 L0.417014263,1.15841897 C0.312509484,1.06112253 0.301456094,0.891256917 0.392395349,0.778909091 C0.484339458,0.667098814 0.642603907,0.656885375 0.747108686,0.753106719 L7.1982691,6.77366008 C7.51931984,7.0730751 8.06194081,7.0730751 8.38248912,6.77366008 L14.8256107,0.762782609 C14.9296131,0.665486166 15.0878775,0.676237154 15.180324,0.78858498 C15.2712633,0.900932806 15.2607123,1.07026087 15.1562076,1.16809486 L8.71308597,7.17897233 C8.45835557,7.41656917 8.12474416,7.53536759 7.79063032,7.53536759 Z" id="Path"></path>
                            </g>
                        </g>
                    </g>
                </g>
            </g>
        </g>
    </g>
</svg>