<?xml version="1.0" encoding="UTF-8"?>
<svg width="21px" height="17px" viewBox="0 0 21 17" version="1.1" xmlns="http://www.w3.org/2000/svg" xmlns:xlink="http://www.w3.org/1999/xlink">
    <!-- Generator: Sketch 52.5 (67469) - http://www.bohemiancoding.com/sketch -->
    <title>envelope-of-white-paper</title>
    <desc>Created with Sketch.</desc>
    <g id="Page-1" stroke="none" stroke-width="1" fill="none" fill-rule="evenodd">
        <g id="28" transform="translate(-931.000000, -1164.000000)" fill="#000000" fill-rule="nonzero" stroke="#FFFFFF" stroke-width="0.2">
            <g id="Group-16" transform="translate(180.000000, 1136.000000)">
                <g id="Group-13" transform="translate(751.000000, 25.000000)">
                    <g id="envelope-of-white-paper" transform="translate(0.500000, 4.000000)">
                        <path d="M19.0016663,0.500679115 C18.6694809,0.166830848 18.2700415,0 17.8036079,0 L2.19646637,0 C1.72995854,0 1.33051911,0.166830848 0.998296611,0.500679115 C0.666036976,0.834452753 0.5,1.23576471 0.5,1.70457768 L0.5,13.2955343 C0.5,13.7644219 0.666036976,14.165398 0.998296611,14.4991716 C1.33048197,14.8332438 1.72992141,15 2.19646637,15 L17.803645,15 C18.2700786,15 18.6694809,14.8332438 19.0017034,14.4991716 C19.3340373,14.165398 19.5,13.764198 19.5,13.2955343 L19.5,1.70457768 C19.4999629,1.23576471 19.3340373,0.834452753 19.0016663,0.500679115 Z M18.1427006,13.2952731 C18.1427006,13.3876252 18.1091664,13.4675144 18.0419124,13.5349781 C17.9746954,13.6025165 17.8952606,13.6359498 17.8034965,13.6359498 L2.19635496,13.6359498 C2.10447944,13.6359498 2.0249332,13.6025165 1.95782768,13.5349781 C1.89064787,13.4675144 1.85711368,13.3876252 1.85711368,13.2952731 L1.85711368,5.11354647 C2.08327453,5.36922193 2.32714947,5.60362841 2.58870134,5.81665398 C4.48310488,7.2796982 5.98865287,8.47990269 7.10549385,9.41745399 C7.46597717,9.72290631 7.75935496,9.960783 7.98551582,10.1312706 C8.21167667,10.3018329 8.51738376,10.4739996 8.9025628,10.6479201 C9.28777899,10.8221018 9.65008199,10.9087822 9.98936041,10.9087822 L10.0000186,10.9087822 L10.0105653,10.9087822 C10.3497695,10.9087822 10.712221,10.8221018 11.0972886,10.6479201 C11.4826162,10.4739996 11.788509,10.3018702 12.0145956,10.1312706 C12.2407193,9.960783 12.5341342,9.72290631 12.8946547,9.41745399 C14.0114957,8.47990269 15.516858,7.2796982 17.4113358,5.81665398 C17.6728877,5.60366573 17.916874,5.36922193 18.1427006,5.11354647 L18.1427006,13.2952731 Z M18.1427006,1.9814848 L18.1427006,2.09865073 C18.1427006,2.51764952 17.9785205,2.98467141 17.6498631,3.49952984 C17.3211685,4.01438827 16.9658472,4.42461828 16.5843818,4.72992134 C15.2199894,5.80963895 13.8029746,6.93521545 12.3324463,8.1070613 C12.2901108,8.1425469 12.1662979,8.24724996 11.9612305,8.42117047 C11.7564603,8.59535217 11.5938027,8.72867505 11.4735921,8.82087792 C11.3532329,8.91334199 11.1961458,9.02517202 11.001848,9.15644263 C10.8074017,9.28771325 10.6289611,9.38555053 10.466415,9.44939477 C10.3038688,9.51308975 10.1518694,9.54499321 10.0105653,9.54499321 L10.0000186,9.54499321 L9.98936041,9.54499321 C9.84801916,9.54499321 9.6961683,9.51308975 9.53351074,9.44939477 C9.37096459,9.38555053 9.19241264,9.28771325 8.99811484,9.15644263 C8.80385418,9.0251347 8.64654426,8.91330468 8.52637077,8.82087792 C8.40627156,8.72867505 8.243614,8.59535217 8.03869518,8.42117047 C7.83370209,8.24724996 7.70988924,8.1425469 7.66751657,8.1070613 C6.19732246,6.93517814 4.78015918,5.80963895 3.41587817,4.72992134 C2.37676374,3.9061777 1.85729936,2.89758056 1.85729936,1.70439111 C1.85729936,1.61215093 1.89083356,1.53218705 1.95801336,1.46479798 C2.02519316,1.39729697 2.10466512,1.36352781 2.19654064,1.36352781 L17.8037193,1.36352781 C17.8601667,1.39543128 17.9097067,1.404312 17.9521536,1.39020732 C17.9946006,1.37584143 18.0263522,1.40255825 18.0474457,1.46998463 C18.0686506,1.53748563 18.0881101,1.5693891 18.1057499,1.56588158 C18.123464,1.56229944 18.1341221,1.60666577 18.1376501,1.69912984 C18.1409552,1.79140733 18.1427378,1.83786325 18.1427378,1.83786325 L18.1427378,1.9814848 L18.1427006,1.9814848 Z" id="Shape"></path>
                    </g>
                </g>
            </g>
        </g>
    </g>
</svg>