<?xml version="1.0" encoding="UTF-8"?>
<svg width="13px" height="17px" viewBox="0 0 13 17" version="1.1" xmlns="http://www.w3.org/2000/svg" xmlns:xlink="http://www.w3.org/1999/xlink">
    <!-- Generator: Sketch 52.2 (67145) - http://www.bohemiancoding.com/sketch -->
    <title>noun_password_1471439</title>
    <desc>Created with Sketch.</desc>
    <g id="Page-1" stroke="none" stroke-width="1" fill="none" fill-rule="evenodd">
        <g id="1" transform="translate(-150.000000, -377.000000)" fill="#000000" fill-rule="nonzero">
            <g id="Group-11" transform="translate(135.000000, 182.000000)">
                <g id="Group-10" transform="translate(0.000000, 6.000000)">
                    <g id="Group-7" transform="translate(0.000000, 173.000000)">
                        <g id="Group-5" transform="translate(15.000000, 15.000000)">
                            <g id="noun_password_1471439" transform="translate(0.000000, 1.000000)">
                                <path d="M11.2909398,6.23816729 L10.144032,6.23816729 L10.144032,3.86143985 C10.144032,1.78490977 8.45434962,0.0952274436 6.37781955,0.0952274436 C4.30128947,0.0952274436 2.61160714,1.78490977 2.61160714,3.86143985 L2.61160714,6.23838722 L1.46469925,6.23838722 C0.676488722,6.23838722 0.0351879699,6.87968797 0.0351879699,7.6678985 L0.0351879699,15.1897669 C0.0351879699,15.9779774 0.676488722,16.6192782 1.46469925,16.6192782 L11.2909398,16.6192782 C12.0791504,16.6192782 12.7204511,15.9779774 12.7204511,15.1897669 L12.7204511,7.66767857 C12.7204511,6.87946805 12.0791504,6.23816729 11.2909398,6.23816729 Z M3.27138158,3.86143985 C3.27138158,2.14866541 4.66504511,0.75500188 6.37781955,0.75500188 C8.09059398,0.75500188 9.48425752,2.14866541 9.48425752,3.86143985 L9.48425752,6.23838722 L3.27138158,6.23838722 L3.27138158,3.86143985 Z M12.0606767,15.189547 C12.0606767,15.6140019 11.7153947,15.9592838 11.2909398,15.9592838 L1.46469925,15.9592838 C1.04024436,15.9592838 0.694962406,15.6140019 0.694962406,15.189547 L0.694962406,7.66767857 C0.694962406,7.24322368 1.04024436,6.89794173 1.46469925,6.89794173 L11.2909398,6.89794173 C11.7153947,6.89794173 12.0606767,7.24322368 12.0606767,7.66767857 L12.0606767,15.189547 Z M6.37781955,9.51592669 C5.76620865,9.51592669 5.2685188,10.0136165 5.2685188,10.6252274 C5.2685188,11.1213778 5.59796617,11.5372556 6.04793233,11.6786673 L6.04793233,13.2324361 C6.04793233,13.4145338 6.1957218,13.5623233 6.37781955,13.5623233 C6.55991729,13.5623233 6.70770677,13.4145338 6.70770677,13.2324361 L6.70770677,11.6786673 C7.15767293,11.5372556 7.4871203,11.1213778 7.4871203,10.6252274 C7.4871203,10.0133966 6.98943045,9.51592669 6.37781955,9.51592669 Z M6.37781955,11.0745338 C6.12996429,11.0745338 5.92829323,10.8728628 5.92829323,10.6250075 C5.92829323,10.3771523 6.12996429,10.1754812 6.37781955,10.1754812 C6.62567481,10.1754812 6.82734586,10.3771523 6.82734586,10.6250075 C6.82734586,10.8728628 6.62567481,11.0745338 6.37781955,11.0745338 Z" id="Shape"></path>
                            </g>
                        </g>
                    </g>
                </g>
            </g>
        </g>
    </g>
</svg>