<?xml version="1.0" encoding="UTF-8"?>
<svg width="32px" height="21px" viewBox="0 0 32 21" version="1.1" xmlns="http://www.w3.org/2000/svg" xmlns:xlink="http://www.w3.org/1999/xlink">
    <!-- Generator: Sketch 52.5 (67469) - http://www.bohemiancoding.com/sketch -->
    <title>Group 3</title>
    <desc>Created with Sketch.</desc>
    <g id="Page-1" stroke="none" stroke-width="1" fill="none" fill-rule="evenodd">
        <g id="Group">
            <g id="Group-2">
                <g id="Group-3">
                    <path d="M23.8139648,8.15974551 L15.4519982,14.7769179 C15.4408154,14.7857174 15.4296996,14.7945169 15.4199231,14.8039192 C15.1492598,15.0462674 15,15.369559 15,15.7142467 C15,16.4230293 15.6403643,17 16.4285152,17 C16.8079928,17 17.1665111,16.8669225 17.4706556,16.5931733 L24.8226239,9.06687872 C25.0709216,8.81259694 25.0569933,8.42776899 24.7905488,8.18795216 C24.5240372,7.94879831 24.0985563,7.93620175 23.8139648,8.15974551 Z" id="Path" fill="#000000"></path>
                    <path d="M16,0 C7.1770625,0 0,7.06558386 0,15.7499692 C0,17.3790452 0.2565,18.9915098 0.7604375,20.5436816 C0.849,20.81543 1.1055,21 1.395875,21 L30.6041875,21 C30.8945625,21 31.1510625,20.81543 31.239625,20.5436816 C31.7435,18.9915098 32,17.3791067 32,15.7499692 C32,7.06558386 24.8229375,0 16,0 Z M28.6666875,16.4062385 L30.6204375,16.4062385 C30.5689375,17.5161191 30.418125,18.6178172 30.109375,19.6874615 L1.890625,19.6874615 C1.581875,18.6177556 1.4310625,17.5161191 1.3795625,16.4062385 L3.3333125,16.4062385 C3.7018125,16.4062385 4,16.1127107 4,15.7499692 C4,15.3872278 3.7018125,15.0937 3.3333125,15.0937 L1.3670625,15.0937 C1.465875,12.9453673 2.0345625,10.9184201 2.9888125,9.11314138 L4.6965625,10.0840409 C4.8020625,10.1436569 4.916625,10.1718346 5.029875,10.1718346 C5.2590625,10.1718346 5.4843125,10.0545712 5.6066875,9.84373077 C5.7915625,9.52971576 5.6821875,9.12852221 5.3631875,8.94715147 L3.65925,7.97840532 C4.8044375,6.22259136 6.321875,4.72898979 8.105625,3.60175957 L9.08975,5.28011566 C9.212125,5.49034084 9.4374375,5.60821952 9.6665625,5.60821952 C9.779875,5.60821952 9.8944375,5.58004184 9.999875,5.52042574 C10.318875,5.339055 10.42825,4.93786145 10.243375,4.62384644 L9.2573125,2.94229113 C11.091375,2.00283007 13.150625,1.44296788 15.33325,1.34569952 L15.33325,3.28122308 C15.33325,3.64396456 15.6314375,3.93749231 15.9999375,3.93749231 C16.3684375,3.93749231 16.666625,3.64396456 16.666625,3.28122308 L16.666625,1.34569952 C18.84925,1.44296788 20.9085,2.00283007 22.7425625,2.94229113 L21.7565,4.62384644 C21.571625,4.93786145 21.681,5.339055 22,5.52042574 C22.1055,5.58004184 22.2200625,5.60821952 22.3333125,5.60821952 C22.5625,5.60821952 22.78775,5.49027932 22.910125,5.28011566 L23.89425,3.60175957 C25.678,4.72898979 27.1954375,6.22259136 28.340625,7.97840532 L26.6366875,8.94715147 C26.3176875,9.12852221 26.2083125,9.52971576 26.3931875,9.84373077 C26.5155625,10.0545712 26.740875,10.1718346 26.97,10.1718346 C27.08325,10.1718346 27.197875,10.1436569 27.3033125,10.0840409 L29.0110625,9.11314138 C29.9653125,10.9184816 30.534,12.9453673 30.6328125,15.0937 L28.6665625,15.0937 C28.2980625,15.0937 27.999875,15.3872278 27.999875,15.7499692 C28,16.1127107 28.2981875,16.4062385 28.6666875,16.4062385 Z" id="Shape" fill="#111111" fill-rule="nonzero"></path>
                </g>
            </g>
        </g>
    </g>
</svg>