<?xml version="1.0" encoding="UTF-8"?>
<svg width="27px" height="27px" viewBox="0 0 27 27" version="1.1" xmlns="http://www.w3.org/2000/svg" xmlns:xlink="http://www.w3.org/1999/xlink">
    <!-- Generator: Sketch 52.5 (67469) - http://www.bohemiancoding.com/sketch -->
    <title>Group 10</title>
    <desc>Created with Sketch.</desc>
    <g id="Page-1" stroke="none" stroke-width="1" fill="none" fill-rule="evenodd">
        <g id="24" transform="translate(-1151.000000, -259.000000)">
            <g id="Group-10" transform="translate(1152.000000, 260.000000)">
                <circle id="Oval-Copy" stroke="#595959" fill="#595959" cx="12.5" cy="12.5" r="12.5"></circle>
                <g id="noun_Delete_1534869" transform="translate(6.000000, 5.000000)" fill="#FFFFFF">
                    <g id="Group">
                        <path d="M8.68333333,1.96666667 L8.68333333,0.0833333333 L4.13333333,0.0833333333 L4.13333333,1.96666667 L0.0666666667,1.96666667 L0.0666666667,2.65 L1.26666667,2.65 L2.13333333,13.9333333 L10.7,13.9333333 L11.5666667,2.65 L12.95,2.65 L12.95,1.96666667 L8.68333333,1.96666667 Z M8.01666667,0.75 L8.01666667,1.95 L4.81666667,1.95 L4.81666667,0.75 L8.01666667,0.75 Z M10.8833333,2.61666667 L10.0666667,13.2166667 L2.75,13.2166667 L1.95,2.61666667 L10.8833333,2.61666667 Z" id="Shape" fill-rule="nonzero"></path>
                        <rect id="Rectangle" x="6.06666667" y="4.43333333" width="1" height="7.05"></rect>
                        <polygon id="Rectangle" transform="translate(8.474864, 7.949636) rotate(3.101402) translate(-8.474864, -7.949636) " points="8.13320914 4.41642817 8.81651828 4.41642817 8.81651828 11.4828447 8.13320914 11.4828447"></polygon>
                        <polygon id="Rectangle" transform="translate(4.333962, 7.952914) rotate(86.899503) translate(-4.333962, -7.952914) " points="0.800757162 7.61125933 7.86716763 7.61125933 7.86716763 8.29456789 0.800757162 8.29456789"></polygon>
                    </g>
                </g>
            </g>
        </g>
    </g>
</svg>