<?xml version="1.0" encoding="UTF-8"?>
<svg width="15px" height="20px" viewBox="0 0 15 20" version="1.1" xmlns="http://www.w3.org/2000/svg" xmlns:xlink="http://www.w3.org/1999/xlink">
    <!-- Generator: Sketch 52.2 (67145) - http://www.bohemiancoding.com/sketch -->
    <title>Delete</title>
    <desc>Created with Sketch.</desc>
    <g id="Page-1" stroke="none" stroke-width="1" fill="none" fill-rule="evenodd">
        <g id="23" transform="translate(-1156.000000, -2405.000000)" fill="#FFFFFF" fill-rule="nonzero">
            <g id="Group-16" transform="translate(234.000000, 1530.000000)">
                <g id="Group-9">
                    <g id="Rectangle">
                        <g id="Group-12" transform="translate(922.000000, 875.000000)">
                            <g id="Group-18">
                                <path d="M14.3268259,1.9345191 L10.6389656,1.9345191 L10.6389656,0.628893861 C10.6389656,0.281601012 10.3375414,1.97175609e-13 9.96571088,1.97175609e-13 L5.03436975,1.97175609e-13 C4.66257957,1.97175609e-13 4.36111499,0.281563345 4.36111499,0.628893861 L4.36111499,1.9345191 L0.673254763,1.9345191 C0.301464579,1.9345191 0,2.21608245 0,2.56341296 L0,4.4978944 C0,4.84518724 0.301424254,5.12678826 0.673254763,5.12678826 L0.877779689,5.12678826 L1.49312874,18.6834889 C1.50837133,19.0201219 1.80503731,19.2857143 2.16573831,19.2857143 L12.8342617,19.2857143 C13.195003,19.2857143 13.4916287,19.0201219 13.5068712,18.6834512 L14.12218,5.12675059 L14.3267452,5.12675059 C14.6985354,5.12675059 15,4.84518724 15,4.49785673 L15,2.56341296 C15.0000806,2.21604478 14.6986564,1.9345191 14.3268259,1.9345191 Z M5.71428571,1.42857143 L9.28571429,1.42857143 L9.28571429,2.14285714 L5.71428571,2.14285714 L5.71428571,1.42857143 Z M12.2624645,17.8571429 L2.73761742,17.8571429 L2.14285714,5 L12.8571429,5 L12.2624645,17.8571429 Z M13.5714286,3.57142857 C12.9678705,3.57142857 1.79014929,3.57142857 1.42857143,3.57142857 L1.42857143,2.85714286 L13.5714286,2.85714286 L13.5714286,3.57142857 Z" id="Shape"></path>
                                <path d="M14.3268259,1.9345191 L10.6389656,1.9345191 L10.6389656,0.628893861 C10.6389656,0.281601012 10.3375414,1.97175609e-13 9.96571088,1.97175609e-13 L5.03436975,1.97175609e-13 C4.66257957,1.97175609e-13 4.36111499,0.281563345 4.36111499,0.628893861 L4.36111499,1.9345191 L0.673254763,1.9345191 C0.301464579,1.9345191 0,2.21608245 0,2.56341296 L0,4.4978944 C0,4.84518724 0.301424254,5.12678826 0.673254763,5.12678826 L0.877779689,5.12678826 L1.49312874,18.6834889 C1.50837133,19.0201219 1.80503731,19.2857143 2.16573831,19.2857143 L12.8342617,19.2857143 C13.195003,19.2857143 13.4916287,19.0201219 13.5068712,18.6834512 L14.12218,5.12675059 L14.3267452,5.12675059 C14.6985354,5.12675059 15,4.84518724 15,4.49785673 L15,2.56341296 C15.0000806,2.21604478 14.6986564,1.9345191 14.3268259,1.9345191 Z M5.71428571,1.42857143 L9.28571429,1.42857143 L9.28571429,2.14285714 L5.71428571,2.14285714 L5.71428571,1.42857143 Z M12.2624645,17.8571429 L2.73761742,17.8571429 L2.14285714,5 L12.8571429,5 L12.2624645,17.8571429 Z M13.5714286,3.57142857 C12.9678705,3.57142857 1.79014929,3.57142857 1.42857143,3.57142857 L1.42857143,2.85714286 L13.5714286,2.85714286 L13.5714286,3.57142857 Z" id="Shape-Copy-7"></path>
                            </g>
                        </g>
                    </g>
                </g>
            </g>
        </g>
    </g>
</svg>