<?xml version="1.0" encoding="UTF-8"?>
<svg width="23px" height="21px" viewBox="0 0 23 21" version="1.1" xmlns="http://www.w3.org/2000/svg" xmlns:xlink="http://www.w3.org/1999/xlink">
    <!-- Generator: Sketch 52.5 (67469) - http://www.bohemiancoding.com/sketch -->
    <title>feature</title>
    <desc>Created with Sketch.</desc>
    <g id="Page-1" stroke="none" stroke-width="1" fill="none" fill-rule="evenodd">
        <g id="17" transform="translate(-64.000000, -466.000000)" fill="#000000">
            <g id="feature" transform="translate(64.000000, 466.000000)">
                <path d="M1.47288462,17.85 L2.20932692,17.85 L2.20932692,17.10625 L1.47288462,17.10625 C1.06609229,17.10625 0.736442308,16.7733289 0.736442308,16.3625 L0.736442308,1.4875 C0.736442308,1.07667109 1.06609229,0.74375 1.47288462,0.74375 L17.6746154,0.74375 C18.0814077,0.74375 18.4110577,1.07667109 18.4110577,1.4875 L18.4110577,2.23125 L19.1475,2.23125 L19.1475,1.4875 C19.1475,0.666028125 18.4880159,0 17.6746154,0 L1.47288462,0 C0.659484087,0 0,0.666028125 0,1.4875 L0,16.3625 C0,17.1839719 0.659484087,17.85 1.47288462,17.85 Z" id="Path"></path>
                <polygon id="Path" points="1.5525 1.575 2.07 1.575 2.07 2.1 1.5525 2.1"></polygon>
                <polygon id="Path" points="3.105 1.575 3.6225 1.575 3.6225 2.1 3.105 2.1"></polygon>
                <polygon id="Path" points="4.6575 1.575 5.175 1.575 5.175 2.1 4.6575 2.1"></polygon>
                <path d="M3.105,19.5125 C3.105,20.3339719 3.76448409,21 4.57788462,21 L20.7796154,21 C21.5930159,21 22.2525,20.3339719 22.2525,19.5125 L22.2525,4.6375 C22.2525,3.81602813 21.5930159,3.15 20.7796154,3.15 L4.57788462,3.15 C3.76448409,3.15 3.105,3.81602813 3.105,4.6375 L3.105,19.5125 Z M3.84144231,4.6375 C3.84144231,4.22667109 4.17109229,3.89375 4.57788462,3.89375 L20.7796154,3.89375 C21.1864077,3.89375 21.5160577,4.22667109 21.5160577,4.6375 L21.5160577,19.5125 C21.5160577,19.9233289 21.1864077,20.25625 20.7796154,20.25625 L4.57788462,20.25625 C4.17109229,20.25625 3.84144231,19.9233289 3.84144231,19.5125 L3.84144231,4.6375 Z" id="Shape" fill-rule="nonzero"></path>
                <polygon id="Path" points="4.6575 4.725 5.175 4.725 5.175 5.25 4.6575 5.25"></polygon>
                <polygon id="Path" points="6.21 4.725 6.7275 4.725 6.7275 5.25 6.21 5.25"></polygon>
                <polygon id="Path" points="7.7625 4.725 8.28 4.725 8.28 5.25 7.7625 5.25"></polygon>
                <polygon id="Path" points="4.6575 6.3 20.7 6.3 20.7 6.825 4.6575 6.825"></polygon>
                <polygon id="Path" points="4.14 7.875 7.245 7.875 7.245 8.4 4.14 8.4"></polygon>
                <polygon id="Path" points="4.6575 9.45 6.7275 9.45 6.7275 9.975 4.6575 9.975"></polygon>
                <path d="M12.42,11.025 C10.9908683,11.025 9.8325,12.2001563 9.8325,13.65 C9.8325,15.0998437 10.9908683,16.275 12.42,16.275 C13.8491317,16.275 15.0075,15.0998437 15.0075,13.65 C15.0058366,12.201 13.8483,11.0266875 12.42,11.025 Z M12.42,15.525 C11.3993237,15.525 10.5717857,14.6854687 10.5717857,13.65 C10.5717857,12.6145313 11.3993237,11.775 12.42,11.775 C13.4406763,11.775 14.2682143,12.6145313 14.2682143,13.65 C14.2669205,14.685 13.4402143,15.5236875 12.42,15.525 Z" id="Shape" fill-rule="nonzero"></path>
                <path d="M18.63,12.2554687 C18.63,12.0469863 18.463551,11.878125 18.2580469,11.878125 L17.2749748,11.878125 C17.1962137,11.6302102 17.0980181,11.3889932 16.9807598,11.1573984 L17.6759402,10.4526146 C17.821002,10.3051676 17.821002,10.0664033 17.6759402,9.91895625 L16.0977431,8.31788672 C15.9524024,8.17072266 15.7170491,8.17072266 15.5717084,8.31788672 L14.876993,9.02276484 C14.6483348,8.90427891 14.4107497,8.80466016 14.1665625,8.72466328 L14.1665625,7.72734375 C14.1665625,7.51886134 14.0001135,7.35 13.7946094,7.35 L11.5628906,7.35 C11.3573865,7.35 11.1909375,7.51886134 11.1909375,7.72734375 L11.1909375,8.72466328 C10.9467503,8.80466016 10.7091652,8.90427891 10.480507,9.02276484 L9.78579158,8.31788672 C9.64045091,8.17072266 9.40509756,8.17072266 9.25975688,8.31788672 L7.68155977,9.91895625 C7.53649805,10.0664033 7.53649805,10.3051676 7.68155977,10.4526146 L8.3763682,11.1573984 C8.34531013,11.2191885 8.31536789,11.2811672 8.28709945,11.3438062 C8.20861734,11.5177617 8.14036393,11.6960567 8.08252523,11.878125 L7.09945313,11.878125 C6.89394904,11.878125 6.7275,12.0469863 6.7275,12.2554687 L6.7275,14.5195312 C6.7275,14.7280137 6.89394904,14.896875 7.09945313,14.896875 L8.08252523,14.896875 C8.16128631,15.1447898 8.25948194,15.3860068 8.37674016,15.6176016 L7.68155977,16.3223854 C7.53649805,16.4698324 7.53649805,16.7085967 7.68155977,16.8560437 L9.25975688,18.4571133 C9.40509756,18.6042773 9.64045091,18.6042773 9.78579158,18.4571133 L10.480507,17.7522352 C10.7091652,17.8707211 10.9467503,17.9703398 11.1909375,18.0503367 L11.1909375,19.0476562 C11.1909375,19.2561387 11.3573865,19.425 11.5628906,19.425 L13.7946094,19.425 C14.0001135,19.425 14.1665625,19.2561387 14.1665625,19.0476562 L14.1665625,18.0503367 C14.4107497,17.9703398 14.6483348,17.8707211 14.876993,17.7522352 L15.5717084,18.4571133 C15.7170491,18.6042773 15.9524024,18.6042773 16.0977431,18.4571133 L17.6759402,16.8560437 C17.821002,16.7085967 17.821002,16.4698324 17.6759402,16.3223854 L16.9807598,15.6176016 C17.0980181,15.3860068 17.1962137,15.1447898 17.2749748,14.896875 L18.2580469,14.896875 C18.463551,14.896875 18.63,14.7280137 18.63,14.5195312 L18.63,12.2554687 Z M17.8860938,14.1421875 L16.995638,14.1421875 C16.8260273,14.1421875 16.67799,14.2586924 16.6355873,14.4251953 C16.5405533,14.799709 16.3940968,15.1591289 16.2004022,15.4923234 C16.114202,15.6404308 16.1379141,15.8291027 16.257683,15.9507961 L16.8865627,16.5891674 L15.8346793,17.6567672 L15.2054276,17.0183016 C15.0853797,16.8966082 14.8994031,16.8726469 14.7533186,16.9601906 C14.4248839,17.1566924 14.0707846,17.3053658 13.7016211,17.4016828 C13.5374968,17.4447 13.4226563,17.5948828 13.4226563,17.7669516 L13.4226563,18.6703125 L11.9348438,18.6703125 L11.9348438,17.7669516 C11.9348438,17.5948828 11.8200032,17.4447 11.6558789,17.4016828 C11.2867154,17.3053658 10.9326161,17.1566924 10.6041814,16.9601906 C10.4580969,16.8726469 10.2721203,16.8966082 10.1520724,17.0183016 L9.52282072,17.6567672 L8.47093728,16.5891674 L9.09981703,15.9507961 C9.21958594,15.8291027 9.24329796,15.6404308 9.15709781,15.4923234 C8.96340322,15.1591289 8.81694669,14.799709 8.72191266,14.4251953 C8.67951,14.2586924 8.53147266,14.1421875 8.36186203,14.1421875 L7.47140625,14.1421875 L7.47140625,12.6328125 L8.36186203,12.6328125 C8.53147266,12.6328125 8.67951,12.5163076 8.72191266,12.3498047 C8.7819831,12.1122668 8.86297587,11.8809551 8.96377517,11.6582279 C9.02189284,11.529082 9.08642672,11.4031435 9.15709781,11.2808842 C9.24301898,11.1326824 9.21949296,10.9442935 9.09981703,10.8226945 L8.47093728,10.1843232 L9.52282072,9.11672344 L10.1520724,9.75537772 C10.2721203,9.87707109 10.4580969,9.90084375 10.6041814,9.81320567 C10.9326161,9.61689259 11.2867154,9.46803047 11.6558789,9.37171348 C11.8200032,9.32879062 11.9348438,9.17841915 11.9348438,9.00663339 L11.9348438,8.1046875 L13.4226563,8.1046875 L13.4226563,9.00804844 C13.4226563,9.18011719 13.5374968,9.3303 13.7016211,9.37331719 C14.0707846,9.46963417 14.4248839,9.61830761 14.7533186,9.81480937 C14.8994031,9.90235312 15.0853797,9.87839178 15.2054276,9.75669844 L15.8346793,9.11823281 L16.8865627,10.1858326 L16.257683,10.8242039 C16.1379141,10.9458973 16.114202,11.1345692 16.2004022,11.2826766 C16.3940968,11.6158711 16.5405533,11.975291 16.6355873,12.3498047 C16.67799,12.5163076 16.8260273,12.6328125 16.995638,12.6328125 L17.8860938,12.6328125 L17.8860938,14.1421875 Z" id="Shape" fill-rule="nonzero"></path>
                <polygon id="Path" points="18.63 18.9 20.7 18.9 20.7 19.425 18.63 19.425"></polygon>
            </g>
        </g>
    </g>
</svg>