<?xml version="1.0" encoding="UTF-8"?>
<svg width="19px" height="22px" viewBox="0 0 19 22" version="1.1" xmlns="http://www.w3.org/2000/svg" xmlns:xlink="http://www.w3.org/1999/xlink">
    <!-- Generator: Sketch 52.2 (67145) - http://www.bohemiancoding.com/sketch -->
    <title>doc-file-format</title>
    <desc>Created with Sketch.</desc>
    <g id="Page-1" stroke="none" stroke-width="1" fill="none" fill-rule="evenodd">
        <g id="19-copy-9" transform="translate(-235.000000, -383.000000)" fill="#000000">
            <g id="Group-13-Copy" transform="translate(215.000000, 349.000000)">
                <g id="doc-file-format" transform="translate(20.000000, 34.000000)">
                    <path d="M17.7975942,7.64584956 L17.2824954,7.64584956 L17.2824954,5.16899101 C17.2824954,5.15355304 17.2799911,5.13799812 17.2779564,5.12236522 C17.2771347,5.02400664 17.2457138,4.92744136 17.1781374,4.85091425 L13.0416563,0.143347009 C13.0404433,0.142138481 13.039152,0.141709649 13.0383303,0.140423151 C13.0137179,0.112977871 12.9849579,0.0901327944 12.9545543,0.0704064995 C12.9455155,0.0644028445 12.9364766,0.0593738088 12.9270073,0.0541108645 C12.9007124,0.0398424377 12.872774,0.027952082 12.8440139,0.0193364473 C12.8362272,0.0171922848 12.8292622,0.0141124877 12.8214754,0.01200731 C12.7901719,0.00460020318 12.7577337,0 12.7249433,0 L2.55894219,0 C2.09471157,0 1.71762201,0.376164072 1.71762201,0.838250582 L1.71762201,7.64561565 L1.20256235,7.64561565 C0.538459004,7.64561565 0,8.18177323 0,8.84361771 L0,15.0738522 C0,15.7350729 0.538459004,16.2718933 1.20256235,16.2718933 L1.71762201,16.2718933 L1.71762201,20.5367884 C1.71762201,20.9989139 2.09471157,21.375 2.55894219,21.375 L16.4411361,21.375 C16.9049363,21.375 17.2824954,20.9989139 17.2824954,20.5367884 L17.2824954,16.2719322 L17.7975942,16.2719322 C18.4614627,16.2719322 19,15.7353458 19,15.0738912 L19,8.84385162 C19.0000391,8.18181221 18.4614627,7.64584956 17.7975942,7.64584956 Z M2.55894219,0.838250582 L12.3042245,0.838250582 L12.3042245,5.12680949 C12.3042245,5.35849599 12.4927497,5.54593478 12.7249042,5.54593478 L16.4411361,5.54593478 L16.4411361,7.64581057 L2.55894219,7.64581057 L2.55894219,0.838250582 Z M12.6536105,11.618242 C12.6536105,13.5237007 11.4940513,14.6787415 9.78902895,14.6787415 C8.05837687,14.6787415 7.04582665,13.376962 7.04582665,11.7217855 C7.04582665,9.98006282 8.16210878,8.67828329 9.88415241,8.67828329 C11.6752593,8.67828329 12.6536105,10.0144084 12.6536105,11.618242 Z M1.29068165,14.5581616 L1.29068165,8.85098584 C1.77525954,8.77321121 2.4068464,8.73005507 3.07349316,8.73005507 C4.18104945,8.73005507 4.8991513,8.92844858 5.46167486,9.35073164 C6.06739722,9.79917348 6.44836058,10.5148559 6.44836058,11.5406623 C6.44836058,12.6528978 6.04172836,13.4201181 5.47936133,13.8942899 C4.86487399,14.4030412 3.93019118,14.644279 2.78780977,14.644279 C2.10378957,14.644318 1.61940733,14.6012008 1.29068165,14.5581616 Z M16.4411361,20.3095851 L2.55894219,20.3095851 L2.55894219,16.2719322 L16.4411361,16.2719322 L16.4411361,20.3095851 Z M16.5047604,13.5841271 C16.9028624,13.5841271 17.3442806,13.4974639 17.6037082,13.3943882 L17.802994,14.4202725 C17.5605486,14.5414372 17.0154376,14.6701259 16.3059833,14.6701259 C14.2897261,14.6701259 13.251194,13.4201571 13.251194,11.7647467 C13.251194,9.78225409 14.6702981,8.67828329 16.4353449,8.67828329 C17.1189347,8.67828329 17.6386116,8.81621142 17.8724095,8.93706421 L17.603943,9.98006282 C17.3358678,9.86809856 16.9637086,9.76443804 16.4962302,9.76443804 C15.449207,9.76443804 14.6356295,10.3939252 14.6356295,11.6870111 C14.6354339,12.8510184 15.3278278,13.5841271 16.5047604,13.5841271 Z" id="Shape" fill-rule="nonzero"></path>
                    <path d="M5.54159035,11.3824027 C5.55003606,10.1507734 4.85687706,9.5 3.75003154,9.5 C3.46264839,9.5 3.27630793,9.52628865 3.16666667,9.5528557 L3.16666667,13.4318039 C3.27626971,13.4582516 3.45404982,13.4582516 3.61470923,13.4582516 C4.78090396,13.4668422 5.54159035,12.7983309 5.54159035,11.3824027 Z" id="Path"></path>
                    <path d="M7.91666667,11.496395 C7.91666667,12.6476564 8.51902556,13.4583333 9.50970696,13.4583333 C10.5103589,13.4583333 11.0833333,12.6036197 11.0833333,11.4616624 C11.0833333,10.4063591 10.5200658,9.5 9.5,9.5 C8.49991909,9.50023654 7.91666667,10.3546348 7.91666667,11.496395 Z" id="Path"></path>
                </g>
            </g>
        </g>
    </g>
</svg>