<?xml version="1.0" encoding="UTF-8"?>
<svg width="15px" height="16px" viewBox="0 0 15 16" version="1.1" xmlns="http://www.w3.org/2000/svg" xmlns:xlink="http://www.w3.org/1999/xlink">
    <!-- Generator: Sketch 52.2 (67145) - http://www.bohemiancoding.com/sketch -->
    <title>Group 18</title>
    <desc>Created with Sketch.</desc>
    <g id="Page-1" stroke="none" stroke-width="1" fill="none" fill-rule="evenodd">
        <g id="21" transform="translate(-635.000000, -844.000000)" fill="#FFFFFF" stroke="#FFFFFF">
            <g id="Group-13" transform="translate(625.000000, 827.000000)">
                <g id="Group-18" transform="translate(10.000000, 18.000000)">
                    <rect id="Rectangle" x="0.5" y="13.5" width="14" height="1" rx="0.5"></rect>
                    <g id="Group-11" transform="translate(3.000000, 0.000000)">
                        <path d="M9.1235672,2.9869381 L5.38062872,0.234048277 C4.95632801,-0.0779878657 4.31644851,-0.0780443173 3.89211351,0.234048277 L0.149175034,2.98690987 C-0.0348966014,3.12225255 -0.0508044499,3.35483309 0.113622364,3.50637737 C0.278014893,3.6578652 0.560482056,3.67107487 0.74462226,3.53564752 L4.18956285,1.00198743 L4.18956285,8.13210501 C4.18956285,8.3353025 4.38967947,8.5 4.63642254,8.5 C4.88323418,8.5 5.08328224,8.3353025 5.08328224,8.13210501 L5.08328224,1.00198743 L8.52822283,3.53564752 C8.61345324,3.598337 8.71980269,3.62921602 8.82574073,3.62921602 C8.94858087,3.62921602 9.07087245,3.58775233 9.15918844,3.50640559 C9.3235124,3.35486131 9.30760455,3.12233723 9.1235672,2.9869381 Z" id="Path"></path>
                    </g>
                </g>
            </g>
        </g>
    </g>
</svg>