<?xml version="1.0" encoding="UTF-8"?>
<svg width="14px" height="11px" viewBox="0 0 14 11" version="1.1" xmlns="http://www.w3.org/2000/svg" xmlns:xlink="http://www.w3.org/1999/xlink">
    <!-- Generator: Sketch 52.5 (67469) - http://www.bohemiancoding.com/sketch -->
    <title>envelope (1)</title>
    <desc>Created with Sketch.</desc>
    <g id="Page-1" stroke="none" stroke-width="1" fill="none" fill-rule="evenodd">
        <g id="24" transform="translate(-303.000000, -393.000000)" fill="#F1631E">
            <g id="Group-26" transform="translate(182.000000, 152.000000)">
                <g id="Group-13" transform="translate(65.000000, 0.000000)">
                    <g id="Group-9" transform="translate(30.000000, 148.000000)">
                        <g id="Group-14">
                            <g id="Group-18" transform="translate(26.000000, 85.000000)">
                                <g id="envelope-(1)" transform="translate(7.000000, 13.500000) scale(-1, 1) translate(-7.000000, -13.500000) translate(0.000000, 8.000000)">
                                    <path d="M12.2909094,0 L1.71197914,0 C0.767638699,0 0,0.756525285 0,1.68719413 L0,8.81280587 C0,9.74347471 0.767638699,10.5 1.71197914,10.5 L12.2880127,10.5 C13.2323531,10.5 13.9999918,9.74347471 13.9999918,8.81280587 L13.9999918,1.69004894 C14.0028886,0.759380098 13.2352499,0 12.2909094,0 Z M13.2207661,8.81280587 C13.2207661,9.31810767 12.8036342,9.72920065 12.2909094,9.72920065 L1.71197914,9.72920065 C1.19925442,9.72920065 0.782122449,9.31810767 0.782122449,8.81280587 L0.782122449,1.69004894 C0.782122449,1.18474715 1.19925442,0.77365416 1.71197914,0.77365416 L12.2880127,0.77365416 C12.8007374,0.77365416 13.2178694,1.18474715 13.2178694,1.69004894 L13.2178694,8.81280587 L13.2207661,8.81280587 Z" id="Shape" fill-rule="nonzero"></path>
                                    <path d="M8.78071346,5.45099728 L12.1175465,2.42505888 C12.2728137,2.28232594 12.2869289,2.03967994 12.1457769,1.87981904 C12.0046249,1.7228128 11.7646665,1.70853951 11.6065763,1.85127245 L7.00502142,6.02763837 L6.10729476,5.21691525 C6.10447172,5.21406059 6.10164868,5.21120593 6.10164868,5.20835127 C6.0818874,5.18836866 6.06212612,5.17124071 6.0395418,5.15411276 L2.38652829,1.84841779 C2.22843806,1.70568485 1.98847968,1.71995814 1.84732769,1.87981904 C1.7061757,2.03967994 1.7202909,2.28232594 1.87838112,2.42505888 L5.25473674,5.47668921 L1.89249632,8.65963384 C1.74005217,8.80522144 1.73158305,9.04786745 1.87555808,9.20487368 C1.95178016,9.28480413 2.05340959,9.32762402 2.15503903,9.32762402 C2.24819934,9.32762402 2.34135965,9.29336811 2.41475869,9.2248563 L5.82781382,5.99623712 L6.75377088,6.83265217 C6.82716991,6.89830932 6.91750718,6.92971057 7.00784446,6.92971057 C7.09818173,6.92971057 7.19134205,6.89545466 7.26191804,6.82979751 L8.21328246,5.96769053 L11.6065763,9.22771096 C11.6799753,9.29907743 11.7759587,9.33333333 11.869119,9.33333333 C11.9707484,9.33333333 12.0695548,9.29336811 12.1457769,9.21343766 C12.2897519,9.05928608 12.2841059,8.81378542 12.1316617,8.66819782 L8.78071346,5.45099728 Z" id="Path"></path>
                                </g>
                            </g>
                        </g>
                    </g>
                </g>
            </g>
        </g>
    </g>
</svg>