<?xml version="1.0" encoding="UTF-8"?>
<svg width="24px" height="24px" viewBox="0 0 24 24" version="1.1" xmlns="http://www.w3.org/2000/svg" xmlns:xlink="http://www.w3.org/1999/xlink">
    <!-- Generator: Sketch 52.4 (67378) - http://www.bohemiancoding.com/sketch -->
    <title>Group 3</title>
    <desc>Created with Sketch.</desc>
    <g id="Page-1" stroke="none" stroke-width="1" fill="none" fill-rule="evenodd">
        <g id="24" transform="translate(-1177.000000, -1647.000000)" fill-rule="nonzero">
            <g id="Group-3" transform="translate(1177.000000, 1647.000000)">
                <g id="noun_Plus_707850" fill="#F24F00">
                    <g id="Group">
                        <g id="Shape">
                            <path d="M12,24 C18.627417,24 24,18.627417 24,12 C24,5.372583 18.627417,0 12,0 C5.372583,0 0,5.372583 0,12 C0,18.627417 5.372583,24 12,24 Z"></path>
                        </g>
                    </g>
                </g>
                <path d="M11.1,11.1 L5.69742249,11.1 C5.20081329,11.1 4.8,11.5029437 4.8,12 C4.8,12.4960449 5.20178973,12.9 5.69742249,12.9 L11.1,12.9 L11.1,18.6025775 C11.1,19.0991867 11.5029437,19.5 12,19.5 C12.4960449,19.5 12.9,19.0982103 12.9,18.6025775 L12.9,12.9 L18.6025775,12.9 C19.0991867,12.9 19.5,12.4970563 19.5,12 C19.5,11.5039551 19.0982103,11.1 18.6025775,11.1 L12.9,11.1 L12.9,5.69742249 C12.9,5.20081329 12.4970563,4.8 12,4.8 C11.5039551,4.8 11.1,5.20178973 11.1,5.69742249 L11.1,11.1 Z" id="Path" fill="#FFFFFF"></path>
            </g>
        </g>
    </g>
</svg>