<?xml version="1.0" encoding="UTF-8"?>
<svg width="12px" height="11px" viewBox="0 0 12 11" version="1.1" xmlns="http://www.w3.org/2000/svg" xmlns:xlink="http://www.w3.org/1999/xlink">
    <!-- Generator: Sketch 52.5 (67469) - http://www.bohemiancoding.com/sketch -->
    <title>Shape Copy 2</title>
    <desc>Created with Sketch.</desc>
    <g id="Page-1" stroke="none" stroke-width="1" fill="none" fill-rule="evenodd">
        <g id="13.-BM-receving-an-event" transform="translate(-552.000000, -317.000000)" fill="#FFFFFF" fill-rule="nonzero" stroke="#FFFFFF">
            <path d="M562.56919,318.000001 L553.430708,318.000001 C553.26953,317.999721 553.121766,318.082397 553.048088,318.214064 C552.973393,318.347503 552.986503,318.50819 553.081929,318.630058 L556.429884,322.960584 C556.431002,322.962077 556.432221,322.963477 556.433339,322.96497 C556.554985,323.115765 556.620737,323.298381 556.621143,323.486129 L556.621143,327.016766 C556.620432,327.121371 556.665147,327.221777 556.745432,327.295962 C556.825716,327.370147 556.934862,327.411765 557.048682,327.411765 C557.106609,327.411765 557.163824,327.401127 557.217279,327.380784 L559.098573,326.722079 C559.26717,326.674862 559.37906,326.528826 559.37906,326.352928 L559.37906,323.486129 C559.379365,323.298475 559.445218,323.115765 559.566762,322.96497 C559.56788,322.963477 559.5691,322.962077 559.570218,322.960584 L562.918071,318.629872 C563.013497,318.508097 563.026607,318.347503 562.951912,318.214064 C562.878234,318.082397 562.73047,317.999721 562.56919,318.000001 Z M559.147252,322.681948 C558.960261,322.914953 558.859143,323.196669 558.858533,323.486129 L558.858533,326.294887 L557.141467,326.896017 L557.141467,323.486129 C557.140857,323.196669 557.039739,322.914953 556.852647,322.681948 L553.602354,318.477769 L562.397646,318.477769 L559.147252,322.681948 Z" id="Shape-Copy-2"></path>
        </g>
    </g>
</svg>