<?xml version="1.0" encoding="UTF-8"?>
<svg width="17px" height="20px" viewBox="0 0 17 20" version="1.1" xmlns="http://www.w3.org/2000/svg" xmlns:xlink="http://www.w3.org/1999/xlink">
    <!-- Generator: Sketch 52.2 (67145) - http://www.bohemiancoding.com/sketch -->
    <title>calendar-page-empty (1)</title>
    <desc>Created with Sketch.</desc>
    <g id="Page-1" stroke="none" stroke-width="1" fill="none" fill-rule="evenodd">
        <g id="16" transform="translate(-195.000000, -1031.000000)" fill="#FFFFFF" fill-rule="nonzero">
            <g id="Group-7" transform="translate(184.000000, 266.000000)">
                <g id="Group-8-Copy" transform="translate(0.000000, 755.000000)">
                    <g id="calendar-page-empty-(1)" transform="translate(11.000000, 10.000000)">
                        <path d="M16.6119302,3.20749382 C16.3533958,2.93111486 16.0466614,2.79290627 15.6925141,2.79290627 L14.3849567,2.79290627 L14.3849567,1.74554731 C14.3849567,1.26561924 14.2247549,0.854661722 13.9046733,0.512827602 C13.5844128,0.170993482 13.1997781,0 12.7501252,0 L12.096436,0 C11.6468189,0 11.2620411,0.170993482 10.9419237,0.512865813 C10.621699,0.854661722 10.4616403,1.26565745 10.4616403,1.74558552 L10.4616403,2.79294448 L6.53871753,2.79294448 L6.53871753,1.74558552 C6.53871753,1.26565745 6.37858728,0.854699933 6.05843412,0.512865813 C5.73835254,0.170993482 5.35353897,0 4.90392185,0 L4.25012524,0 C3.80061547,0 3.41576612,0.170993482 3.09561297,0.512865813 C2.77553138,0.854661722 2.61536535,1.26565745 2.61536535,1.74558552 L2.61536535,2.79294448 L1.30777213,2.79294448 C0.953517498,2.79294448 0.647069348,2.93115307 0.388248765,3.20753203 C0.129428183,3.48387278 0,3.81126321 0,4.18943583 L0,18.1536997 C0,18.5316049 0.129428183,18.8589189 0.388248765,19.1354507 C0.647033565,19.4117532 0.953481715,19.55 1.30777213,19.55 L15.6922637,19.55 C16.0464109,19.55 16.3531811,19.4117914 16.6116797,19.1354507 C16.870536,18.8590335 17,18.5315666 17,18.1536997 L17,4.18939762 C16.9999642,3.81111036 16.8706434,3.48387278 16.6119302,3.20749382 Z M11.7695198,1.74570016 C11.7695198,1.64379186 11.7998998,1.56007193 11.861125,1.49476961 C11.9223502,1.42939087 12.0007157,1.39664419 12.0962213,1.39664419 L12.7499105,1.39664419 C12.8454519,1.39664419 12.9235669,1.42927624 12.9850068,1.49476961 C13.0462678,1.56018656 13.0768625,1.6439065 13.0768625,1.74570016 L13.0768625,4.88754776 C13.0768625,4.98941785 13.0462678,5.07298494 12.9850068,5.13847831 C12.9235311,5.20378062 12.8454519,5.23660373 12.7499105,5.23660373 L12.0962213,5.23660373 C12.0007157,5.23660373 11.9223502,5.20393347 11.861125,5.13847831 C11.7998998,5.07294673 11.7695198,4.98941785 11.7695198,4.88754776 L11.7695198,1.74570016 Z M3.92324483,1.74570016 C3.92324483,1.64379186 3.95383955,1.56007193 4.01513633,1.49476961 C4.0764689,1.42939087 4.15472697,1.39664419 4.25012524,1.39664419 L4.90392185,1.39664419 C4.9993559,1.39664419 5.0777571,1.42927624 5.13891076,1.49476961 C5.20013598,1.56018656 5.23087383,1.6439065 5.23087383,1.74570016 L5.23087383,4.88754776 C5.23087383,4.98941785 5.20027911,5.07309957 5.13891076,5.13847831 C5.07761397,5.20378062 4.9993559,5.23660373 4.90392185,5.23660373 L4.25012524,5.23660373 C4.15472697,5.23660373 4.07636155,5.20393347 4.01513633,5.13847831 C3.95398268,5.07294673 3.92324483,4.98941785 3.92324483,4.88754776 L3.92324483,1.74570016 Z M15.6922637,18.1535087 L1.30777213,18.1535087 L1.30777213,6.98218926 L15.6922637,6.98218926 L15.6922637,18.1535087 Z" id="Shape"></path>
                    </g>
                </g>
            </g>
        </g>
    </g>
</svg>