<?xml version="1.0" encoding="UTF-8"?>
<svg width="15px" height="20px" viewBox="0 0 15 20" version="1.1" xmlns="http://www.w3.org/2000/svg" xmlns:xlink="http://www.w3.org/1999/xlink">
    <!-- Generator: Sketch 52.2 (67145) - http://www.bohemiancoding.com/sketch -->
    <title>location</title>
    <desc>Created with Sketch.</desc>
    <g id="Page-1" stroke="none" stroke-width="1" fill="none" fill-rule="evenodd">
        <g id="27" transform="translate(-1220.000000, -281.000000)" fill="#BCC7D2" fill-rule="nonzero">
            <g id="Group-9" transform="translate(952.000000, 49.000000)">
                <g id="Group-7">
                    <g id="Rectangle">
                        <g id="location" transform="translate(268.000000, 232.000000)">
                            <path d="M14.9526109,19.2955472 L12.3162828,13.7181667 C12.2636726,13.6068776 12.1725129,13.5216042 12.0631915,13.4750808 L10.7516477,12.8911358 L13.0241962,9.08184046 C13.0296252,9.07269984 13.0347417,9.06344203 13.0396238,9.05398891 C13.4914386,8.17199709 13.7205487,7.21891155 13.7205487,6.2213729 C13.7205487,4.54328765 13.0625895,2.97008518 11.867866,1.79160911 C10.6733378,0.613406471 9.09081446,-0.0229604528 7.41193677,0.000633287376 C5.78137295,0.0232504655 4.24610891,0.678289257 3.08888041,1.84516377 C1.93176908,3.01196016 1.28919852,4.55270171 1.27951231,6.1836776 C1.2735756,7.18035687 1.50905201,8.17285646 1.96031996,9.05394985 C1.96516307,9.06336391 1.97027957,9.07266078 1.97570854,9.0818014 L4.24821801,12.8910576 L2.92909703,13.4782058 C2.82118173,13.5262136 2.73408397,13.6113308 2.68362195,13.7181276 L0.0473719208,19.2955472 C-0.0408585017,19.4820705 -0.00363690247,19.7038673 0.140640734,19.8514063 C0.284879313,19.9989453 0.505631127,20.0412109 0.694160675,19.9573047 L3.99676716,18.4867584 L7.29937365,19.9573047 C7.42713005,20.0141406 7.57300904,20.0141406 7.70076544,19.9573047 L11.0033719,18.4867584 L14.3059784,19.9573047 C14.3705011,19.9860156 14.4388123,20 14.5065376,20 C14.6366375,20 14.7646282,19.9485156 14.8594984,19.8514454 C15.0036588,19.7038673 15.0408414,19.4821487 14.9526109,19.2955472 Z M2.83161003,8.59008285 C2.45158258,7.84273941 2.26141263,7.03520068 2.26645102,6.18957604 C2.28316754,3.3603194 4.59762454,1.02668755 7.42568493,0.987507878 C8.83823095,0.968523511 10.1699674,1.5030936 11.1749116,2.49438225 C12.1801681,3.48590528 12.7337271,4.80949848 12.7337271,6.22141196 C12.7337271,7.05574755 12.5435572,7.8525441 12.1684509,8.59008285 L7.92378258,15.7052362 C7.79419048,15.9224236 7.5842966,15.9458611 7.50005002,15.9458611 C7.41576438,15.9458611 7.2058705,15.9224236 7.07631746,15.7052362 L2.83161003,8.59008285 Z M11.2039702,17.4957432 C11.0762138,17.4389073 10.9303348,17.4389073 10.8025784,17.4957432 L7.4999719,18.9662895 L4.19736541,17.4957432 C4.06960901,17.4389073 3.92373003,17.4389073 3.79597363,17.4957432 L1.50807558,18.5144928 L3.49757592,14.3055492 L4.75748604,13.7447682 L6.22869611,16.2109 C6.49834765,16.6629311 6.97359678,16.9328138 7.49989379,16.9328138 C8.0261908,16.9328138 8.50143992,16.6629311 8.77109147,16.2109391 L10.2423015,13.7448073 L11.5023288,14.3057836 L13.491712,18.5145319 L11.2039702,17.4957432 Z" id="Shape"></path>
                            <path d="M7.81251897,3.75 C6.60628962,3.75 5.625,4.73129813 5.625,5.9375 C5.625,7.14370187 6.60628962,8.125 7.81251897,8.125 C9.01871038,8.12503794 10,7.14370187 10,5.9375 C10,4.73129813 9.01871038,3.75 7.81251897,3.75 Z M7.81251897,7.16642747 C7.1348923,7.16646541 6.58356422,6.61520843 6.58356422,5.9375 C6.58356422,5.25986745 7.13485436,4.70857253 7.81251897,4.70857253 C8.49014564,4.70857253 9.04143578,5.25986745 9.04143578,5.9375 C9.04143578,6.61513255 8.49014564,7.16642747 7.81251897,7.16642747 Z" id="Shape"></path>
                        </g>
                    </g>
                </g>
            </g>
        </g>
    </g>
</svg>