<?xml version="1.0" encoding="UTF-8"?>
<svg width="22px" height="17px" viewBox="0 0 22 17" version="1.1" xmlns="http://www.w3.org/2000/svg" xmlns:xlink="http://www.w3.org/1999/xlink">
    <!-- Generator: Sketch 52.2 (67145) - http://www.bohemiancoding.com/sketch -->
    <title>logout (2)</title>
    <desc>Created with Sketch.</desc>
    <g id="Page-1" stroke="none" stroke-width="1" fill="none" fill-rule="evenodd">
        <g id="15-copy-10" transform="translate(-64.000000, -563.000000)" fill="#000000" stroke="#000000" stroke-width="0.1">
            <g id="logout-(2)" transform="translate(64.000000, 563.000000)">
                <path d="M3.34264683,10.098916 L3.38008617,10.0157755 L14.8499917,10.0157755 C15.3676762,10.0157755 15.79,9.53867061 15.79,8.94734978 C15.79,8.35602895 15.3676762,7.87892407 14.8499917,7.87892407 L3.34264768,7.79578256 L4.62266431,6.34980502 C4.9925447,5.93201747 4.9925447,5.25227371 4.62265589,4.83440531 C4.25605415,4.42010892 3.66426566,4.42010892 3.2974705,4.83441166 L0.327596373,8.18951856 C0.305987398,8.21386036 0.285339917,8.23961438 0.265507696,8.26690198 C0.262847694,8.27072741 0.262847694,8.27072741 0.259312867,8.27625216 C0.25908278,8.27661289 0.25908278,8.27661289 0.258848946,8.27697944 C0.255767664,8.28180704 0.255767664,8.28180704 0.251833066,8.28764961 C0.229842141,8.31945351 0.221269444,8.33239926 0.210306593,8.35091636 C0.20842134,8.35424429 0.20842134,8.35424429 0.205826554,8.35924188 C0.205656244,8.35957098 0.205656244,8.35957098 0.205482838,8.35990599 C0.202892805,8.36490736 0.202892805,8.36490736 0.199665338,8.37072252 C0.179905961,8.40596355 0.172281412,8.42022159 0.162599927,8.44058739 C0.161656068,8.44270646 0.161656068,8.44270646 0.160204125,8.44623273 C0.158488042,8.45042359 0.158488042,8.45042359 0.156178763,8.45562666 C0.138226757,8.49569288 0.131577584,8.51146526 0.122493312,8.53624468 C0.122370874,8.536584 0.122370874,8.536584 0.12162313,8.53901483 C0.121532512,8.53931343 0.121532512,8.53931343 0.121435689,8.53963213 C0.120631262,8.54227518 0.120631262,8.54227518 0.119291747,8.54624805 C0.107895779,8.57815706 0.0987880696,8.60666464 0.0911312147,8.63509703 C0.0910429052,8.63542469 0.0910429052,8.63542469 0.090458269,8.63824685 C0.0903386099,8.63883765 0.0903386099,8.63883765 0.0902042606,8.63949669 C0.0896733365,8.64207102 0.0896733365,8.64207102 0.0887252492,8.64607123 C0.0774260932,8.6910373 0.0734885833,8.7084354 0.0686619611,8.73582668 C0.0678051209,8.74131211 0.0678051209,8.74131211 0.0669209861,8.74865393 C0.0668638414,8.74913189 0.0668638414,8.74913189 0.0668058521,8.74961642 C0.0660130771,8.75621255 0.0660130771,8.75621255 0.0649182851,8.76369476 L0.0649198785,8.76368449 C0.0588797984,8.80270697 0.0566286399,8.81908218 0.0548093923,8.84027207 C0.0516008549,8.87545325 0.05,8.91121156 0.05,8.94734978 C0.05,8.9834807 0.0516002276,9.0192429 0.0548378651,9.05482589 C0.0584702494,9.08892316 0.0584702494,9.08892316 0.0638731861,9.12457337 C0.0644426056,9.12832142 0.0644426056,9.12832142 0.0649707037,9.13181256 C0.0660432431,9.13919844 0.0660432431,9.13919844 0.0668092273,9.14552024 C0.0668287584,9.14568131 0.0668287584,9.14568131 0.0668481923,9.1458416 C0.067749546,9.15321746 0.067749546,9.15321746 0.0686420356,9.15875931 C0.0736547219,9.18713965 0.0802201873,9.21642678 0.0886519477,9.2489977 C0.0899256342,9.25409376 0.0899256342,9.25409376 0.0906086751,9.25737512 C0.0911136441,9.25974181 0.0911136441,9.25974181 0.091238437,9.26022806 C0.0989323564,9.28872948 0.10821801,9.31789415 0.11934914,9.34898967 C0.120800588,9.35322226 0.120800588,9.35322226 0.121631222,9.35595161 C0.121701939,9.35618269 0.121701939,9.35618269 0.121768035,9.3563985 C0.122352316,9.35826779 0.122352316,9.35826779 0.122591071,9.35889591 C0.131623935,9.38357816 0.138255786,9.39929379 0.156487248,9.43983893 C0.158496793,9.44444958 0.158496793,9.44444958 0.159992005,9.44810842 C0.160130492,9.44844697 0.160130492,9.44844697 0.160264951,9.44877555 C0.161616518,9.45205925 0.161616518,9.45205925 0.162268692,9.45354784 C0.172503381,9.47497574 0.180015338,9.489017 0.200051247,9.52467252 C0.203031251,9.53011443 0.203031251,9.53011443 0.205361279,9.53463423 C0.205507426,9.53491778 0.205507426,9.53491778 0.205651262,9.53519687 C0.208295644,9.54030695 0.208295644,9.54030695 0.210186571,9.54361731 C0.221055495,9.56194649 0.229903061,9.57531467 0.252075255,9.60752825 C0.255781836,9.61304534 0.255781836,9.61304534 0.258820842,9.61779358 C0.259013684,9.61809497 0.259013684,9.61809497 0.259204083,9.61839256 C0.262763577,9.62394054 0.262763577,9.62394054 0.265294364,9.62759498 C0.285557005,9.65531281 0.306240165,9.68112909 0.327577751,9.70523445 L3.29741011,13.0602942 C3.47616542,13.2623055 3.71354742,13.3710526 3.960033,13.3710526 C4.20652496,13.3710526 4.44389906,13.2623016 4.6225955,13.0602879 C4.99247917,12.6424253 4.99247917,11.962754 4.6225955,11.5448914 L3.34264683,10.098916 Z" id="XMLID_4_"></path>
                <path d="M13.9191498,0.05 C11.2399527,0.05 8.74692965,1.44820276 7.25015086,3.79078775 C6.96015447,4.24471388 7.0749757,4.86046996 7.50577191,5.16504689 C7.93517461,5.46852876 8.51662483,5.34860567 8.80574637,4.89611316 C9.95292414,3.10051046 11.864505,2.0281534 13.9191508,2.0281534 C17.3137135,2.02822325 20.0742581,4.93195591 20.0742581,8.5 C20.0742581,12.0680551 17.3137029,14.9717773 13.9191498,14.9717773 C11.8705721,14.9717773 9.96210623,13.9042709 8.81404637,12.1168083 C8.52384356,11.6650775 7.94220171,11.546648 7.51345404,11.8512249 C7.0833091,12.1569494 6.96990842,12.7729778 7.26101797,13.2261517 C8.75881359,15.558154 11.2477643,16.95 13.9191498,16.95 C18.346736,16.95 21.95,13.1598578 21.95,8.5 C21.95,3.84014222 18.346736,0.05 13.9191498,0.05 Z" id="XMLID_5_"></path>
            </g>
        </g>
    </g>
</svg>