<?xml version="1.0" encoding="UTF-8"?>
<svg width="15px" height="12px" viewBox="0 0 15 12" version="1.1" xmlns="http://www.w3.org/2000/svg" xmlns:xlink="http://www.w3.org/1999/xlink">
    <!-- Generator: Sketch 52.2 (67145) - http://www.bohemiancoding.com/sketch -->
    <title>mail</title>
    <desc>Created with Sketch.</desc>
    <g id="Page-1" stroke="none" stroke-width="1" fill="none" fill-rule="evenodd">
        <g id="27" transform="translate(-1220.000000, -201.000000)" fill="#BCC7D2">
            <g id="Group-9" transform="translate(952.000000, 49.000000)">
                <g id="Group-7">
                    <g id="Rectangle">
                        <g id="mail" transform="translate(268.000000, 152.000000)">
                            <path d="M13.1688315,0 L1.83426336,0 C0.822470035,0 0,0.810562806 0,1.80770799 L0,9.44229201 C0,10.4394372 0.822470035,11.25 1.83426336,11.25 L13.1657279,11.25 C14.1775212,11.25 14.9999912,10.4394372 14.9999912,9.44229201 L14.9999912,1.81076672 C15.0030949,0.813621533 14.1806249,0 13.1688315,0 Z M14.1651066,9.44229201 C14.1651066,9.98368679 13.7181795,10.4241436 13.1688315,10.4241436 L1.83426336,10.4241436 C1.28491545,10.4241436 0.837988338,9.98368679 0.837988338,9.44229201 L0.837988338,1.81076672 C0.837988338,1.26937194 1.28491545,0.828915171 1.83426336,0.828915171 L13.1657279,0.828915171 C13.7150758,0.828915171 14.1620029,1.26937194 14.1620029,1.81076672 L14.1620029,9.44229201 L14.1651066,9.44229201 Z" id="Shape" fill-rule="nonzero"></path>
                            <path d="M9.47857051,5.73369664 L13.1861628,2.40848961 C13.3586819,2.25164023 13.3743654,1.98499627 13.2175299,1.80932495 C13.0606944,1.63679062 12.7940739,1.62110569 12.6184181,1.77795507 L7.50557935,6.36736817 L6.50810529,5.47646365 C6.50496858,5.47332666 6.50183187,5.47018967 6.50183187,5.46705268 C6.47987489,5.44509377 6.45791791,5.42627184 6.43282423,5.40744992 L2.37392032,1.77481809 C2.19826451,1.6179687 1.93164409,1.63365364 1.77480854,1.80932495 C1.617973,1.98499627 1.63365655,2.25164023 1.80931236,2.40848961 L5.5608186,5.76192953 L1.82499592,9.25967089 C1.65561353,9.41965726 1.64620339,9.68630122 1.80617565,9.85883555 C1.89086684,9.94667121 2.00378844,9.99372602 2.11671003,9.99372602 C2.22022149,9.99372602 2.32373295,9.95608217 2.40528743,9.88079447 L6.19757091,6.33286131 L7.22641208,7.25199872 C7.30796657,7.32414944 7.40834132,7.3586563 7.50871607,7.3586563 C7.60909081,7.3586563 7.71260227,7.32101245 7.79102005,7.24886173 L8.84809162,6.30149143 L12.6184181,9.88393145 C12.6999726,9.96235615 12.8066208,10 12.9101322,10 C13.0230538,10 13.1328387,9.95608217 13.2175299,9.86824651 C13.3775022,9.69884917 13.3712287,9.42906823 13.2018463,9.26908185 L9.47857051,5.73369664 Z" id="Path"></path>
                        </g>
                    </g>
                </g>
            </g>
        </g>
    </g>
</svg>