<?xml version="1.0" encoding="UTF-8"?>
<svg width="17px" height="17px" viewBox="0 0 17 17" version="1.1" xmlns="http://www.w3.org/2000/svg" xmlns:xlink="http://www.w3.org/1999/xlink">
    <!-- Generator: Sketch 52.5 (67469) - http://www.bohemiancoding.com/sketch -->
    <title>minimize-arrows</title>
    <desc>Created with Sketch.</desc>
    <g id="Page-2" stroke="none" stroke-width="1" fill="none" fill-rule="evenodd">
        <g id="Artboard" transform="translate(-97.000000, -123.000000)" fill="#000000">
            <g id="minimize-arrows" transform="translate(97.000000, 123.000000)">
                <path d="M0.705121784,6.39007092 L5.85251081,6.39007092 C6.24032779,6.39007092 6.5106383,6.02594388 6.5106383,5.62653595 L6.5106383,0.704788758 C6.5106383,0.317154941 6.1933335,0 5.80551651,0 C5.41769953,0 5.10039473,0.317154941 5.10039473,0.704788758 L5.10039473,4.02902858 L1.50427363,0.411099137 C1.23396312,0.140916293 0.787413644,0.140916293 0.517103134,0.411099137 C0.246792624,0.68128198 0.246792624,1.16285999 0.517103134,1.43304284 L4.04271205,4.98049341 L0.705121784,4.98049341 C0.317304803,4.98049341 0,5.29764835 0,5.68528216 C0,6.07291598 0.317304803,6.39007092 0.705121784,6.39007092 Z" id="Path"></path>
                <path d="M0.704784186,11.890402 L3.97029807,11.890402 L0.411137928,15.4577213 C0.140956837,15.7285218 0.140956837,16.1876817 0.411137928,16.4584406 C0.552094765,16.5997206 0.728290811,16.6703606 0.904486858,16.6703606 C1.0806829,16.6703606 1.25687895,16.5997206 1.39783579,16.4702001 L4.98050255,12.8793202 L4.98050255,16.2936001 C4.98050255,16.6821201 5.29765543,17 5.68528674,17 C6.07291804,17 6.39007092,16.6821201 6.39007092,16.2936001 L6.39007092,11.2075211 C6.39007092,10.8190011 6.08465062,10.4893617 5.69701932,10.4893617 L0.704784186,10.4893617 C0.317152884,10.4893617 0,10.8072416 0,11.1957616 C0,11.5842815 0.317152884,11.890402 0.704784186,11.890402 Z" id="Path"></path>
                <path d="M17,11.5564835 C17,11.1685027 16.6826952,10.8510638 16.2948782,10.8510638 L11.2532575,10.8510638 C10.8654405,10.8510638 10.4893617,11.1214886 10.4893617,11.5094694 L10.4893617,16.2945803 C10.4893617,16.6825611 10.8066665,17 11.1944835,17 C11.5823005,17 11.8996053,16.6825611 11.8996053,16.2945803 L11.8996053,13.0849206 L15.4487321,16.600276 C15.5897564,16.7413599 15.7777751,16.8119019 15.9658352,16.8119019 C16.1538539,16.8119019 16.3301343,16.7413599 16.4711587,16.600276 C16.7414692,16.3298513 16.7532074,15.8948563 16.4711587,15.6244316 L13.0865741,12.2619448 L16.2948782,12.2619448 C16.6826952,12.2619033 17,11.9444644 17,11.5564835 Z" id="Path"></path>
                <path d="M16.2948782,5.22031085 L12.8867758,5.22031085 L16.459379,1.64605779 C16.7296895,1.37562245 16.7296895,0.928866757 16.459379,0.646687792 C16.1890685,0.376252452 15.7072629,0.376252452 15.4369524,0.646687792 L11.8996053,4.16213973 L11.8996053,0.705447412 C11.8996053,0.317451335 11.5823005,0 11.1944835,0 C10.8066665,0 10.4893617,0.317451335 10.4893617,0.705447412 L10.4893617,5.92575826 C10.4893617,6.31375434 10.8654405,6.63120567 11.2532575,6.63120567 L16.2948782,6.63120567 C16.6826952,6.63120567 17,6.31375434 17,5.92575826 C17,5.53776219 16.6826952,5.22031085 16.2948782,5.22031085 Z" id="Path"></path>
            </g>
        </g>
    </g>
</svg>