<?xml version="1.0" encoding="UTF-8"?>
<svg width="22px" height="24px" viewBox="0 0 22 24" version="1.1" xmlns="http://www.w3.org/2000/svg" xmlns:xlink="http://www.w3.org/1999/xlink">
    <!-- Generator: Sketch 52.2 (67145) - http://www.bohemiancoding.com/sketch -->
    <title>noun_List_1896234</title>
    <desc>Created with Sketch.</desc>
    <g id="Page-1" stroke="none" stroke-width="1" fill="none" fill-rule="evenodd">
        <g id="noun_List_1896234" fill="#000000" fill-rule="nonzero">
            <path d="M9.56708059,6.00819299 L16.2040419,6.00819299 C16.5736547,6.00819299 16.8736304,5.71305369 16.8736304,5.3493999 C16.8736304,4.98574611 16.5736547,4.69060681 16.2040419,4.69060681 L9.56708059,4.69060681 C9.19746774,4.69060681 8.89749209,4.98574611 8.89749209,5.3493999 C8.89749209,5.71305369 9.19746774,6.00819299 9.56708059,6.00819299 Z M17.0718286,9.87662602 C17.0718286,9.51297223 16.7718529,9.21783293 16.4022401,9.21783293 L10.1134648,9.21783293 C9.74385196,9.21783293 9.44387631,9.51297223 9.44387631,9.87662602 C9.44387631,10.2402798 9.74385196,10.5354191 10.1134648,10.5354191 L16.4022401,10.5354191 C16.7718529,10.5354191 17.0718286,10.2402798 17.0718286,9.87662602 Z M9.22960799,15.0626452 L15.6683711,15.0626452 C16.0379839,15.0626452 16.3379596,14.7675059 16.3379596,14.4038521 C16.3379596,14.0401984 16.0379839,13.7450591 15.6683711,13.7450591 L9.22960799,13.7450591 C8.85999513,13.7450591 8.56001948,14.0401984 8.56001948,14.4038521 C8.56001948,14.7675059 8.85999513,15.0626452 9.22960799,15.0626452 Z M7.44046749,17.9086314 L7.44046749,18.6991831 C7.44046749,20.2381238 6.20306793,21.4924658 4.6549793,21.5662506 C4.30679328,21.5662506 3.95325055,21.5135472 3.61577794,21.3923293 C2.88190894,21.1235417 2.30338447,20.5912369 1.97662527,19.8955513 C1.65522279,19.1998658 1.62308254,18.4198548 1.89627465,17.6978176 L1.90163136,17.6872769 C3.79790601,12.5012577 3.9211103,6.82509642 2.2605308,1.58110342 L16.9754078,1.58110342 C18.5931337,6.35603574 18.6252739,11.5367846 17.0718286,16.327528 L18.7484782,16.327528 C20.3072803,11.1625901 20.1626491,5.60764679 18.2985147,0.521764128 L18.1056732,0 L0,0 L0.38568298,1.05933929 C2.28195763,6.25062885 2.28195763,11.9636825 0.38568298,17.1549721 C-0.0321402484,18.2670148 0.0107134161,19.4739238 0.514243974,20.5543444 C1.01777453,21.6347651 1.91770149,22.4622092 3.05332359,22.8732961 C3.53007061,23.0472175 4.02288775,23.1368134 4.51570489,23.1526244 L4.51570489,23.1578947 L4.61212564,23.1578947 C4.61748235,23.1578947 4.62819576,23.1578947 4.63355247,23.1578947 C4.63890918,23.1578947 4.64426589,23.1578947 4.6549793,23.1578947 L17.4735817,23.1578947 C19.9698076,23.1578947 22,21.1604341 22,18.7044534 L22,17.9139017 L7.44046749,17.9139017 L7.44046749,17.9086314 Z M6.25127831,6.69333781 C6.35841247,6.69333781 6.46554663,6.65117505 6.54054054,6.57739022 L8.49038227,4.65898474 C8.56537619,4.58519991 8.60822985,4.48506336 8.60822985,4.37438612 C8.60822985,4.26897923 8.56537619,4.16357234 8.49038227,4.08978751 L8.04577551,3.6523489 C7.97078159,3.57856407 7.86364743,3.53640131 7.75651327,3.53640131 C7.64937911,3.53640131 7.54760166,3.57856407 7.46725103,3.6523489 L6.25127831,4.84871715 L5.57097638,4.17938337 C5.49598247,4.10559854 5.39420502,4.06343579 5.28171415,4.06343579 C5.17457999,4.06343579 5.06744582,4.10559854 4.99245191,4.17938337 L4.54784514,4.61682198 C4.47285123,4.69060681 4.42999757,4.7960137 4.42999757,4.9014206 C4.42999757,5.00682749 4.47285123,5.11223439 4.54784514,5.18601921 L5.96201607,6.57739022 C6.04236669,6.65117505 6.14414414,6.69333781 6.25127831,6.69333781 Z M9.19746774,8.90161225 C9.19746774,8.79620535 9.15461407,8.69079846 9.07962016,8.61701363 L8.63501339,8.17957502 C8.56001948,8.10051985 8.45288532,8.05835709 8.34575116,8.05835709 C8.238617,8.05835709 8.13683954,8.10051985 8.05648892,8.17430467 L6.84051619,9.37067293 L6.16021427,8.70133915 C6.08522036,8.62755432 5.9834429,8.58539156 5.87095203,8.58539156 C5.76381787,8.58539156 5.65668371,8.62755432 5.5816898,8.70133915 L5.13708303,9.13877776 C5.06208912,9.21256259 5.01923545,9.31269914 5.01923545,9.42337637 C5.01923545,9.52878327 5.06208912,9.63419016 5.13708303,9.70797499 L6.55125396,11.099346 C6.62624787,11.1731308 6.73338203,11.2152936 6.84051619,11.2152936 C6.94765035,11.2152936 7.05478451,11.1731308 7.12977843,11.099346 L9.07962016,9.18094052 C9.15461407,9.10715569 9.19746774,9.00701914 9.19746774,8.90161225 Z M4.07109813,13.9558728 C4.07109813,14.0612797 4.11395179,14.1614163 4.1889457,14.2404715 L5.60311663,15.6318425 C5.67811054,15.7056273 5.779888,15.74779 5.89237887,15.74779 C5.99951303,15.74779 6.10664719,15.7056273 6.1816411,15.6318425 L8.13148283,13.713437 C8.20647675,13.6396522 8.24933041,13.5395156 8.24933041,13.4288384 C8.24933041,13.3234315 8.20647675,13.2232949 8.13148283,13.1442398 L7.68687607,12.7068011 C7.61188215,12.627746 7.50474799,12.5855832 7.39761383,12.5855832 C7.29047967,12.5855832 7.18870222,12.627746 7.10835159,12.7015308 L5.89237887,13.897899 L5.21207694,13.2285653 C5.13708303,13.1547804 5.03530558,13.1126177 4.92281471,13.1126177 C4.81568055,13.1126177 4.70854638,13.1547804 4.63355247,13.2285653 L4.1889457,13.6660039 C4.11395179,13.7450591 4.07109813,13.8451956 4.07109813,13.9558728 Z" id="Shape"></path>
        </g>
    </g>
</svg>