<?xml version="1.0" encoding="UTF-8"?>
<svg width="15px" height="17px" viewBox="0 0 15 17" version="1.1" xmlns="http://www.w3.org/2000/svg" xmlns:xlink="http://www.w3.org/1999/xlink">
    <!-- Generator: Sketch 52.5 (67469) - http://www.bohemiancoding.com/sketch -->
    <title>noun_company_1731214</title>
    <desc>Created with Sketch.</desc>
    <g id="Page-1" stroke="none" stroke-width="1" fill="none" fill-rule="evenodd">
        <g id="24" transform="translate(-303.000000, -445.000000)" fill="#F1631E" fill-rule="nonzero">
            <g id="Group-26" transform="translate(182.000000, 152.000000)">
                <g id="Group-13" transform="translate(65.000000, 0.000000)">
                    <g id="Group-9" transform="translate(30.000000, 148.000000)">
                        <g id="noun_company_1731214" transform="translate(26.000000, 145.000000)">
                            <g id="Group">
                                <path d="M6.65878378,2.93525412 L3.85175676,2.93525412 L3.85175676,5.69344093 L6.65878378,5.69344093 L6.65878378,2.93525412 Z M6.05067568,5.09591346 L4.45986486,5.09591346 L4.45986486,3.53278159 L6.05067568,3.53278159 L6.05067568,5.09591346 Z" id="Shape"></path>
                                <path d="M11.1482432,2.93525412 L8.34121622,2.93525412 L8.34121622,5.69344093 L11.1482432,5.69344093 L11.1482432,2.93525412 Z M10.5401351,5.09591346 L8.94932432,5.09591346 L8.94932432,3.53278159 L10.5401351,3.53278159 L10.5401351,5.09591346 Z" id="Shape"></path>
                                <path d="M6.65878378,6.62638049 L3.85175676,6.62638049 L3.85175676,9.38436813 L6.65878378,9.38436813 L6.65878378,6.62638049 Z M6.05067568,8.78684066 L4.45986486,8.78684066 L4.45986486,7.22390797 L6.05067568,7.22390797 L6.05067568,8.78684066 Z" id="Shape"></path>
                                <path d="M11.1482432,6.62638049 L8.34121622,6.62638049 L8.34121622,9.38436813 L11.1482432,9.38436813 L11.1482432,6.62638049 Z M10.5401351,8.78684066 L8.94932432,8.78684066 L8.94932432,7.22390797 L10.5401351,7.22390797 L10.5401351,8.78684066 Z" id="Shape"></path>
                                <path d="M13.1637162,16.0336538 L13.1637162,0.0995879121 L1.83628378,0.0995879121 L1.83628378,16.0336538 L0.0330405405,16.0336538 L0.0330405405,16.6311813 L1.83628378,16.6311813 L6.07358108,16.6311813 L8.92662162,16.6311813 L13.1637162,16.6311813 L14.9669595,16.6311813 L14.9669595,16.0336538 L13.1637162,16.0336538 Z M8.31851351,16.0336538 L6.68168919,16.0336538 L6.68168919,14.0653984 L8.31851351,14.0653984 L8.31851351,16.0336538 Z M12.5556081,16.0336538 L8.92662162,16.0336538 L8.92662162,13.4678709 L6.07358108,13.4678709 L6.07358108,16.0336538 L2.44439189,16.0336538 L2.44439189,0.697115385 L12.5556081,0.697115385 L12.5556081,16.0336538 Z" id="Shape"></path>
                            </g>
                        </g>
                    </g>
                </g>
            </g>
        </g>
    </g>
</svg>