<?xml version="1.0" encoding="UTF-8"?>
<svg width="23px" height="25px" viewBox="0 0 23 25" version="1.1" xmlns="http://www.w3.org/2000/svg" xmlns:xlink="http://www.w3.org/1999/xlink">
    <!-- Generator: Sketch 52.2 (67145) - http://www.bohemiancoding.com/sketch -->
    <title>Group</title>
    <desc>Created with Sketch.</desc>
    <g id="Page-1" stroke="none" stroke-width="1" fill="none" fill-rule="evenodd">
        <g id="12" transform="translate(-64.000000, -210.000000)" fill="#000000" fill-rule="nonzero" stroke="#000000" stroke-width="0.2">
            <g id="Group" transform="translate(65.000000, 211.000000)">
                <path d="M0.487980769,0.09751 C0.210481603,0.123663487 -0.00120186401,0.357245243 -1.79342286e-16,0.635971538 L-1.79342286e-16,20.5085677 C2.97178548e-05,20.8059395 0.241089753,21.0469995 0.538461538,21.0470292 L11.3581731,21.0470292 C12.2147098,22.6774959 13.920018,23.7898177 15.8846154,23.7898177 C18.7033878,23.7898177 21,21.4931985 21,18.6744331 C21,15.8556408 18.703384,13.5590485 15.8846154,13.5590485 C15.7936991,13.5590485 15.705155,13.5711566 15.6153846,13.5758754 L15.6153846,4.94366385 C15.6164907,4.79837501 15.5588417,4.65880389 15.4555288,4.55664462 L11.1478365,0.248952308 C11.0463648,0.150795041 10.9104049,0.0964110865 10.7692308,0.09751 L0.538461538,0.09751 C0.521643867,0.0967208832 0.504798441,0.0967208832 0.487980769,0.09751 Z M1.07692308,1.17443308 L9.96153846,1.17443308 L9.96153846,5.21289462 C9.96156813,5.51026642 10.2026282,5.75132648 10.5,5.75135615 L14.5384615,5.75135615 L14.5384615,13.7525581 C12.3703537,14.345943 10.7692308,16.3217 10.7692308,18.6744331 C10.7692308,19.1209273 10.8293048,19.5568663 10.9375,19.9701062 L1.07692308,19.9701062 L1.07692308,1.17443308 Z M11.0384615,1.66241385 L14.0420673,4.67443308 L11.0384615,4.67443308 L11.0384615,1.66241385 Z M15.8846154,14.6359715 C18.121376,14.6359715 19.9230769,16.4376638 19.9230769,18.6744331 C19.9230769,20.9111754 18.1213722,22.7128946 15.8846154,22.7128946 C13.6478585,22.7128946 11.8461538,20.9111754 11.8461538,18.6744331 C11.8461538,16.4376638 13.6478548,14.6359715 15.8846154,14.6359715 Z M15.8257212,15.9737119 C15.5483079,16.0041969 15.3401515,16.2415682 15.3461538,16.5205869 L15.3461538,18.1359715 L13.7307692,18.1359715 C13.7139516,18.1351824 13.6971061,18.1351824 13.6802885,18.1359715 C13.4878872,18.1449518 13.3148968,18.255908 13.2264961,18.4270342 C13.1380954,18.5981605 13.1477184,18.8034515 13.2517394,18.965558 C13.3557603,19.1276645 13.5383716,19.2219518 13.7307692,19.2128946 L15.3461538,19.2128946 L15.3461538,20.8282792 C15.3434082,21.0224673 15.4454337,21.2030911 15.6131629,21.3009864 C15.780892,21.3988817 15.9883387,21.3988817 16.1560679,21.3009864 C16.3237971,21.2030911 16.4258225,21.0224673 16.4230769,20.8282792 L16.4230769,19.2128946 L18.0384615,19.2128946 C18.2326497,19.2156402 18.4132734,19.1136148 18.5111687,18.9458856 C18.609064,18.7781564 18.609064,18.5707097 18.5111687,18.4029806 C18.4132734,18.2352514 18.2326497,18.1332259 18.0384615,18.1359715 L16.4230769,18.1359715 L16.4230769,16.5205869 C16.4264174,16.3655121 16.3627286,16.2165276 16.2483212,16.1117883 C16.1339137,16.0070491 15.9798993,15.9567279 15.8257212,15.9737119 Z" id="Shape"></path>
            </g>
        </g>
    </g>
</svg>