<?xml version="1.0" encoding="UTF-8"?>
<svg width="278px" height="73px" viewBox="0 0 278 73" version="1.1" xmlns="http://www.w3.org/2000/svg" xmlns:xlink="http://www.w3.org/1999/xlink">
    <!-- Generator: Sketch 52.5 (67469) - http://www.bohemiancoding.com/sketch -->
    <title>no data found</title>
    <desc>Created with Sketch.</desc>
    <g id="Page-1" stroke="none" stroke-width="1" fill="none" fill-rule="evenodd">
        <g id="40-copy" transform="translate(-586.000000, -277.000000)">
            <g id="Group-8" transform="translate(450.000000, 278.000000)">
                <g id="no-data-found" transform="translate(48.000000, 0.000000)">
                    <g id="Group-6">
                        <path d="M121.680851,18 L248.555556,18 L248.555556,52.7234043 L294.861702,52.7234043 C299.35636,52.7234043 303,56.3670443 303,60.8617021 L303,60.8617021 C303,65.3563599 299.35636,69 294.861702,69 L197.444444,69 L158.916076,69 C154.421418,69 150.777778,65.3563599 150.777778,60.8617021 L150.777778,60.8617021 C150.777778,56.3670443 154.421418,52.7234043 158.916076,52.7234043 L188.763593,52.7234043 C193.557895,52.7234043 197.444444,48.8368548 197.444444,44.0425532 L197.444444,44.0425532 C197.444444,39.2482515 193.557895,35.3617021 188.763593,35.3617021 L121.680851,35.3617021 C116.886549,35.3617021 113,31.4751527 113,26.6808511 L113,26.6808511 C113,21.8865494 116.886549,18 121.680851,18 Z" id="Rectangle-13" fill="#F4F9FF"></path>
                        <g id="Group-2" transform="translate(88.000000, 0.000000)">
                            <path d="M227.928955,55.2017792 C228.969393,57.0243863 230.183236,57.9356899 231.570486,57.9356899 C232.957736,57.9356899 234.344985,57.0243863 235.732235,55.2017792 C237.119485,53.379172 238.680141,52.4678684 240.414203,52.4678684 C242.148265,52.4678684 243.708921,53.5009591 245.096171,55.5671405" id="Line-9" stroke="#D8D8D8" stroke-linecap="square"></path>
                            <ellipse id="Oval-3" fill="#F4F9FF" cx="9.22592699" cy="22.0882357" rx="8.60372675" ry="7.88919753"></ellipse>
                            <ellipse id="Oval-3-Copy" stroke="#C7C7C7" cx="66.7575316" cy="4.10086613" rx="4.29180383" ry="4.10086613"></ellipse>
                            <ellipse id="Oval-3-Copy-2" fill="#AFCDEF" cx="190.018022" cy="6.67486331" rx="2.14590191" ry="2.05043306"></ellipse>
                            <ellipse id="Oval-3-Copy-3" fill="#AFCDEF" cx="275.854098" cy="39.4817923" rx="2.14590191" ry="2.05043306"></ellipse>
                            <ellipse id="Oval-3-Copy-4" fill="#AFCDEF" cx="49.1588191" cy="51.5226087" rx="2.14590191" ry="2.05043306"></ellipse>
                            <path d="M224.810013,12.5643804 L224.810013,12.5643804 C225.995162,12.5643804 226.955915,13.5251335 226.955915,14.7102824 L226.955915,28.1888984 C226.955915,29.3740473 225.995162,30.3348003 224.810013,30.3348003 L224.810013,30.3348003 C223.624864,30.3348003 222.664111,29.3740473 222.664111,28.1888984 L222.664111,14.7102824 C222.664111,13.5251335 223.624864,12.5643804 224.810013,12.5643804 Z" id="Rectangle-22" fill="#D8D8D8"></path>
                            <path d="M224.810013,12.5643804 L224.810013,12.5643804 C225.995162,12.5643804 226.955915,13.5251335 226.955915,14.7102824 L226.955915,28.1888984 C226.955915,29.3740473 225.995162,30.3348003 224.810013,30.3348003 L224.810013,30.3348003 C223.624864,30.3348003 222.664111,29.3740473 222.664111,28.1888984 L222.664111,14.7102824 C222.664111,13.5251335 223.624864,12.5643804 224.810013,12.5643804 Z" id="Rectangle-22-Copy" fill="#D8D8D8" transform="translate(224.810013, 21.449590) rotate(90.000000) translate(-224.810013, -21.449590) "></path>
                        </g>
                    </g>
                    <g id="Group-5" transform="translate(176.000000, 8.000000)">
                        <g id="writing" transform="translate(6.000000, 4.000000)" fill="#777777" stroke="#FFFFFF" stroke-width="0.8">
                            <path d="M37.6,25.5 C37.6,24.3350936 36.7181231,23.4 35.6422764,23.4 L11.3577236,23.4 C10.2818769,23.4 9.4,24.3350936 9.4,25.5 C9.4,26.6649064 10.2818769,27.6 11.3577236,27.6 L35.6422764,27.6 C36.7181231,27.6 37.6,26.6649064 37.6,25.5 Z" id="Path"></path>
                            <path d="M12.301482,33.4 C11.2590166,33.4 10.4,34.3331124 10.4,35.5 C10.4,36.6668876 11.2590166,37.6 12.301482,37.6 L26.698518,37.6 C27.7409834,37.6 28.6,36.6668876 28.6,35.5 C28.6,34.3331124 27.7409834,33.4 26.698518,33.4 L12.301482,33.4 Z" id="Path"></path>
                            <path d="M17.3709364,55.7125 L9.46071463,55.7125 C6.63229254,55.7125 4.33035731,53.4314204 4.33035731,50.625 L4.33035731,9.375 C4.33035731,6.56857956 6.63229254,4.2875 9.46071463,4.2875 L38.5392854,4.2875 C41.3677075,4.2875 43.6696427,6.56857956 43.6696427,9.375 L43.6696427,23.7890625 C43.6696427,24.8617827 44.5486362,25.7328125 45.6348213,25.7328125 C46.7210065,25.7328125 47.6,24.8617827 47.6,23.7890625 L47.6,9.375 C47.6,4.42735794 43.5358204,0.4 38.5392854,0.4 L9.46071463,0.4 C4.46417965,0.4 0.4,4.42735794 0.4,9.375 L0.4,50.625 C0.4,55.5726421 4.46417965,59.6 9.46071463,59.6 L17.3709364,59.6 C18.4571215,59.6 19.336115,58.7289702 19.336115,57.65625 C19.336115,56.5835298 18.4571215,55.7125 17.3709364,55.7125 Z" id="Path"></path>
                            <path d="M35.6422764,14.4 L11.3577236,14.4 C10.2818769,14.4 9.4,15.3350936 9.4,16.5 C9.4,17.6649064 10.2818769,18.6 11.3577236,18.6 L35.6422764,18.6 C36.7181231,18.6 37.6,17.6649064 37.6,16.5 C37.6,15.3350936 36.7181231,14.4 35.6422764,14.4 Z" id="Path"></path>
                        </g>
                        <g id="Group-4">
                            <rect id="Rectangle" fill="#F4F9FF" x="39" y="41" width="12" height="16"></rect>
                            <g id="warning" transform="translate(34.000000, 37.000000)" fill="#777777" fill-rule="nonzero" stroke="#F4F9FF">
                                <path d="M26.7609089,21.3307073 L15.0311679,0.888373979 C14.351263,-0.29612466 12.648737,-0.29612466 11.9688321,0.888373979 L0.239091052,21.3307073 C-0.440813825,22.5152059 0.410449192,24 1.77025895,24 L25.2297411,24 C26.5895508,24 27.4408138,22.5152059 26.7609089,21.3307073 Z M13.516583,7.18345595 C14.2683478,7.18345595 14.8763928,7.81185194 14.8542821,8.56815154 L14.6331748,16.3313445 C14.6165917,16.9430574 14.1191004,17.4268667 13.5110554,17.4268667 C12.9030104,17.4268667 12.405519,16.9374964 12.3889359,16.3313445 L12.1733563,8.56815154 C12.1567733,7.81185194 12.7592906,7.18345595 13.516583,7.18345595 Z M13.5,22.2250478 C12.7316522,22.2250478 12.1070242,21.5966518 12.1070242,20.8236691 C12.1070242,20.0506864 12.7316522,19.4222904 13.5,19.4222904 C14.2683478,19.4222904 14.8929758,20.0506864 14.8929758,20.8236691 C14.8929758,21.5966518 14.2683478,22.2250478 13.5,22.2250478 Z" id="Shape"></path>
                            </g>
                        </g>
                    </g>
                </g>
            </g>
        </g>
    </g>
</svg>