<?xml version="1.0" encoding="UTF-8"?>
<svg width="25px" height="25px" viewBox="0 0 25 25" version="1.1" xmlns="http://www.w3.org/2000/svg" xmlns:xlink="http://www.w3.org/1999/xlink">
    <!-- Generator: Sketch 52.2 (67145) - http://www.bohemiancoding.com/sketch -->
    <title>Group</title>
    <desc>Created with Sketch.</desc>
    <g id="Page-1" stroke="none" stroke-width="1" fill="none" fill-rule="evenodd">
        <g id="15-copy-10" transform="translate(-967.000000, -17.000000)" fill="#FFFFFF" stroke="#FFFFFF" stroke-width="0.3">
            <g id="Group-20" transform="translate(965.000000, 13.000000)">
                <g id="Group" transform="translate(16.721031, 17.020716) rotate(22.000000) translate(-16.721031, -17.020716) translate(4.221031, 4.520716)">
                    <path d="M12.0557421,0.000844156599 C7.43644341,0.031042452 3.61142103,3.49408235 3.61142103,7.8004994 C3.61142103,11.840253 3.4879754,16.408716 0.225062112,19.5483313 C-0.218867909,20.0013902 0.0423890443,20.5859405 0.586989159,20.5859405 L8.03177839,20.5859405 C8.14391897,21.6829783 8.62410787,22.56757 9.3070432,23.1711701 C10.0896008,23.862872 11.1060351,24.2 12.1160449,24.2 C13.1260822,24.2 14.1425165,23.862872 14.9251017,23.1711701 C15.6079819,22.56757 16.0968288,21.6829783 16.2089694,20.5859405 L23.696828,20.5859405 C24.311493,20.5859405 24.2999949,19.8473035 23.9984247,19.5395521 C20.7488018,16.4004151 20.6379296,11.834963 20.6379296,7.8004994 C20.6379296,3.50669123 16.8202417,0.051386626 12.2194447,0.000844156599 C12.2166874,0.000821645757 12.2136543,0.000821645757 12.210897,0.000844156599 C12.1938016,0.000672511424 12.1762649,0.000922944548 12.1591971,0.000844156599 C12.144859,0.000281385533 12.1304657,0.000281385533 12.1161,0.000844156599 C12.0959715,-0.000281385533 12.0758706,-0.000281385533 12.0557972,0.000844156599 L12.0557421,0.000844156599 Z M12.081661,1.12638629 C12.0932418,1.12666767 12.1045468,1.12666767 12.1161276,1.12638629 C16.2269472,1.12638629 19.5350806,4.16441022 19.5350806,7.8004994 C19.5350806,11.5214713 19.6069366,16.0368931 22.4216459,19.4603984 L1.81923969,19.4603984 C4.63433506,16.0369775 4.71443548,11.5216965 4.71443548,7.8004994 C4.71443548,4.17446412 7.98713723,1.14356488 12.081661,1.12638629 Z M9.14339571,20.5859405 L15.0975175,20.5859405 C14.9977849,21.3558957 14.669387,21.9209742 14.2099883,22.3270135 C13.6566199,22.8161178 12.8873526,23.0744579 12.1161276,23.0744579 C11.3449302,23.0744579 10.5842381,22.8161178 10.0309249,22.3270135 C9.57149866,21.9209742 9.24312831,21.3558957 9.14339571,20.5859405 Z" id="Shape"></path>
                </g>
            </g>
        </g>
    </g>
</svg>