<?xml version="1.0" encoding="UTF-8"?>
<svg width="18px" height="18px" viewBox="0 0 18 18" version="1.1" xmlns="http://www.w3.org/2000/svg" xmlns:xlink="http://www.w3.org/1999/xlink">
    <!-- Generator: Sketch 52.5 (67469) - http://www.bohemiancoding.com/sketch -->
    <title>user (5)</title>
    <desc>Created with Sketch.</desc>
    <g id="Page-1" stroke="none" stroke-width="1" fill="none" fill-rule="evenodd">
        <g id="29" transform="translate(-229.000000, -333.000000)" fill="#F1631E" fill-rule="nonzero" stroke="#F36617" stroke-width="0.2">
            <g id="Group-14" transform="translate(205.000000, 247.000000)">
                <g id="Group-18" transform="translate(25.000000, 86.000000)">
                    <g id="user-(5)" transform="translate(0.000000, 1.000000)">
                        <path d="M16,8 C16,3.58894545 12.4110545,0 8,0 C3.58894545,0 0,3.58894545 0,8 C0,10.3298909 1.00189091,12.4299636 2.59665455,13.8932364 L2.58909091,13.8999273 L2.84858182,14.1186909 C2.86545455,14.1329455 2.88378182,14.1445818 2.90065455,14.1585455 C3.03854545,14.2728727 3.18138182,14.3813818 3.32683636,14.4864 C3.37396364,14.5204364 3.42109091,14.5544727 3.46909091,14.5876364 C3.62443636,14.6946909 3.78385455,14.7962182 3.94676364,14.8925091 C3.98225455,14.9134545 4.01803636,14.9338182 4.05381818,14.9541818 C4.23214545,15.0557091 4.41425455,15.1514182 4.60072727,15.2392727 C4.6144,15.2456727 4.62836364,15.2514909 4.64203636,15.2578909 C5.24974545,15.5403636 5.89847273,15.7477818 6.57687273,15.8702545 C6.59461818,15.8734545 6.61236364,15.8766545 6.6304,15.8798545 C6.84101818,15.9162182 7.05396364,15.9453091 7.26952727,15.9648 C7.29570909,15.9671273 7.32189091,15.9685818 7.34836364,15.9709091 C7.56305455,15.9886545 7.78007273,16 8,16 C8.21789091,16 8.43287273,15.9886545 8.6464,15.9714909 C8.67345455,15.9691636 8.70050909,15.9677091 8.72756364,15.9653818 C8.94138182,15.9458909 9.15258182,15.9176727 9.36116364,15.8818909 C9.3792,15.8786909 9.39752727,15.8754909 9.41556364,15.872 C10.0837818,15.7521455 10.7232,15.5493818 11.3230545,15.2741818 C11.3451636,15.264 11.3675636,15.2544 11.3896727,15.2439273 C11.5691636,15.1595636 11.7445818,15.0685091 11.9165091,14.9716364 C11.9592727,14.9474909 12.0017455,14.9230545 12.0442182,14.8980364 C12.2007273,14.8058182 12.3546182,14.7095273 12.5041455,14.6071273 C12.5579636,14.5704727 12.6106182,14.5317818 12.6638545,14.4933818 C12.7915636,14.4014545 12.9169455,14.3066182 13.0388364,14.2074182 C13.0658909,14.1856 13.0949818,14.1666909 13.1214545,14.1442909 L13.3876364,13.9220364 L13.3797818,13.9153455 C14.9885091,12.4514909 16,10.3418182 16,8 Z M0.581818182,8 C0.581818182,3.90952727 3.90952727,0.581818182 8,0.581818182 C12.0904727,0.581818182 15.4181818,3.90952727 15.4181818,8 C15.4181818,10.2042182 14.4509091,12.1858909 12.9195636,13.5456 C12.8340364,13.4865455 12.7479273,13.4336 12.6597818,13.3893818 L10.1966545,12.1579636 C9.97556364,12.0474182 9.83825455,11.8251636 9.83825455,11.5781818 L9.83825455,10.7179636 C9.89527273,10.6475636 9.95549091,10.5678545 10.0177455,10.4802909 C10.3365818,10.0299636 10.5922909,9.52901818 10.7787636,8.98996364 C11.1473455,8.81483636 11.3853091,8.44770909 11.3853091,8.03316364 L11.3853091,7.00189091 C11.3853091,6.74967273 11.2928,6.50501818 11.1272727,6.31272727 L11.1272727,4.95505455 C11.1424,4.80407273 11.1959273,3.952 10.5794909,3.24916364 C10.0433455,2.63709091 9.17556364,2.32727273 8,2.32727273 C6.82443636,2.32727273 5.95665455,2.63709091 5.42050909,3.24887273 C4.80407273,3.95170909 4.8576,4.80378182 4.87272727,4.95476364 L4.87272727,6.31243636 C4.70749091,6.50472727 4.61469091,6.74938182 4.61469091,7.0016 L4.61469091,8.03287273 C4.61469091,8.35316364 4.7584,8.65192727 5.00450909,8.85352727 C5.24014545,9.77658182 5.72509091,10.4753455 5.90429091,10.7121455 L5.90429091,11.5540364 C5.90429091,11.7914182 5.77483636,12.0096 5.56625455,12.1236364 L3.26603636,13.3783273 C3.19272727,13.4181818 3.12,13.4647273 3.04727273,13.5168 C1.53483636,12.1576727 0.581818182,10.1882182 0.581818182,8 Z M12.3517091,14.0020364 C12.2498909,14.0759273 12.1463273,14.1474909 12.0413091,14.2158545 C11.9930182,14.2472727 11.9450182,14.2786909 11.8958545,14.3092364 C11.7585455,14.3941818 11.6189091,14.4750545 11.4763636,14.5506909 C11.4449455,14.5672727 11.4132364,14.5829818 11.3815273,14.5992727 C11.0539636,14.7671273 10.7150545,14.9114182 10.3668364,15.0286545 C10.3546182,15.0327273 10.3424,15.0370909 10.3298909,15.0411636 C10.1474909,15.1016727 9.96276364,15.1554909 9.776,15.2017455 C9.77541818,15.2017455 9.77483636,15.2020364 9.77425455,15.2020364 C9.58574545,15.2485818 9.39490909,15.2872727 9.20290909,15.3189818 C9.19767273,15.3198545 9.19243636,15.3210182 9.1872,15.3218909 C9.00654545,15.3512727 8.82443636,15.3725091 8.64174545,15.3885091 C8.60945455,15.3914182 8.57716364,15.3934545 8.54458182,15.3957818 C8.36392727,15.4094545 8.1824,15.4181818 8,15.4181818 C7.81556364,15.4181818 7.63170909,15.4091636 7.44872727,15.3954909 C7.41701818,15.3931636 7.38530909,15.3911273 7.35389091,15.3882182 C7.16945455,15.3719273 6.98589091,15.3501091 6.80407273,15.3204364 C6.79592727,15.3189818 6.78778182,15.3175273 6.77963636,15.3160727 C6.39505455,15.2517818 6.01658182,15.1572364 5.648,15.0336 C5.63665455,15.0298182 5.62501818,15.0257455 5.61367273,15.0219636 C5.43069091,14.9597091 5.24974545,14.8907636 5.072,14.8145455 C5.07083636,14.8139636 5.06938182,14.8133818 5.06821818,14.8128 C4.90007273,14.7403636 4.73512727,14.6600727 4.57221818,14.5754182 C4.55098182,14.5643636 4.52945455,14.5538909 4.50850909,14.5425455 C4.35985455,14.4631273 4.2144,14.3773091 4.07098182,14.2877091 C4.02850909,14.2609455 3.98632727,14.2338909 3.94443636,14.2065455 C3.81236364,14.1201455 3.68203636,14.0302545 3.5552,13.9351273 C3.54210909,13.9252364 3.5296,13.9147636 3.51650909,13.9048727 C3.52581818,13.8996364 3.53512727,13.8944 3.54443636,13.8891636 L5.84465455,12.6344727 C6.24029091,12.4186182 6.48610909,12.0046545 6.48610909,11.5540364 L6.48581818,10.5061818 L6.41890909,10.4253091 C6.41250909,10.4180364 5.78356364,9.65294545 5.54589091,8.61701818 L5.51941818,8.50181818 L5.42021818,8.43752727 C5.28029091,8.34705455 5.19650909,8.19578182 5.19650909,8.03258182 L5.19650909,7.00130909 C5.19650909,6.86603636 5.25381818,6.74007273 5.35854545,6.64552727 L5.45454545,6.55883636 L5.45454545,4.93847273 L5.45192727,4.90036364 C5.45105455,4.89338182 5.36523636,4.19374545 5.85803636,3.632 C6.27869091,3.15258182 6.99956364,2.90909091 8,2.90909091 C8.99665455,2.90909091 9.7152,3.15054545 10.1370182,3.62647273 C10.6292364,4.1824 10.5486545,4.89512727 10.5480727,4.90094545 L10.5454545,6.55941818 L10.6414545,6.64610909 C10.7458909,6.74036364 10.8034909,6.86661818 10.8034909,7.00189091 L10.8034909,8.03316364 C10.8034909,8.24058182 10.6624,8.4288 10.4599273,8.49134545 L10.3153455,8.53585455 L10.2688,8.67985455 C10.0971636,9.21309091 9.8528,9.7056 9.54269091,10.1437091 C9.46647273,10.2513455 9.39229091,10.3467636 9.32858182,10.4197818 L9.25643636,10.5021091 L9.25643636,11.5781818 C9.25643636,12.0471273 9.51709091,12.4689455 9.93658182,12.6784 L12.3997091,13.9098182 C12.4154182,13.9176727 12.4308364,13.9258182 12.4462545,13.9339636 C12.4151273,13.9575273 12.3831273,13.9793455 12.3517091,14.0020364 Z" id="Shape"></path>
                    </g>
                </g>
            </g>
        </g>
    </g>
</svg>