<?xml version="1.0" encoding="UTF-8"?>
<svg width="26px" height="20px" viewBox="0 0 26 20" version="1.1" xmlns="http://www.w3.org/2000/svg" xmlns:xlink="http://www.w3.org/1999/xlink">
    <!-- Generator: Sketch 52.5 (67469) - http://www.bohemiancoding.com/sketch -->
    <title>noun_admin_1938451 copy</title>
    <desc>Created with Sketch.</desc>
    <g id="Page-1" stroke="none" stroke-width="1" fill="none" fill-rule="evenodd">
        <g id="24" transform="translate(-189.000000, -2309.000000)" fill="#FFFFFF">
            <g id="Group-26" transform="translate(182.000000, 152.000000)">
                <g id="Group-25" transform="translate(0.000000, 2147.000000)">
                    <g id="noun_admin_1938451-copy" transform="translate(7.000000, 10.000000)">
                        <g id="Group">
                            <path d="M25.73,14.7773077 C25.6734275,14.5697348 25.5491645,14.386995 25.3769231,14.2580769 L24.8784615,13.8219231 L24.8784615,13.7492308 L24.8784615,13.4688462 L24.8784615,12.8146154 C24.8723061,12.7907755 24.8723061,12.7657629 24.8784615,12.7419231 L25.4703846,12.15 C25.544813,12.0634393 25.6044592,11.9651985 25.6469231,11.8592308 C25.7588248,11.5704306 25.7359771,11.2467554 25.5846154,10.9765385 L24.5461538,9.14884615 C24.4030094,8.92598527 24.1801164,8.76624524 23.9230769,8.70230769 C23.7163099,8.64143741 23.4963824,8.64143741 23.2896154,8.70230769 L22.6561538,8.93076923 L22.1161538,8.69192308 L21.7630769,8.46346154 C21.7588807,8.44290426 21.7588807,8.42171112 21.7630769,8.40115385 L21.5553846,7.59115385 C21.5005144,7.47022581 21.4229596,7.36094405 21.3269231,7.26923077 C21.1872639,7.11992375 21.0066402,7.01516203 20.8076923,6.96807692 C20.704437,6.95241138 20.5994092,6.95241138 20.4961538,6.96807692 L18.4192308,6.96807692 C18.1604735,6.97158214 17.912348,7.07157303 17.7234615,7.24846154 C17.5670665,7.39799215 17.4647859,7.59524758 17.4326923,7.80923077 L17.2976923,8.46346154 L17.2976923,8.53615385 L17.0588462,8.69192308 L16.4773077,8.98269231 L16.3423077,8.98269231 L15.5323077,8.75423077 C15.2235102,8.69074737 14.9025939,8.77097645 14.66,8.97230769 C14.581055,9.044046 14.5144022,9.12823899 14.4626923,9.22153846 L13.4242308,11.0492308 C13.2970495,11.276611 13.259983,11.5434897 13.3203846,11.7969231 C13.3721147,12.0068431 13.4927856,12.1933346 13.6630769,12.3265385 L14.1511538,12.7730769 L14.1511538,12.8457692 L14.1511538,13.7180769 L14.1511538,13.8115385 C14.1568868,13.8354301 14.1568868,13.8603391 14.1511538,13.8842308 L13.5384615,14.4657692 C13.3291499,14.7005123 13.2375003,15.0174672 13.2892308,15.3276923 C13.3103694,15.4337096 13.3489717,15.5354793 13.4034615,15.6288462 L14.4419231,17.4773077 C14.5711934,17.6997329 14.7784233,17.866257 15.0234615,17.9446154 C15.2306952,18.0021571 15.4496894,18.0021571 15.6569231,17.9446154 L16.2903846,17.7473077 L16.3734615,17.7473077 L16.6226923,17.8719231 L17.1626923,18.2353846 C17.1671952,18.2559098 17.1671952,18.2771671 17.1626923,18.2976923 L17.36,19.1180769 C17.3905809,19.2261519 17.4397798,19.3280639 17.5053846,19.4192308 C17.689508,19.671565 17.9822566,19.8217912 18.2946154,19.8242308 L20.4234615,19.8242308 C20.677241,19.8210086 20.9210547,19.7249608 21.1088462,19.5542308 C21.2676847,19.4093965 21.373664,19.2157101 21.41,19.0038462 L21.5657692,18.36 L21.5657692,18.2873077 L22.3653846,17.7784615 L22.5419231,17.6746154 L22.625,17.6746154 L23.435,17.8926923 C23.7469891,17.9505258 24.0682985,17.8625482 24.3073077,17.6538462 C24.3862527,17.5821078 24.4529055,17.4979149 24.5046154,17.4046154 L25.5430769,15.5457692 C25.7043042,15.3242969 25.7714898,15.0480896 25.73,14.7773077 Z M23.7153846,15.3276923 L23.3415385,16.0026923 C22.6108563,15.7502123 21.8056661,15.8364999 21.1450753,16.2380749 C20.4844846,16.6396498 20.0372234,17.3147307 19.925,18.0796154 L18.98,18.0796154 C18.8663149,17.3330991 18.4319872,16.673578 17.7910839,16.2742613 C17.1501806,15.8749446 16.3667482,15.7757367 15.6465385,16.0026923 L15.2623077,15.3069231 C15.8154636,14.8100534 16.1279584,14.0991083 16.1200065,13.3556046 C16.1120546,12.6121009 15.7844257,11.9080021 15.2207692,11.4230769 L15.6673077,10.6546154 C15.9311126,10.7471043 16.2081698,10.7962031 16.4876923,10.8 C17.7226144,10.7971739 18.7874851,9.93142542 19.0423077,8.72307692 L19.9042308,8.72307692 C20.0515439,9.46649271 20.5175814,10.1078559 21.1791348,10.4776063 C21.8406881,10.8473567 22.6311486,10.9082658 23.3415385,10.6442308 L23.7776923,11.4023077 C23.1841719,11.8838682 22.8352072,12.604175 22.8251778,13.3684174 C22.8151484,14.1326598 23.1450904,14.8618762 23.7257692,15.3588462 L23.7153846,15.3276923 Z" id="Shape" fill-rule="nonzero"></path>
                            <path d="M13.4242308,1.25653846 C12.5196465,0.432191355 11.3352746,-0.0170531587 10.1115385,-1.12104336e-14 C8.88780234,-0.0170531587 7.70343045,0.432191355 6.79884615,1.25653846 C5.77234506,2.32515299 5.26731457,3.79088059 5.41769231,5.265 C5.56318636,6.46757942 6.108042,7.58654468 6.965,8.44269231 C7.70887082,9.4448763 8.83902531,10.0890644 10.0803846,10.2184615 C11.3225468,10.091567 12.4536426,9.44684233 13.1957692,8.44269231 C14.0520652,7.58607272 14.5968031,6.46734932 14.7430769,5.265 C14.9099581,3.80035975 14.4281502,2.33596711 13.4242308,1.25653846 Z M13.0503846,5.09884615 C12.9536931,5.91418626 12.5883312,6.67413904 12.0119231,7.25884615 C11.4615385,7.75730769 10.8592308,8.44269231 10.1115385,8.45307692 C9.36384615,8.46346154 8.84461538,7.88192308 8.26307692,7.26923077 C7.68601171,6.68498628 7.3205352,5.92479516 7.22461538,5.10923077 C7.13115793,4.17706016 7.43677032,3.24890402 8.06576923,2.55461538 C8.64059859,2.05274335 9.37963441,1.7793001 10.1426923,1.78615385 C10.9057502,1.7793001 11.644786,2.05274335 12.2196154,2.55461538 C12.8392586,3.24556347 13.140635,4.16476146 13.0503846,5.08846154 L13.0503846,5.09884615 Z" id="Shape" fill-rule="nonzero"></path>
                            <path d="M12.2507692,18.0588462 L2.03230769,18.0588462 C2.68668881,15.6057842 4.4386225,13.5931689 6.77807692,12.6069231 C7.76687093,13.1459998 8.87129516,13.4381378 9.99730769,13.4584615 L10.1115385,13.4584615 C10.375399,13.4564535 10.6389199,13.4391166 10.9007692,13.4065385 C11.3587136,13.3133487 11.6646639,12.8793754 11.5985734,12.4167423 C11.532483,11.9541091 11.1172582,11.6231608 10.6515385,11.6619231 C10.4716903,11.6723783 10.2913866,11.6723783 10.1115385,11.6619231 L10.0180769,11.6619231 C9.0106591,11.6395553 8.03062536,11.3296917 7.19346154,10.7688462 C7.104611,10.7084245 6.99975509,10.675883 6.89230769,10.6753846 C6.83042278,10.6651196 6.76726953,10.6651196 6.70538462,10.6753846 C3.03291788,11.951268 0.432752461,15.2399507 0.0384615385,19.1076923 C0.0316338581,19.254752 0.0716285942,19.4001874 0.152692308,19.5230769 C0.296447572,19.7107671 0.518594668,19.8218407 0.755,19.8242308 L12.2507692,19.8242308 C12.7382667,19.8242307 13.1334615,19.4290359 13.1334615,18.9415385 C13.1334615,18.454041 12.7382667,18.0588462 12.2507692,18.0588462 Z" id="Path"></path>
                            <circle id="Oval" cx="19.5096154" cy="13.2923077" r="1.33961538"></circle>
                        </g>
                    </g>
                </g>
            </g>
        </g>
    </g>
</svg>