<?xml version="1.0" encoding="UTF-8"?>
<svg width="20px" height="17px" viewBox="0 0 20 17" version="1.1" xmlns="http://www.w3.org/2000/svg" xmlns:xlink="http://www.w3.org/1999/xlink">
    <!-- Generator: Sketch 52.4 (67378) - http://www.bohemiancoding.com/sketch -->
    <title>noun_clock_84367 (1)</title>
    <desc>Created with Sketch.</desc>
    <g id="Page-1" stroke="none" stroke-width="1" fill="none" fill-rule="evenodd">
        <g id="1" transform="translate(-366.000000, -219.000000)" fill="#1069D0">
            <g id="Group-10" transform="translate(366.000000, 218.000000)">
                <g id="noun_clock_84367-(1)" transform="translate(0.000000, 1.000000)">
                    <path d="M11.1876112,0 L11.1876112,1.8888619 C14.8626207,1.8888619 17.8525294,4.85488756 17.8525294,8.5 C17.8525294,12.1451124 14.8626207,15.1111381 11.1876112,15.1111381 C7.51260176,15.1111381 4.52269302,12.1448696 4.52269302,8.5 L7.14115867,8.5 L3.57070176,3.7777238 L0,8.5 L2.61846565,8.5 C2.61846565,13.1870589 6.46266902,17 11.1876112,17 C15.9125534,17 19.7567568,13.1870589 19.7567568,8.5 C19.7567568,3.81294111 15.9125534,0 11.1876112,0 Z" id="Path"></path>
                    <polygon id="Path" stroke="#1267D7" points="14.2432432 10.8254663 11.52132 8.15733968 11.52132 3.67567568 10.5675676 3.67567568 10.5675676 8.54447774 13.5688951 11.4864865"></polygon>
                </g>
            </g>
        </g>
    </g>
</svg>