<?xml version="1.0" encoding="UTF-8"?>
<svg width="14px" height="13px" viewBox="0 0 14 13" version="1.1" xmlns="http://www.w3.org/2000/svg" xmlns:xlink="http://www.w3.org/1999/xlink">
    <!-- Generator: Sketch 52.5 (67469) - http://www.bohemiancoding.com/sketch -->
    <title>Shape</title>
    <desc>Created with Sketch.</desc>
    <g id="Page-1" stroke="none" stroke-width="1" fill="#000000" fill-rule="evenodd">
        <g id="21" transform="translate(-664.000000, -665.000000)" fill="#000000" fill-rule="nonzero">
            <g id="Group-13-Copy-2" transform="translate(498.000000, 551.000000)">
                <path d="M167.074902,127 C166.840962,127 166.622702,126.921082 166.443922,126.77172 C166.104283,126.488003 165.951403,126.118004 166.013563,125.729803 C166.061163,125.43108 166.204243,124.53255 169.30958,123.252765 C170.380439,121.475573 171.393898,119.28003 171.948158,117.540213 C171.099059,116.21958 170.836839,115.27117 171.146519,114.645241 C171.278959,114.37778 171.573658,114.049185 172.224378,114.003335 C172.256578,114.001112 172.287938,114 172.318598,114 C172.668457,114 172.971417,114.14686 173.171477,114.413488 C173.420397,114.745279 173.679117,115.411222 173.125417,117.365842 C174.061736,118.709122 175.479935,120.245252 176.763034,121.305232 C177.165534,121.264244 177.533174,121.243542 177.858813,121.243542 C178.866113,121.243542 179.481972,121.434447 179.796972,121.844183 C179.992832,122.099279 180.049392,122.42579 179.956152,122.763277 C179.811252,123.286528 179.403852,123.598867 178.865693,123.598867 L178.865553,123.598867 C178.266633,123.598867 177.450994,123.20233 176.439354,122.419815 C174.533816,122.669631 172.019978,123.333907 170.04514,124.110864 C168.245301,126.999861 167.366802,127 167.074902,127 Z M167.078402,125.891391 C167.082322,125.897504 167.090442,125.908898 167.106122,125.924737 C167.243462,125.886806 167.574001,125.664362 168.093541,125.026623 C167.333062,125.471929 167.095762,125.781211 167.078402,125.891391 Z M172.715637,118.622701 C172.248878,119.907348 171.596198,121.345525 170.881079,122.667686 C172.342538,122.174307 173.949036,121.757206 175.362335,121.505445 C174.426856,120.645818 173.477517,119.612099 172.715637,118.622701 Z M178.246613,122.326308 C178.530393,122.469139 178.737873,122.529439 178.865693,122.529439 C178.880953,122.5293 178.892293,122.528467 178.899853,122.527355 C178.904193,122.518324 178.910493,122.503319 178.916933,122.480254 C178.917213,122.479282 178.917353,122.478309 178.917633,122.477337 C178.859533,122.441351 178.681873,122.358542 178.246613,122.326308 Z M172.316218,115.069567 C172.311178,115.069567 172.306138,115.069844 172.300678,115.070261 C172.156338,115.080404 172.115038,115.114861 172.114478,115.115139 C172.079198,115.165992 172.062398,115.434981 172.327278,116.016865 C172.424578,115.37482 172.345198,115.132229 172.316218,115.069567 Z" id="Shape"></path>
            </g>
        </g>
    </g>
</svg>