<?xml version="1.0" encoding="UTF-8"?>
<svg width="16px" height="16px" viewBox="0 0 16 16" version="1.1" xmlns="http://www.w3.org/2000/svg" xmlns:xlink="http://www.w3.org/1999/xlink">
    <!-- Generator: Sketch 52.5 (67469) - http://www.bohemiancoding.com/sketch -->
    <title>Shape</title>
    <desc>Created with Sketch.</desc>
    <g id="Page-1" stroke="none" stroke-width="1" fill="none" fill-rule="evenodd">
        <g id="24" transform="translate(-302.000000, -416.000000)" fill="#F1631E" fill-rule="nonzero" stroke="#F36617" stroke-width="0.4">
            <g id="Group-26" transform="translate(182.000000, 152.000000)">
                <g id="Group-13" transform="translate(65.000000, 0.000000)">
                    <g id="Group-9" transform="translate(30.000000, 148.000000)">
                        <g id="Group-14">
                            <g id="Group-18" transform="translate(26.000000, 85.000000)">
                                <path d="M11.2520821,46 C10.6695888,46 9.96607626,45.8540242 9.19240083,45.5620727 C7.4962481,44.9226046 5.65082264,43.6587369 3.99610841,42.0040308 C2.34092328,40.3488538 1.07704935,38.5029665 0.437107222,36.8068221 C-0.144444309,35.2646587 -0.145856984,33.9989074 0.433810978,33.4197132 C0.517158849,33.3363657 0.601919396,33.2468967 0.689505295,33.1546023 C1.21831693,32.5984817 1.81587878,31.9726694 2.60791901,32.0009228 C3.15368275,32.0235255 3.68249438,32.362566 4.2240201,33.036409 C5.82411087,35.0263885 5.10270444,35.7355483 4.26781305,36.5577215 L4.12042388,36.7036973 C3.98386522,36.8402553 3.72581644,37.47266 6.12642349,39.8732553 C6.90998765,40.6568156 7.5781833,41.2303591 8.11217474,41.5774048 C8.44839158,41.7958976 9.04972057,42.1264621 9.29646794,41.8797159 L9.4447989,41.729973 C10.2660344,40.8969693 10.9751977,40.1779209 12.9637743,41.7765911 C13.6376206,42.3181141 13.9761919,42.8464523 13.9987947,43.3931551 C14.0312863,44.1847206 13.400762,44.7836921 12.8441677,45.3120303 C12.7523438,45.3996157 12.6628743,45.4843759 12.5795265,45.5672524 C12.2918115,45.8554369 11.8317501,46 11.2520821,46 Z M2.55141198,32.4708706 C1.98869612,32.4708706 1.48060373,33.0058012 1.03090194,33.4790453 C0.940490692,33.574165 0.852904794,33.6664593 0.766731571,33.7526321 C0.334923673,34.183967 0.378716623,35.3173983 0.877862066,36.641069 C1.49473049,38.2759977 2.72046218,40.0625529 4.32949989,41.6715827 C5.93806672,43.2796707 7.7236889,44.5053964 9.35909657,45.1217909 C10.6827738,45.6218756 11.8162106,45.6642557 12.2470768,45.2333917 C12.33325,45.1472189 12.4255448,45.0596334 12.520665,44.9696935 C13.004271,44.5101053 13.5528601,43.9893014 13.5288446,43.4115198 C13.5123634,43.0145599 13.2232357,42.587463 12.6694668,42.1424723 C11.0123981,40.8098547 10.5490405,41.2802734 9.78054484,42.0595957 L9.62985943,42.2116931 C9.26256372,42.5794579 8.66594365,42.497994 7.85600954,41.9715394 C7.29423547,41.606129 6.60014077,41.0118664 5.79397379,40.2052325 C3.80163004,38.2133694 3.16451326,36.9942362 3.78797418,36.3693657 L3.9381887,36.2210355 C4.71939841,35.4525436 5.19076123,34.9887173 3.85766618,33.330715 C3.41173153,32.7774197 2.98510344,32.4882935 2.58814155,32.4713415 C2.57589836,32.4708706 2.56365517,32.4708706 2.55141198,32.4708706 Z" id="Shape"></path>
                            </g>
                        </g>
                    </g>
                </g>
            </g>
        </g>
    </g>
</svg>