<?xml version="1.0" encoding="UTF-8"?>
<svg width="24px" height="24px" viewBox="0 0 24 24" version="1.1" xmlns="http://www.w3.org/2000/svg" xmlns:xlink="http://www.w3.org/1999/xlink">
    <!-- Generator: Sketch 52.2 (67145) - http://www.bohemiancoding.com/sketch -->
    <title>profile and setting</title>
    <desc>Created with Sketch.</desc>
    <g id="Page-1" stroke="none" stroke-width="1" fill="none" fill-rule="evenodd">
        <g id="15-copy-10" transform="translate(-63.000000, -452.000000)" fill="#000000" fill-rule="nonzero" stroke="#000000" stroke-width="0.2">
            <g id="profile-and-setting" transform="translate(64.000000, 453.000000)">
                <path d="M20.5444502,8.90635029 L19.3369094,8.68771667 C19.1836758,8.19062871 18.989025,7.70829781 18.7551575,7.2461763 L19.4504785,6.20586467 C19.9488484,5.47195963 19.8646762,4.4726088 19.2511531,3.8393359 L18.3240585,2.87830899 C17.7131454,2.24233057 16.7490799,2.1550776 16.0410878,2.6716882 L15.0375078,3.39245839 C14.591713,3.15000917 14.1264105,2.94823326 13.6468658,2.789414 L13.4359518,1.53767645 C13.291542,0.645991617 12.544377,-0.00537167966 11.6721542,3.33910512e-05 L10.3464088,3.33910512e-05 C9.48064488,-0.00145227012 8.73974954,0.643800036 8.59188211,1.52806618 L8.38096807,2.77980373 C7.90143955,2.9386686 7.43614081,3.14044289 6.99032606,3.38284812 L5.98674607,2.66207793 C5.27875399,2.14546734 4.31468854,2.2327203 3.70377544,2.86869872 L2.77668076,3.82972563 C2.1640737,4.46344212 2.07996179,5.46207704 2.57735541,6.1962544 L3.27267641,7.23656603 C3.03884069,7.69870304 2.84419111,8.18103103 2.69092451,8.6781064 L1.48338369,8.89674002 C0.623182744,9.04643532 -0.00518201473,9.82094699 3.22120696e-05,10.7250937 L3.22120696e-05,12.0993622 C-0.00140099292,12.9968136 0.621068544,13.7648262 1.47411274,13.9181056 L2.68165356,14.1367392 C2.83488719,14.6338272 3.02953795,15.1161581 3.26340547,15.5782796 L2.56808446,16.6185912 C2.06971451,17.3524963 2.15388672,18.3518471 2.76740982,18.98512 L3.69450449,19.9461469 C4.30541759,20.5821253 5.26948304,20.6693783 5.97747513,20.1527677 L6.98105511,19.4319975 C7.4268549,19.6744357 7.89215646,19.8762112 8.37169712,20.0350419 L8.58261116,21.2867795 C8.73047859,22.1710456 9.47137393,22.8162979 10.3371378,22.8148123 L11.6628832,22.8148123 C12.5286471,22.8162979 13.2695425,22.1710456 13.4174099,21.2867795 L13.6283239,20.0350419 C14.1078444,19.8761543 14.5731412,19.6743808 15.0189659,19.4319975 L16.0225459,20.1527677 C16.730538,20.6693783 17.6946035,20.5821253 18.3055166,19.9461469 L19.2326112,18.98512 C19.8461343,18.3518471 19.9303065,17.3524963 19.4319366,16.6185912 L18.7366156,15.5782796 C18.9704831,15.1161581 19.1651339,14.6338272 19.3183675,14.1367392 L20.5259083,13.9181056 C21.3789525,13.7648262 22.001422,12.9968136 21.9999888,12.0993622 L21.9999888,10.7250937 C22.0030153,9.8337174 21.3901211,9.06788593 20.5444502,8.90635029 Z M20.8596624,12.0993622 C20.8607661,12.4132184 20.6434083,12.6821734 20.3451248,12.7360425 L18.7829703,13.0195455 C18.5597978,13.0582442 18.3787735,13.2280673 18.319423,13.4544101 C18.1489861,14.1103407 17.89653,14.74035 17.5684763,15.3284126 C17.4558379,15.5325795 17.4685198,15.7861098 17.6009246,15.9771058 L18.5117951,17.324946 C18.685735,17.581271 18.6563808,17.9301851 18.442263,18.1514292 L17.5151684,19.1124561 C17.301736,19.3344107 16.9651415,19.3648393 16.7178669,19.1845331 L15.4129812,18.2451293 C15.2288567,18.1114257 14.986743,18.100188 14.7918277,18.2162985 C14.2244229,18.5561373 13.6166869,18.8178211 12.9839931,18.9947303 C12.765642,19.0562531 12.6018151,19.2439029 12.5644828,19.4752437 L12.2840367,21.0897689 C12.2320696,21.3989698 11.9726109,21.624283 11.6698364,21.6231389 L10.3464088,21.6231389 C10.0436343,21.624283 9.78417565,21.3989698 9.73220856,21.0897689 L9.45871563,19.4704386 C9.42138332,19.2390978 9.25755639,19.051448 9.03920529,18.9899251 C8.40646026,18.813172 7.79870511,18.55148 7.23137067,18.2114934 C7.03588024,18.0943557 6.79255152,18.1056078 6.60789951,18.2403242 L5.30764922,19.1845331 C5.06037466,19.3648393 4.72378013,19.3344107 4.5103478,19.1124561 L3.58325313,18.1514292 C3.36913535,17.9301851 3.33978117,17.581271 3.51372103,17.324946 L4.41763834,15.9771058 C4.54662108,15.7862422 4.55746199,15.535267 4.44545118,15.3332178 C4.11827325,14.744996 3.86660224,14.1150015 3.69682223,13.4592153 C3.63747168,13.2328724 3.45644744,13.0630493 3.23327489,13.0243506 L1.6734381,12.73364 C1.37601882,12.6799248 1.15892616,12.4123116 1.15890056,12.0993622 L1.15890056,10.7250937 C1.15892616,10.4121444 1.37601882,10.1445311 1.6734381,10.090816 L3.23559263,9.80731302 C3.45876518,9.76861432 3.63978941,9.59879122 3.69913996,9.37244834 C3.86894508,8.71667095 4.12061477,8.08667977 4.44776891,7.49844586 C4.56208789,7.2941487 4.55029739,7.03936601 4.41763834,6.84735013 L3.50676782,5.49950989 C3.33282796,5.24318492 3.36218214,4.89427083 3.57629992,4.67302675 L4.50339459,3.71199983 C4.71682692,3.49004521 5.05342145,3.45961666 5.30069601,3.63992282 L6.60558177,4.57932662 C6.78970627,4.71303022 7.03181994,4.72426791 7.2267352,4.60815743 C7.79406964,4.26817083 8.40182478,4.00647878 9.03456982,3.82972563 C9.25292091,3.76820281 9.41674785,3.58055298 9.45408016,3.34921218 L9.7345263,1.73468697 C9.78634489,1.42638196 10.0445091,1.20134357 10.3464088,1.20131703 L11.6721542,1.20131703 C11.9740538,1.20134357 12.2322181,1.42638196 12.2840367,1.73468697 L12.5575296,3.35401731 C12.5948619,3.58535811 12.7586888,3.77300795 12.9770399,3.83453077 C13.6097507,4.01138798 14.2174931,4.27307452 14.7848745,4.61296256 C14.9824074,4.73076286 15.2282101,4.7175998 15.4129812,4.57932662 L16.7132315,3.63511768 C16.960506,3.45481152 17.2971005,3.48524008 17.5105329,3.7071947 L18.4376276,4.66822161 C18.6517453,4.8894657 18.6810995,5.23837979 18.5071597,5.49470475 L17.6009246,6.84735013 C17.4709649,7.03876052 17.4601101,7.29099522 17.5731118,7.49364073 C17.9011655,8.08170335 18.1536216,8.71171266 18.3240585,9.3676432 C18.383409,9.59398608 18.5644332,9.76380919 18.7876058,9.80250788 L20.3497603,10.0860108 C20.6480438,10.1398799 20.8654016,10.4088349 20.8642979,10.7226911 L20.8596624,12.0993622 Z M12.6479213,11.412228 C13.0397759,10.9236196 13.2087821,10.2832934 13.1114686,9.65595128 C12.9398033,8.51404381 11.9501063,7.7008213 10.838414,7.78820861 C9.72672173,7.87559593 8.86664364,8.83422456 8.8630573,9.98990813 C8.86479215,10.5117208 9.04553307,11.0158792 9.37295937,11.412228 L8.67763837,13.4712281 C8.50515113,13.9639826 8.7454124,14.5091244 9.21767101,14.6965374 C10.3762748,15.1664083 11.6631478,15.1664083 12.8217516,14.6965374 C13.2940102,14.5091244 13.5342714,13.9639826 13.3617842,13.4712281 L12.6479213,11.412228 Z M9.83418897,13.6538232 L10.5874534,11.4554742 C10.6699069,11.2139111 10.5954461,10.9447247 10.4020345,10.7851579 C10.0757146,10.5172606 9.94871961,10.0646187 10.0855408,9.65709497 C10.2223619,9.24957119 10.5930183,8.976464 11.0092815,8.976464 C11.4255446,8.976464 11.796201,9.24957119 11.9330222,9.65709497 C12.0698433,10.0646187 11.9428484,10.5172606 11.6165285,10.7851579 C11.4231168,10.9447247 11.3486561,11.2139111 11.4311096,11.4554742 L12.184374,13.6538232 C11.4208005,13.9121682 10.5977625,13.9121682 9.83418897,13.6538232 Z" id="Shape"></path>
            </g>
        </g>
    </g>
</svg>