<?xml version="1.0" encoding="UTF-8"?>
<svg width="16px" height="21px" viewBox="0 0 16 21" version="1.1" xmlns="http://www.w3.org/2000/svg" xmlns:xlink="http://www.w3.org/1999/xlink">
    <!-- Generator: Sketch 52.5 (67469) - http://www.bohemiancoding.com/sketch -->
    <title>noun_management_363724</title>
    <desc>Created with Sketch.</desc>
    <g id="Page-1" stroke="none" stroke-width="1" fill="none" fill-rule="evenodd">
        <g id="24" transform="translate(-194.000000, -1460.000000)" fill="#FFFFFF" fill-rule="nonzero">
            <g id="Group-26" transform="translate(182.000000, 152.000000)">
                <g id="Group-23" transform="translate(0.000000, 1298.000000)">
                    <g id="noun_management_363724" transform="translate(12.000000, 9.000000)">
                        <g id="Group" transform="translate(0.000000, 0.814967)">
                            <path d="M7.66666667,0.462811111 C5.55714257,0.462811111 3.83333333,2.18666111 3.83333333,4.29614444 C3.83333333,5.49201858 4.39923032,6.54932846 5.26334632,7.25350118 C3.82551934,7.71369311 2.48528263,8.58274389 1.42502173,9.86645694 L1.27777778,10.0436488 L1.27777778,11.9628111 L2.55555556,11.9628111 L2.55555556,10.5602504 C3.78625003,9.14616479 5.3826647,8.3476821 7.02777778,8.17439959 L7.02777778,11.9628111 L8.30555556,11.9628111 L8.30555556,8.16691271 C9.74980861,8.30294429 11.1695104,8.92198354 12.3510204,10.0561271 C12.501121,10.2002604 12.6393702,10.3577785 12.7777778,10.5153285 L12.7777778,11.9628111 L14.0555556,11.9628111 L14.0555556,10.0336662 L13.9083121,9.85647431 C13.6972667,9.60168542 13.4741156,9.36030514 13.2369792,9.13273292 C12.2987146,8.23208972 11.2157213,7.61164619 10.077474,7.24850993 C10.9376091,6.54426041 11.5,5.48880996 11.5,4.29614444 C11.5,2.18666111 9.77619076,0.462811111 7.66666667,0.462811111 Z M7.66666667,1.74058889 C9.08562841,1.74058889 10.2222222,2.87717222 10.2222222,4.29614444 C10.2222222,5.71511667 9.08562841,6.8517 7.66666667,6.8517 C6.24770492,6.8517 5.11111111,5.71511667 5.11111111,4.29614444 C5.11111111,2.87717222 6.24770492,1.74058889 7.66666667,1.74058889 Z M1.27777778,13.2405889 L1.27777778,14.4734451 C1.27725125,14.4884143 1.27725125,14.5033974 1.27777778,14.5183667 L1.27777778,17.0739222 C1.27681635,17.1123364 1.27932218,17.150759 1.28526479,17.1887229 C0.541568222,17.4530236 0,18.1613226 0,18.9905889 C0,20.0415611 0.865688311,20.9072556 1.91666667,20.9072556 C2.96764502,20.9072556 3.83333333,20.0415611 3.83333333,18.9905889 C3.83333333,18.1604908 3.29042523,17.4523859 2.54557292,17.1887229 C2.55235139,17.1508348 2.55569252,17.1124117 2.55555556,17.0739222 L2.55555556,14.5183667 L7.02777778,14.5183667 L7.02777778,17.0739222 C7.02681635,17.1123364 7.02932218,17.150759 7.03526479,17.1887229 C6.29156822,17.4530236 5.75,18.1613226 5.75,18.9905889 C5.75,20.0415611 6.61568831,20.9072556 7.66666667,20.9072556 C8.71764502,20.9072556 9.58333333,20.0415611 9.58333333,18.9905889 C9.58333333,18.1604908 9.04042523,17.4523859 8.29557292,17.1887229 C8.30235139,17.1508348 8.30569252,17.1124117 8.30555556,17.0739222 L8.30555556,14.5183667 L12.7777778,14.5183667 L12.7777778,17.0739222 C12.7768162,17.1123364 12.7793218,17.150759 12.7852643,17.1887229 C12.0415682,17.4530236 11.5,18.1613226 11.5,18.9905889 C11.5,20.0415611 12.3656881,20.9072556 13.4166667,20.9072556 C14.4676453,20.9072556 15.3333333,20.0415611 15.3333333,18.9905889 C15.3333333,18.1604908 14.7904247,17.4523859 14.0455736,17.1887229 C14.0523518,17.1508348 14.0556927,17.1124117 14.0555556,17.0739222 L14.0555556,14.5183667 L14.0555556,13.2405889 L1.27777778,13.2405889 Z M1.91666667,18.3517 C2.27708267,18.3517 2.55555556,18.6302556 2.55555556,18.9905889 C2.55555556,19.35105 2.27708267,19.6294778 1.91666667,19.6294778 C1.55625066,19.6294778 1.27777778,19.35105 1.27777778,18.9905889 C1.27777778,18.6302556 1.55625066,18.3517 1.91666667,18.3517 Z M7.66666667,18.3517 C8.02708267,18.3517 8.30555556,18.6302556 8.30555556,18.9905889 C8.30555556,19.35105 8.02708267,19.6294778 7.66666667,19.6294778 C7.30625066,19.6294778 7.02777778,19.35105 7.02777778,18.9905889 C7.02777778,18.6302556 7.30625066,18.3517 7.66666667,18.3517 Z M13.4166667,18.3517 C13.7770831,18.3517 14.0555556,18.6302556 14.0555556,18.9905889 C14.0555556,19.35105 13.7770831,19.6294778 13.4166667,19.6294778 C13.0562503,19.6294778 12.7777778,19.35105 12.7777778,18.9905889 C12.7777778,18.6302556 13.0562503,18.3517 13.4166667,18.3517 Z" id="Shape"></path>
                        </g>
                    </g>
                </g>
            </g>
        </g>
    </g>
</svg>