<?xml version="1.0" encoding="UTF-8"?>
<svg width="15px" height="15px" viewBox="0 0 15 15" version="1.1" xmlns="http://www.w3.org/2000/svg" xmlns:xlink="http://www.w3.org/1999/xlink">
    <!-- Generator: Sketch 52.2 (67145) - http://www.bohemiancoding.com/sketch -->
    <title>RCA</title>
    <desc>Created with Sketch.</desc>
    <g id="Page-1" stroke="none" stroke-width="1" fill="none" fill-rule="evenodd">
        <g id="27" transform="translate(-1220.000000, -159.000000)" fill="#BCC7D2" fill-rule="nonzero">
            <g id="RCA" transform="translate(1220.000000, 159.000000)">
                <path d="M14.5632935,1.88901186 C14.5623779,1.88901186 14.5614624,1.88888889 14.5605469,1.88888889 L10.5761719,1.88888889 L10.5761719,1.41666667 C10.5761719,0.635532407 9.98474121,0 9.2578125,0 L5.7421875,0 C5.01525879,0 4.42382813,0.635532407 4.42382813,1.41666667 L4.42382813,1.88888889 L0.439453125,1.88888889 C0.194778457,1.88888889 0,2.10434028 0,2.36111111 L0,12.75 C0,13.5311343 0.591430664,14.1666667 1.31835938,14.1666667 L13.6816406,14.1666667 C14.4085693,14.1666667 15,13.5311343 15,12.75 L15,2.37107204 C15,2.37045718 15,2.36984231 15,2.36922741 C14.9831772,2.05908565 14.8056793,1.89073351 14.5632935,1.88901186 Z M5.30273438,1.41666667 C5.30273438,1.15632958 5.49991608,0.944444444 5.7421875,0.944444444 L9.2578125,0.944444444 C9.50008392,0.944444444 9.69726563,1.15632958 9.69726563,1.41666667 L9.69726563,1.88888889 L5.30273438,1.88888889 L5.30273438,1.41666667 Z M13.9508057,2.83333333 L12.5860977,7.23262444 C12.5262451,7.42581741 12.3587036,7.55555556 12.1693039,7.55555556 L9.69726563,7.55555556 L9.69726563,7.08333333 C9.69726563,6.82250435 9.50054168,6.61111111 9.2578125,6.61111111 L5.7421875,6.61111111 C5.49945832,6.61111111 5.30273438,6.82250435 5.30273438,7.08333333 L5.30273438,7.55555556 L2.83069611,7.55555556 C2.64129639,7.55555556 2.47375488,7.42581741 2.41390228,7.23262444 L1.04919434,2.83333333 L13.9508057,2.83333333 Z M8.81835938,7.55555556 L8.81835938,8.5 L6.18164063,8.5 L6.18164063,7.55555556 L8.81835938,7.55555556 Z M14.1210938,12.75 C14.1210938,13.0103371 13.923912,13.2222222 13.6816406,13.2222222 L1.31835938,13.2222222 C1.07608796,13.2222222 0.87890625,13.0103371 0.87890625,12.75 L0.87890625,5.27105759 L1.58008576,7.53132958 C1.75975799,8.1107856 2.2623825,8.5 2.83069611,8.5 L5.30273438,8.5 L5.30273438,8.97222222 C5.30273438,9.23305121 5.49945832,9.44444444 5.7421875,9.44444444 L9.2578125,9.44444444 C9.50054168,9.44444444 9.69726563,9.23305121 9.69726563,8.97222222 L9.69726563,8.5 L12.1693039,8.5 C12.7376175,8.5 13.240242,8.1107856 13.4199142,7.53132958 L14.1210938,5.27105759 L14.1210938,12.75 Z" id="Shape"></path>
            </g>
        </g>
    </g>
</svg>