<?xml version="1.0" encoding="UTF-8"?>
<svg width="16px" height="15px" viewBox="0 0 16 15" version="1.1" xmlns="http://www.w3.org/2000/svg" xmlns:xlink="http://www.w3.org/1999/xlink">
    <!-- Generator: Sketch 52.5 (67469) - http://www.bohemiancoding.com/sketch -->
    <title>Group</title>
    <desc>Created with Sketch.</desc>
    <g id="Page-1" stroke="none" stroke-width="1" fill="none" fill-rule="evenodd">
        <g id="5" transform="translate(-745.000000, -881.000000)" fill="#FFFFFF">
            <g id="Group-11" transform="translate(740.000000, 876.000000)">
                <g id="noun_replace_418805" transform="translate(5.000000, 5.000000)">
                    <g id="Group">
                        <g>
                            <g>
                                <path d="M6.4016695,1.61616162 L8,1.61616162 L9.5983305,1.61616162 C10.9269194,1.61616162 12,2.69928705 12,4.04386335 L12,8.87784091 L13.6,8.87784091 L13.6,4.04386335 C13.6,1.80644028 11.8103126,0 9.5983305,0 L8,0 L6.4016695,0 L6.4016695,1.61616162 Z M9.5983305,12.9292929 L8,12.9292929 L6.4016695,12.9292929 C5.07787466,12.9292929 4,11.8394568 4,10.5050963 L4,6.46464646 L2.4,6.46464646 L2.4,10.5050963 C2.4,12.7316817 4.19386578,14.5454545 6.4016695,14.5454545 L8,14.5454545 L9.5983305,14.5454545 L9.5983305,12.9292929 Z" id="Shape" fill-rule="nonzero"></path>
                                <path d="M3.76568542,5.08516624 C3.453266,4.76959105 2.946734,4.76959105 2.63431458,5.08516624 L0.234314576,7.50940867 C-0.0781048578,7.82498384 -0.0781048578,8.33663232 0.234314576,8.65220749 C0.546734,8.96778269 1.053266,8.96778269 1.36568542,8.65220749 L3.2,6.86868687 L5.03431458,8.65220749 C5.346734,8.96778269 5.853266,8.96778269 6.16568542,8.65220749 C6.47810486,8.33663232 6.47810486,7.82498384 6.16568542,7.50940867 L3.76568542,5.08516624 Z" id="Path"></path>
                                <path d="M12.8,7.67676768 L10.9656854,5.89324705 C10.653266,5.57767186 10.146734,5.57767186 9.83431458,5.89324705 C9.52189514,6.20882222 9.52189514,6.72047071 9.83431458,7.03604588 L12.2343146,9.4602883 C12.546734,9.77586349 13.053266,9.77586349 13.3656854,9.4602883 L15.7656854,7.03604588 C16.0781049,6.72047071 16.0781049,6.20882222 15.7656854,5.89324705 C15.453266,5.57767186 14.946734,5.57767186 14.6343146,5.89324705 L12.8,7.67676768 Z" id="Path"></path>
                            </g>
                        </g>
                    </g>
                </g>
            </g>
        </g>
    </g>
</svg>