<?xml version="1.0" encoding="UTF-8"?>
<svg width="18px" height="21px" viewBox="0 0 18 21" version="1.1" xmlns="http://www.w3.org/2000/svg" xmlns:xlink="http://www.w3.org/1999/xlink">
    <!-- Generator: Sketch 52.5 (67469) - http://www.bohemiancoding.com/sketch -->
    <title>writing</title>
    <desc>Created with Sketch.</desc>
    <g id="Page-1" stroke="none" stroke-width="1" fill="none" fill-rule="evenodd">
        <g id="24" transform="translate(-193.000000, -180.000000)" fill="#FFFFFF">
            <g id="Group-26" transform="translate(182.000000, 152.000000)">
                <g id="Group-8" transform="translate(0.000000, 18.000000)">
                    <g id="writing" transform="translate(11.000000, 10.000000)">
                        <path d="M12.2727273,9 C12.2727273,8.54811818 11.9153614,8.18181818 11.4745011,8.18181818 L3.25277162,8.18181818 C2.81191131,8.18181818 2.45454545,8.54811818 2.45454545,9 C2.45454545,9.45188182 2.81191131,9.81818182 3.25277162,9.81818182 L11.4745011,9.81818182 C11.9153614,9.81818182 12.2727273,9.45188182 12.2727273,9 Z" id="Path"></path>
                        <path d="M4.06558233,11.4545455 C3.62768848,11.4545455 3.27272727,11.8208455 3.27272727,12.2727273 C3.27272727,12.7246091 3.62768848,13.0909091 4.06558233,13.0909091 L9.02532676,13.0909091 C9.46322061,13.0909091 9.81818182,12.7246091 9.81818182,12.2727273 C9.81818182,11.8208455 9.46322061,11.4545455 9.02532676,11.4545455 L4.06558233,11.4545455 Z" id="Path"></path>
                        <path d="M5.92191013,18.8565341 L3.22524362,18.8565341 C2.33604396,18.8565341 1.61262181,18.1396662 1.61262181,17.2585227 L1.61262181,3.19602273 C1.61262181,2.31487926 2.33604396,1.59801136 3.22524362,1.59801136 L13.1383927,1.59801136 C14.0275924,1.59801136 14.7510146,2.31487926 14.7510146,3.19602273 L14.7510146,8.10990767 C14.7510146,8.55119851 15.1119999,8.90891335 15.5573255,8.90891335 C16.002651,8.90891335 16.3636364,8.55119851 16.3636364,8.10990767 L16.3636364,3.19602273 C16.3636364,1.4337358 14.9167921,0 13.1383927,0 L3.22524362,0 C1.44684429,0 0,1.4337358 0,3.19602273 L0,17.2585227 C0,19.0208097 1.44684429,20.4545455 3.22524362,20.4545455 L5.92191013,20.4545455 C6.36723565,20.4545455 6.72822104,20.0968306 6.72822104,19.6555398 C6.72822104,19.2142489 6.36723565,18.8565341 5.92191013,18.8565341 Z" id="Path"></path>
                        <path d="M17.2880476,11.3543034 C16.3388251,10.39718 14.7943605,10.397139 13.8457466,11.3536488 L9.3904385,15.8360994 C9.2958165,15.9313044 9.2260267,16.0485617 9.1871554,16.1775201 L8.21687423,19.398412 C8.13085424,19.6839862 8.20579713,19.9940673 8.41248856,20.2076752 C8.56732455,20.3676867 8.77766778,20.4545455 8.99340754,20.4545455 C9.0655913,20.4545455 9.13846484,20.4448081 9.20999939,20.4248016 L12.4854541,19.5099414 C12.6202458,19.4723013 12.7431083,19.4001713 12.8421124,19.3005067 L17.2880882,14.8259524 C18.2373107,13.8688289 18.2373107,12.3115087 17.2880476,11.3543034 Z M11.8465527,17.9902614 L10.1987018,18.4505349 L10.6809413,16.8496422 L13.6871371,13.8251336 L14.8350171,14.9825681 L11.8465527,17.9902614 Z M16.1410197,13.6682724 L15.9837898,13.8264838 L14.8361127,12.6692538 L14.9928151,12.5115743 C15.3092226,12.1925332 15.8240442,12.1925332 16.1404517,12.5115743 C16.4568592,12.8306155 16.4568592,13.3497222 16.1410197,13.6682724 Z" id="Shape" fill-rule="nonzero"></path>
                        <path d="M11.4745011,4.90909091 L3.25277162,4.90909091 C2.81191131,4.90909091 2.45454545,5.27539091 2.45454545,5.72727273 C2.45454545,6.17915455 2.81191131,6.54545455 3.25277162,6.54545455 L11.4745011,6.54545455 C11.9153614,6.54545455 12.2727273,6.17915455 12.2727273,5.72727273 C12.2727273,5.27539091 11.9153614,4.90909091 11.4745011,4.90909091 Z" id="Path"></path>
                    </g>
                </g>
            </g>
        </g>
    </g>
</svg>