<?xml version="1.0" encoding="UTF-8"?>
<svg width="43px" height="38px" viewBox="0 0 43 38" version="1.1" xmlns="http://www.w3.org/2000/svg" xmlns:xlink="http://www.w3.org/1999/xlink">
    <!-- Generator: Sketch 52.2 (67145) - http://www.bohemiancoding.com/sketch -->
    <title>reminder full view</title>
    <desc>Created with Sketch.</desc>
    <g id="Page-1" stroke="none" stroke-width="1" fill="none" fill-rule="evenodd" opacity="0.368512835">
        <g id="25" transform="translate(-964.000000, -216.000000)" fill="#80A9F6">
            <g id="Group" transform="translate(964.000000, 216.000000)">
                <g id="reminder-full-view">
                    <path d="M22.6460393,21.2955361 L22.6460393,11.5473337 C22.6460393,10.6927649 21.8298456,10 20.8230197,10 C19.8161937,10 19,10.6927649 19,11.5473337 L19,22.0176252 C19.0039216,22.477743 19.248901,22.9125109 19.6684405,23.2039144 L26.170544,27.74276 C26.9480108,28.1796824 27.9885986,28.048224 28.5824512,27.4380615 C29.1763037,26.827899 29.131974,25.9357376 28.4797023,25.3701816 L22.6460393,21.2955361 Z" id="Path"></path>
                    <path d="M35.8258329,0.571348647 C33.9498819,0.561214737 32.1460623,1.29284353 30.8079793,2.60658885 C24.9956162,-0.86886295 17.741289,-0.86886295 11.928926,2.60658885 C9.9336337,0.762416738 7.06012932,0.217344642 4.52722941,1.20256862 C1.99432949,2.18779261 0.246020305,4.53061499 0.0238591639,7.23731162 C-0.198301977,9.94400826 1.14462705,12.5401284 3.4830337,13.92451 C1.91977016,20.174922 3.74850615,26.7867507 8.30216046,31.3481517 L5.07284871,35.6171922 C4.57895654,36.2751622 4.71241612,37.2085948 5.37093905,37.7020723 C6.02946198,38.1955498 6.96367902,38.0622023 7.45757124,37.4042323 L10.5875195,33.2841119 C17.0045966,37.9296068 25.6826269,37.9296068 32.099704,33.2841119 L35.279334,37.4042323 C35.7732262,38.0622023 36.7074432,38.1955498 37.3659662,37.7020723 C38.0244891,37.2085948 38.1579487,36.2751622 37.6640565,35.6171922 L34.4347448,31.3481517 C38.9883991,26.7867507 40.8171351,20.174922 39.2538715,13.92451 C42.1348874,12.3799422 43.5888807,9.07018468 42.776522,5.90582214 C41.9641633,2.74145959 39.0952281,0.539626298 35.8258329,0.571348647 Z M2.78748963,7.66986936 C2.77762001,6.09113968 3.67150873,4.64559424 5.0889876,3.94801921 C6.50646647,3.25044417 8.19825478,3.42351649 9.44484001,4.39362903 C7.30507044,6.20548341 5.60610347,8.48018764 4.47666808,11.0453897 C3.40705603,10.2537646 2.77955467,8.9998156 2.78748963,7.66986936 Z M21.3684526,33.780512 C15.1145864,33.7804797 9.47746816,30.0137279 7.08888491,24.2388306 C4.70030166,18.4639332 6.03135633,11.8198796 10.4606228,7.40856208 C14.8898893,2.9972446 21.5437785,1.68871229 27.315806,4.09387629 C33.0878336,6.49904029 36.8395762,12.1435275 36.8194673,18.3921104 C36.7920911,26.8989133 29.8824481,33.7805559 21.3684526,33.780512 Z M38.2602372,11.0453897 C37.1308018,8.48018764 35.4318348,6.20548341 33.2920652,4.39362903 C35.1304418,3.02285814 37.7329036,3.40067613 39.1048264,5.23750911 C40.4767492,7.0743421 40.0986137,9.67461881 38.2602372,11.0453897 Z" id="Shape" fill-rule="nonzero"></path>
                </g>
            </g>
        </g>
    </g>
</svg>