<?xml version="1.0" encoding="UTF-8"?>
<svg width="16px" height="16px" viewBox="0 0 48 55" version="1.1" xmlns="http://www.w3.org/2000/svg" xmlns:xlink="http://www.w3.org/1999/xlink">
    <!-- Generator: Sketch 52.2 (67145) - http://www.bohemiancoding.com/sketch -->
    <title>Save</title>
    <desc>Created with Sketch.</desc>
    <g id="Page-1" stroke="none" stroke-width="1" fill="none" fill-rule="evenodd">
        <g id="17" transform="translate(-1172.000000, -102.000000)" fill="#33bfd4">
            <g id="Group-7" transform="translate(0.000000, -373.000000)">
                <g id="disk" transform="translate(1172.000000, 475.000000)">
                    <path d="M47.4549561,11.3298746 L38.2882894,0.329874646 C38.1141764,0.120849667 37.8554687,0 37.5833333,0 L2.75,0 C2.50695798,0 2.27376302,0.0966796875 2.10188802,0.268554688 L0.268554687,2.10188802 C0.0966796875,2.27376302 0,2.50695798 0,2.75 L0,52.25 C0,52.493042 0.0966796875,52.726237 0.268554687,52.898112 L2.10188802,54.7314453 C2.27376302,54.9033203 2.50695798,55 2.75,55 L44.9166667,55 C45.1597087,55 45.3929036,54.9033203 45.5647786,54.7314453 L47.398112,52.898112 C47.569987,52.726237 47.6666667,52.493042 47.6666667,52.25 L47.6666667,11.9166667 C47.6666667,11.7022705 47.5919189,11.4945882 47.4549561,11.3298746 Z M31.1666667,1.83333333 L31.1666667,16.5 L7.33333333,16.5 L7.33333333,1.83333333 L31.1666667,1.83333333 Z M45.8333333,51.8704427 L44.5371094,53.1666667 L3.12955729,53.1666667 L1.83333333,51.8704427 L1.83333333,3.12955729 L3.12955729,1.83333333 L5.5,1.83333333 L5.5,17.4166667 C5.5,17.9228923 5.91044105,18.3333333 6.41666667,18.3333333 L32.0833333,18.3333333 C32.5895589,18.3333333 33,17.9228923 33,17.4166667 L33,1.83333333 L37.1531983,1.83333333 L45.8333333,12.2483317 L45.8333333,51.8704427 Z" id="Shape" fill-rule="nonzero"></path>
                    <path d="M24.75,14.6666667 L28.4166667,14.6666667 C28.9228923,14.6666667 29.3333333,14.2562256 29.3333333,13.75 L29.3333333,4.58333333 C29.3333333,4.07710772 28.9228923,3.66666667 28.4166667,3.66666667 L24.75,3.66666667 C24.2437744,3.66666667 23.8333333,4.07710772 23.8333333,4.58333333 L23.8333333,13.75 C23.8333333,14.2562256 24.2437744,14.6666667 24.75,14.6666667 Z M25.6666667,5.5 L27.5,5.5 L27.5,12.8333333 L25.6666667,12.8333333 L25.6666667,5.5 Z" id="Shape" fill-rule="nonzero"></path>
                    <path d="M5.5,29.3333333 L5.5,47.6666667 C5.5,48.6791179 6.3208821,49.5 7.33333333,49.5 L40.3333333,49.5 C41.3457846,49.5 42.1666667,48.6791179 42.1666667,47.6666667 L42.1666667,29.3333333 C42.1666667,28.3208821 41.3457846,27.5 40.3333333,27.5 L7.33333333,27.5 C6.3208821,27.5 5.5,28.3208821 5.5,29.3333333 Z M40.3333333,47.6666667 L7.33333333,47.6666667 L7.33333333,29.3333333 L40.3333333,29.3333333 L40.3333333,47.6666667 Z" id="Shape" fill-rule="nonzero"></path>
                    <polygon id="Path" points="3.66666667 49.5 5.5 49.5 5.5 51.3333333 3.66666667 51.3333333"></polygon>
                    <polygon id="Path" points="42.1666667 49.5 44 49.5 44 51.3333333 42.1666667 51.3333333"></polygon>
                </g>
            </g>
        </g>
    </g>
</svg>