<?xml version="1.0" encoding="UTF-8"?>
<svg width="55px" height="55px" viewBox="0 0 55 55" version="1.1" xmlns="http://www.w3.org/2000/svg" xmlns:xlink="http://www.w3.org/1999/xlink">
    <!-- Generator: Sketch 52.2 (67145) - http://www.bohemiancoding.com/sketch -->
    <title>email</title>
    <desc>Created with Sketch.</desc>
    <g id="Page-1" stroke="none" stroke-width="1" fill="none" fill-rule="evenodd">
        <g id="5" transform="translate(-1165.000000, -108.000000)" fill="#000000">
            <g id="email" transform="translate(1165.000000, 108.000000)">
                <path d="M54.9997852,21.0807854 C54.9997852,21.0615555 54.9896873,21.0450112 54.988828,21.0267481 C54.9831345,20.9632569 54.9705659,20.9005178 54.9512297,20.8397124 C54.9385537,20.7854602 54.9210437,20.7323898 54.8990219,20.6811456 C54.8728105,20.6325872 54.8421948,20.5864997 54.8073896,20.5436351 C54.7710804,20.4911018 54.7292926,20.4425435 54.6826708,20.3988194 C54.6679538,20.3859278 54.6616158,20.3685241 54.6460394,20.3565994 L45.8331185,13.5095447 L45.8331185,6.41303732 C45.8331185,4.89419115 44.6018297,3.66282783 43.0830755,3.66282783 L33.148975,3.66282783 L29.1714031,0.57432109 C28.188585,-0.191440363 26.8110928,-0.191440363 25.8282747,0.57432109 L21.8499508,3.66282783 L11.9158502,3.66282783 C10.397096,3.66282783 9.16580728,4.89408372 9.16580728,6.41303732 L9.16580728,13.5095447 L0.353745762,20.3565994 C0.338169346,20.3685241 0.331723933,20.3859278 0.31711433,20.3988194 C0.270492508,20.4425435 0.228704745,20.4911018 0.192395584,20.5436351 C0.157590353,20.5864997 0.126867217,20.6325872 0.100763293,20.6811456 C0.0785266176,20.7322823 0.0610165784,20.7853528 0.0485554462,20.8397124 C0.0294340537,20.8993361 0.0168654979,20.9607861 0.0109572025,21.0230955 C0.0109572025,21.041466 0,21.0579028 0,21.0771328 L0,52.2497905 C0.00365240082,52.5450083 0.05532313,52.8375403 0.153078564,53.1161065 C-0.0573641776,53.4334548 -0.0474812106,53.8483497 0.177678557,54.1553848 C0.402838326,54.4624199 0.795578837,54.5964927 1.16146346,54.4912112 C1.62467382,54.8222032 2.17983875,55.0001074 2.74918358,55 L52.249957,55 C52.8216652,54.9988182 53.3785489,54.8183357 53.8421889,54.483906 C53.9203933,54.5079703 54.0014981,54.5211842 54.0832474,54.5233328 C54.4180866,54.5252665 54.7268219,54.3428503 54.8866682,54.0485994 C55.0465144,53.7543484 55.0315825,53.3960692 54.8477808,53.1162139 C54.945214,52.8376477 54.9965624,52.5450083 55,52.2498979 L55,21.0807854 L54.9997852,21.0807854 Z M26.9493469,2.02097425 C27.2694691,1.76657987 27.7227964,1.76657987 28.0429186,2.02097425 L30.1576587,3.66282783 L24.8409448,3.66282783 L26.9493469,2.02097425 Z M2.9763844,53.1665986 L26.9494543,34.5440277 C27.2697913,34.2911374 27.7218296,34.2911374 28.0421667,34.5440277 L52.0224339,53.1665986 L2.9763844,53.1665986 Z M53.1664948,51.7346633 L29.1695769,33.0965151 C28.1874033,32.331828 26.811415,32.331828 25.8292415,33.0965151 L1.83232355,51.7346633 L1.83232355,22.4769465 L16.8540036,34.1424542 C17.2542637,34.4528196 17.8302688,34.379982 18.1406155,33.9796976 C18.4509621,33.5794132 18.378129,33.0033733 17.9778688,32.6930078 L2.71695651,20.8415387 L9.16580728,15.8306785 L9.16580728,22.9142942 C9.16580728,23.4206121 9.57627268,23.8309949 10.0824525,23.8309949 C10.5887397,23.8309949 10.9990976,23.4205047 10.9990976,22.9142942 L10.9990976,6.41303732 C10.9990976,5.90671945 11.4094556,5.49633663 11.9157428,5.49633663 L43.0828607,5.49633663 C43.5891479,5.49633663 43.9995059,5.90671945 43.9995059,6.41303732 L43.9995059,22.9142942 C43.9995059,23.4206121 44.4098638,23.8309949 44.916151,23.8309949 C45.4224382,23.8309949 45.8327962,23.4205047 45.8327962,22.9142942 L45.8327962,15.8306785 L52.281647,20.8415387 L36.9934491,32.7141716 C36.5935112,33.0247519 36.5211078,33.6007918 36.8316692,34.0008614 C37.1422307,34.4008235 37.7182358,34.4732313 38.1182811,34.162651 L53.1664948,22.4770539 L53.1664948,51.7346633 Z" id="Shape" fill-rule="nonzero"></path>
                <path d="M18.7323602,11.6197183 L37.0422877,11.6197183 C37.5479196,11.6197183 37.9577465,11.2729288 37.9577465,10.8450704 C37.9577465,10.417212 37.5479196,10.0704225 37.0422877,10.0704225 L18.7323602,10.0704225 C18.2267283,10.0704225 17.8169014,10.417212 17.8169014,10.8450704 C17.8169014,11.2729288 18.2267283,11.6197183 18.7323602,11.6197183 Z" id="Path"></path>
                <path d="M37.9577465,16.2676056 C37.9577465,15.8397473 37.5479196,15.4929577 37.0422877,15.4929577 L18.7323602,15.4929577 C18.2267283,15.4929577 17.8169014,15.839838 17.8169014,16.2676056 C17.8169014,16.695464 18.2267283,17.0422535 18.7323602,17.0422535 L37.0422877,17.0422535 C37.5479196,17.0422535 37.9577465,16.6953732 37.9577465,16.2676056 Z" id="Path"></path>
                <path d="M37.9577465,21.6901408 C37.9577465,21.2622825 37.5479174,20.915493 37.0422828,20.915493 L28.8027876,20.915493 C28.297153,20.915493 27.8873239,21.2622825 27.8873239,21.6901408 C27.8873239,22.1179992 28.297153,22.4647887 28.8027876,22.4647887 L37.0422828,22.4647887 C37.5479174,22.4647887 37.9577465,22.1179084 37.9577465,21.6901408 Z" id="Path"></path>
            </g>
        </g>
    </g>
</svg>