<?xml version="1.0" encoding="UTF-8"?>
<svg width="9px" height="9px" viewBox="0 0 9 9" version="1.1" xmlns="http://www.w3.org/2000/svg" xmlns:xlink="http://www.w3.org/1999/xlink">
    <!-- Generator: Sketch 52.5 (67469) - http://www.bohemiancoding.com/sketch -->
    <title>sort</title>
    <desc>Created with Sketch.</desc>
    <g id="Page-1" stroke="none" stroke-width="1" fill="none" fill-rule="evenodd">
        <g id="13.-BM-receving-an-event" transform="translate(-711.000000, -317.000000)" fill="#FFFFFF" fill-rule="nonzero">
            <g id="Group-10-Copy-2" transform="translate(642.000000, 313.000000)">
                <g id="Group-11">
                    <g id="sort" transform="translate(69.000000, 4.000000)">
                        <path d="M3.375,0 C3.2625,0 3.1875,0.0375 3.1125,0.1125 L0.1125,3.1125 C0.0375,3.1875 0,3.2625 0,3.375 C0,3.4875 0.0375,3.5625 0.1125,3.6375 L0.6375,4.1625 C0.7125,4.2375 0.825,4.275 0.9,4.275 C1.0125,4.275 1.0875,4.2375 1.1625,4.1625 L1.9125,3.4125 C2.025,3.3 2.25,3.375 2.25,3.5625 L2.25,8.625 C2.25,8.8125 2.4375,9 2.625,9 L3.375,9 C3.5625,9 3.75,8.8125 3.75,8.625 L3.75,0.375 C3.75,0.2625 3.7125,0.1875 3.6375,0.1125 C3.5625,0.0375 3.4875,0 3.375,0 Z" id="Path"></path>
                        <path d="M8.8875,5.3625 L8.3625,4.8375 C8.2875,4.7625 8.175,4.725 8.1,4.725 C7.9875,4.725 7.9125,4.7625 7.8375,4.8375 L7.0875,5.5875 C6.975,5.7 6.75,5.625 6.75,5.4375 L6.75,0.375 C6.75,0.1875 6.5625,0 6.375,0 L5.625,0 C5.4375,0 5.25,0.1875 5.25,0.375 L5.25,8.625 C5.25,8.7375 5.2875,8.8125 5.3625,8.8875 C5.4375,8.9625 5.55,9 5.625,9 C5.7375,9 5.8125,8.9625 5.8875,8.8875 L8.8875,5.8875 C8.9625,5.8125 9,5.7375 9,5.625 C9,5.5125 8.9625,5.4375 8.8875,5.3625 Z" id="Path"></path>
                    </g>
                </g>
            </g>
        </g>
    </g>
</svg>