<?xml version="1.0" encoding="UTF-8"?>
<svg width="43px" height="55px" viewBox="0 0 43 55" version="1.1" xmlns="http://www.w3.org/2000/svg" xmlns:xlink="http://www.w3.org/1999/xlink">
    <!-- Generator: Sketch 52.2 (67145) - http://www.bohemiancoding.com/sketch -->
    <title>noun_Unlock_309654</title>
    <desc>Created with Sketch.</desc>
    <g id="Page-1" stroke="none" stroke-width="1" fill="none" fill-rule="evenodd">
        <g id="9" transform="translate(-1177.000000, -128.000000)" fill="#000000" stroke="#FFFFFF" stroke-width="0.5">
            <g id="Group-7" transform="translate(868.000000, 128.000000)">
                <g id="noun_Unlock_309654" transform="translate(309.000000, 0.000000)">
                    <g id="Group">
                        <path d="M11.4350282,24.3013771 L8.7549435,24.3013771 L8.7549435,12.9284958 C8.7549435,5.99814619 14.4724576,0.311705508 21.440678,0.311705508 C28.4088983,0.311705508 34.1264124,5.99814619 34.1264124,12.9284958 L34.1264124,15.4163136 L31.4463277,15.4163136 L31.4463277,12.9284958 C31.4463277,7.41975636 26.9795198,2.97722458 21.440678,2.97722458 C15.9018362,2.97722458 11.4350282,7.41975636 11.4350282,12.9284958 L11.4350282,24.3013771 Z" id="Path"></path>
                        <path d="M37.3425141,54.6882945 L5.53884181,54.6882945 C2.85875706,54.6882945 0.536016949,52.5558792 0.536016949,49.7126589 L0.536016949,27.8554025 C0.536016949,25.1898835 2.68008475,22.8797669 5.53884181,22.8797669 L37.5211864,22.8797669 C40.2012712,22.8797669 42.5240113,25.0121822 42.5240113,27.8554025 L42.5240113,49.7126589 C42.345339,52.378178 40.2012712,54.6882945 37.3425141,54.6882945 Z M5.53884181,25.7229873 C4.28813559,25.7229873 3.21610169,26.7891949 3.21610169,28.0331038 L3.21610169,49.8903602 C3.21610169,51.1342691 4.28813559,52.2004767 5.53884181,52.2004767 L37.5211864,52.2004767 C38.7718927,52.2004767 39.8439266,51.1342691 39.8439266,49.8903602 L39.8439266,27.8554025 C39.8439266,26.6114936 38.7718927,25.545286 37.5211864,25.545286 L5.53884181,25.7229873 Z" id="Shape" fill-rule="nonzero"></path>
                        <path d="M21.440678,40.4721928 C18.045904,40.4721928 15.3658192,37.8066737 15.3658192,34.4303496 C15.3658192,31.0540254 18.045904,28.3885064 21.440678,28.3885064 C24.835452,28.3885064 27.5155367,31.0540254 27.5155367,34.4303496 C27.5155367,37.8066737 24.835452,40.4721928 21.440678,40.4721928 Z M21.440678,31.0540254 C19.6539548,31.0540254 18.045904,32.4756356 18.045904,34.4303496 C18.045904,36.2073623 19.4752825,37.8066737 21.440678,37.8066737 C23.2274011,37.8066737 24.835452,36.3850636 24.835452,34.4303496 C24.835452,32.4756356 23.2274011,31.0540254 21.440678,31.0540254 Z" id="Shape" fill-rule="nonzero"></path>
                        <rect id="Rectangle" x="20.0112994" y="39.0505826" width="2.68008475" height="8.88506356"></rect>
                    </g>
                </g>
            </g>
        </g>
    </g>
</svg>