<?xml version="1.0" encoding="UTF-8"?>
<svg width="17px" height="17px" viewBox="0 0 17 17" version="1.1" xmlns="http://www.w3.org/2000/svg" xmlns:xlink="http://www.w3.org/1999/xlink">
    <!-- Generator: Sketch 52.2 (67145) - http://www.bohemiancoding.com/sketch -->
    <title>telephone (1)</title>
    <desc>Created with Sketch.</desc>
    <g id="Page-1" stroke="none" stroke-width="1" fill="none" fill-rule="evenodd">
        <g id="27" transform="translate(-1219.000000, -240.000000)" fill="#BCC7D2" fill-rule="nonzero" stroke="#BCC7D3" stroke-width="0.4">
            <g id="Group-9" transform="translate(952.000000, 49.000000)">
                <g id="Group-7">
                    <g id="Rectangle">
                        <g id="telephone-(1)" transform="translate(268.000000, 192.000000)">
                            <path d="M3.03968246,9.87780364 C4.52477698,11.6298206 6.31250631,13.0092645 8.35295131,13.9853442 C9.12981798,14.3486799 10.1687602,14.7797561 11.3262603,14.8536549 C11.3980191,14.856734 11.4666579,14.8598131 11.5384167,14.8598131 C12.3152833,14.8598131 12.9392726,14.5950091 13.4478239,14.0500056 C13.4509438,14.0469265 13.4571837,14.0407683 13.4603037,14.03461 C13.6412606,13.8190719 13.847177,13.6250876 14.0624534,13.4187869 C14.2090908,13.2802267 14.3588483,13.1355082 14.5023658,12.9877106 C15.1669144,12.3041469 15.1669144,11.4358363 14.4961259,10.7738264 L12.6210381,8.92327773 C12.3028035,8.59689145 11.9221701,8.42446096 11.5228169,8.42446096 C11.1234638,8.42446096 10.7397104,8.59689145 10.412116,8.92019861 L9.29517514,10.0225221 C9.19221691,9.96401889 9.08613873,9.91167392 8.98630044,9.86240806 C8.86150258,9.80082575 8.74606456,9.74232254 8.64310633,9.67766111 C7.62600378,9.04028413 6.70249962,8.20892285 5.81955477,7.14046965 C5.37340242,6.58314968 5.07388756,6.11512407 4.86485115,5.63786112 C5.15812612,5.37613627 5.43268141,5.10209496 5.69787686,4.83421188 C5.79147525,4.73875929 5.88819359,4.6433067 5.98491193,4.54785411 C6.32186615,4.2153096 6.50282305,3.83042012 6.50282305,3.4393724 C6.50282305,3.04832469 6.3249861,2.66343521 5.98491193,2.3308907 L5.05516788,1.41331417 C4.94596976,1.30554512 4.84301152,1.20085518 4.73693334,1.09308613 C4.53101688,0.883706248 4.31574057,0.668168139 4.10358421,0.474183841 C3.78222972,0.16319314 3.4047162,0 3.00536305,0 C2.60912985,0 2.22849638,0.16319314 1.89466211,0.477262956 L0.727802124,1.62885228 C0.303489404,2.04761204 0.0632535256,2.55566615 0.013334382,3.14377728 C-0.045944601,3.87968597 0.0913330439,4.66178139 0.447006942,5.60706996 C0.992997575,7.06964999 1.81666344,8.42754008 3.03968246,9.87780364 Z M0.774601322,3.20843871 C0.812040679,2.79891631 0.971157949,2.45713445 1.27067281,2.16153933 L2.4312929,1.01610823 C2.61224979,0.843677742 2.81192637,0.754383383 3.00536305,0.754383383 C3.19567978,0.754383383 3.38911647,0.843677742 3.56695342,1.02226646 C3.77598983,1.21317164 3.97254646,1.41331417 4.18470282,1.62577317 C4.290781,1.73354222 4.39997912,1.84131128 4.50917725,1.95215945 L5.4389213,2.86973597 C5.63235798,3.06064115 5.73219627,3.25462545 5.73219627,3.44553063 C5.73219627,3.63643582 5.63235798,3.83042012 5.4389213,4.0213253 C5.34220296,4.11677789 5.24548462,4.2153096 5.14876628,4.31076219 C4.85861126,4.60019908 4.58717591,4.87424039 4.28766105,5.13596524 C4.28142116,5.14212347 4.27830121,5.14520258 4.27206132,5.15136081 C4.01310576,5.40692743 4.05366506,5.65017758 4.11606399,5.83492453 C4.11918394,5.84416188 4.12230389,5.85032011 4.12542383,5.85955746 C4.36565971,6.42919389 4.69949398,6.97111828 5.22052505,7.61773261 C6.15650899,8.75700547 7.14241207,9.64071172 8.22815345,10.3211963 C8.36231114,10.4074116 8.50582868,10.4751521 8.63998638,10.5428927 C8.76478424,10.604475 8.88022226,10.6629782 8.98318049,10.7276396 C8.99566028,10.7337978 9.00502012,10.7399561 9.0174999,10.7461143 C9.12045814,10.7984593 9.22029642,10.8230922 9.32013471,10.8230922 C9.56973043,10.8230922 9.73196765,10.6660573 9.78500674,10.6137123 L10.9518667,9.462123 C11.1328236,9.28353428 11.3293802,9.18808169 11.5228169,9.18808169 C11.7599329,9.18808169 11.9533695,9.33280014 12.0750474,9.462123 L13.9563752,11.3157507 C14.3307687,11.6852446 14.3276488,12.0855297 13.9470153,12.4765774 C13.8159776,12.6151376 13.6786999,12.7475396 13.5320625,12.8860998 C13.3136662,13.0954797 13.0859101,13.3110178 12.8799936,13.554268 C12.5211998,13.9360783 12.0937671,14.114667 11.5415366,14.114667 C11.4884975,14.114667 11.4323385,14.1115879 11.3792994,14.1085088 C10.3559569,14.0438474 9.40437327,13.6497206 8.68990552,13.3140969 C6.74929882,12.3872831 5.04580804,11.0725006 3.63247229,9.4036198 C2.46873226,8.02109678 1.68562569,6.73402636 1.16771458,5.35458246 C0.84636009,4.5078256 0.724682178,3.827341 0.774601322,3.20843871 Z" id="Shape"></path>
                        </g>
                    </g>
                </g>
            </g>
        </g>
    </g>
</svg>