<svg height="512pt" viewBox="0 -43 512.01067 512" width="512pt" xmlns="http://www.w3.org/2000/svg" fill="#4a4a4a"><path d="m501.339844 127.988281h-490.667969c-5.886719 0-10.66796875-4.777343-10.66796875-10.664062 0-5.890625 4.78124975-10.667969 10.66796875-10.667969h490.667969c5.886718 0 10.664062 4.777344 10.664062 10.667969 0 5.886719-4.777344 10.664062-10.664062 10.664062zm0 0"/><path d="m394.671875 234.65625c-2.730469 0-5.460937-1.046875-7.550781-3.113281-4.160156-4.160157-4.160156-10.925781 0-15.085938l99.136718-99.132812-99.117187-99.117188c-4.160156-4.160156-4.160156-10.921875 0-15.082031s10.921875-4.160156 15.082031 0l106.667969 106.667969c4.160156 4.160156 4.160156 10.921875 0 15.082031l-106.667969 106.667969c-2.089844 2.066406-4.820312 3.113281-7.550781 3.113281zm0 0"/><path d="m501.339844 319.988281h-490.667969c-5.886719 0-10.66796875-4.777343-10.66796875-10.664062 0-5.890625 4.78124975-10.667969 10.66796875-10.667969h490.667969c5.886718 0 10.664062 4.777344 10.664062 10.667969 0 5.886719-4.777344 10.664062-10.664062 10.664062zm0 0"/><path d="m117.339844 426.65625c-2.730469 0-5.460938-1.046875-7.554688-3.113281l-106.664062-106.667969c-4.160156-4.160156-4.160156-10.921875 0-15.082031l106.664062-106.667969c4.160156-4.160156 10.925782-4.160156 15.085938 0s4.160156 10.921875 0 15.082031l-99.117188 99.117188 99.117188 99.113281c4.160156 4.160156 4.160156 10.921875 0 15.082031-2.070313 2.089844-4.800782 3.136719-7.53125 3.136719zm0 0"/></svg>