<?xml version="1.0" encoding="UTF-8"?>
<svg width="17px" height="22px" viewBox="0 0 17 22" version="1.1" xmlns="http://www.w3.org/2000/svg" xmlns:xlink="http://www.w3.org/1999/xlink">
    <!-- Generator: Sketch 52.2 (67145) - http://www.bohemiancoding.com/sketch -->
    <title>copy-interface-symbol</title>
    <desc>Created with Sketch.</desc>
    <g id="Page-1" stroke="none" stroke-width="1" fill="none" fill-rule="evenodd">
        <g id="16" transform="translate(-1185.000000, -864.000000)" fill="#FFFFFF" fill-rule="nonzero">
            <g id="Group-7" transform="translate(184.000000, 266.000000)">
                <g id="Rectangle" transform="translate(58.000000, 0.000000)">
                    <g id="Group-10">
                        <g id="Group-5-Copy-5" transform="translate(43.000000, 573.000000)">
                            <g id="Group-5">
                                <g id="copy-interface-symbol" transform="translate(900.000000, 25.000000)">
                                    <path d="M16.223836,4.82659665 L13.0311582,4.82659665 L13.0311582,0.804432776 C13.0311582,0.360922172 12.6837228,0 12.2544769,0 L5.901742,0 C5.70757169,0 5.5206504,0.0761529694 5.37722326,0.211833964 L0.252162516,5.07168051 C0.0916483887,5.22452273 0,5.44064701 0,5.66481561 L0,16.3273039 C0,16.7702782 0.347435417,17.1317367 0.77668126,17.1317367 L3.96935903,17.1317367 L3.96935903,21.1539006 C3.96935903,21.5968749 4.31679444,21.9583333 4.74604029,21.9583333 L16.2233182,21.9583333 C16.652564,21.9583333 16.9999994,21.5968749 16.9999994,21.1539006 L16.9999994,5.63102943 C17.0005172,5.18751883 16.652564,4.82659665 16.223836,4.82659665 Z M5.31353539,2.45405625 L5.31353539,5.44332845 L2.16072727,5.44332845 L5.31353539,2.45405625 Z M1.55388031,15.5228711 L1.55388031,7.052194 L6.09021665,7.052194 C6.5194625,7.052194 6.86689792,6.69180812 6.86689792,6.24776122 L6.86689792,1.60886555 L11.4777957,1.60886555 L11.4777957,4.82659665 L9.87058324,4.82659665 C9.67641293,4.82659665 9.49000942,4.90328591 9.3460645,5.03896691 L4.22152154,9.89934974 C4.06100742,10.0511194 3.96935903,10.2677799 3.96935903,10.4919485 L3.96935903,15.5228711 L1.55388031,15.5228711 Z M9.28289442,7.28065291 L9.28289442,10.2688525 L6.13163966,10.2688525 L9.28289442,7.28065291 Z M15.4471547,20.3494678 L5.52323933,20.3494678 L5.52323933,11.8777181 L10.0600935,11.8777181 C10.4888215,11.8777181 10.8367747,11.5173322 10.8367747,11.0732853 L10.8367747,6.43546221 L15.4471547,6.43546221 L15.4471547,20.3494678 Z" id="Shape"></path>
                                </g>
                            </g>
                        </g>
                    </g>
                </g>
            </g>
        </g>
    </g>
</svg>