<?xml version="1.0" encoding="UTF-8"?>
<svg width="15px" height="15px" viewBox="0 0 15 15" version="1.1" xmlns="http://www.w3.org/2000/svg" xmlns:xlink="http://www.w3.org/1999/xlink">
    <!-- Generator: Sketch 52.2 (67145) - http://www.bohemiancoding.com/sketch -->
    <title>user</title>
    <desc>Created with Sketch.</desc>
    <g id="Page-1" stroke="none" stroke-width="1" fill="none" fill-rule="evenodd">
        <g id="27" transform="translate(-1220.000000, -118.000000)" fill="#BCC7D2" fill-rule="nonzero">
            <g id="user" transform="translate(1220.000000, 118.000000)">
                <path d="M7.5,7.8 C9.6533882,7.8 11.4,6.05068273 11.4,3.89401682 C11.4,1.7373509 9.65336233,0 7.5,0 C5.34663767,0 3.6,1.74931727 3.6,3.89401682 C3.6,6.03871636 5.3466118,7.8 7.5,7.8 Z M7.5,1.01843636 C9.07913238,1.01843636 10.3711756,2.31243591 10.3711756,3.89401682 C10.3711756,5.47559772 9.07913238,6.76957137 7.5,6.76957137 C5.92086762,6.76957137 4.62882436,5.47557182 4.62882436,3.89399091 C4.62882436,2.31241001 5.92084176,1.01843636 7.5,1.01843636 Z" id="Shape"></path>
                <path d="M0.529551142,14.4 L14.4704489,14.4 C14.7660135,14.4 15,14.1730124 15,13.8862886 C15,11.1982333 12.7463128,9 9.96304776,9 L5.03695224,9 C2.26601352,9 0,11.1862757 0,13.8862886 C0,14.1730124 0.233986476,14.4 0.529551142,14.4 Z M5.03695224,10.0274228 L9.96304776,10.0274228 C11.9827485,10.0274228 13.6453064,11.4849571 13.9039455,13.3725514 L1.09605452,13.3725514 C1.35466695,11.4969147 3.01725148,10.0274228 5.03695224,10.0274228 Z" id="Shape"></path>
            </g>
        </g>
    </g>
</svg>