<?xml version="1.0" encoding="UTF-8"?>
<svg width="40px" height="40px" viewBox="0 0 40 40" version="1.1" xmlns="http://www.w3.org/2000/svg" xmlns:xlink="http://www.w3.org/1999/xlink">
    <!-- Generator: Sketch 52.5 (67469) - http://www.bohemiancoding.com/sketch -->
    <title>Artboard</title>
    <desc>Created with Sketch.</desc>
    <g id="Artboard" stroke="none" stroke-width="1" fill="none" fill-rule="evenodd">
        <g id="Group-8" transform="translate(0.000000, 1.000000)" fill="#FFFFFF" fill-rule="nonzero" stroke="#FFFFFF" stroke-width="0.5">
            <g id="profile">
                <path d="M20,20.8 C25.7423685,20.8 30.4,16.1351539 30.4,10.3840448 C30.4,4.63293574 25.7422996,0 20,0 C14.2577004,0 9.6,4.66484605 9.6,10.3840448 C9.6,16.1032436 14.2576315,20.8 20,20.8 Z M20,2.7158303 C24.2110197,2.7158303 27.6564684,6.16649576 27.6564684,10.3840448 C27.6564684,14.6015939 24.2110197,18.0521903 20,18.0521903 C15.7889803,18.0521903 12.3435316,14.6015249 12.3435316,10.3839758 C12.3435316,6.16642669 15.7889114,2.7158303 20,2.7158303 Z" id="Shape"></path>
                <path d="M1.41213638,38.4 L38.5878636,38.4 C39.3760361,38.4 40,37.7946999 40,37.030103 C40,29.8619554 33.9901674,24 26.5681274,24 L13.4318726,24 C6.04270273,24 0,29.8300685 0,37.030103 C0,37.7946999 0.623963935,38.4 1.41213638,38.4 Z M13.4318726,26.7397941 L26.5681274,26.7397941 C31.9539961,26.7397941 36.3874838,30.6265523 37.0771879,35.6601371 L2.92281206,35.6601371 C3.6124452,30.6584392 8.04600394,26.7397941 13.4318726,26.7397941 Z" id="Shape"></path>
            </g>
        </g>
    </g>
</svg>