<?xml version="1.0" encoding="UTF-8"?>
<svg width="16px" height="16px" viewBox="0 0 16 16" version="1.1" xmlns="http://www.w3.org/2000/svg" xmlns:xlink="http://www.w3.org/1999/xlink">
    <!-- Generator: Sketch 52.2 (67145) - http://www.bohemiancoding.com/sketch -->
    <title>Group 4</title>
    <desc>Created with Sketch.</desc>
    <g id="Page-1" stroke="none" stroke-width="1" fill="none" fill-rule="evenodd">
        <g id="11" transform="translate(-408.000000, -190.000000)" fill="#000000" stroke="#000000" stroke-width="0.4">
            <g id="Group-4" transform="translate(408.000000, 190.000000)">
                <g id="full-size" transform="translate(0.888889, 0.888889)">
                    <path d="M0.509638412,4.42326948 C0.791162671,4.42326948 1.01927682,4.19505851 1.01927682,3.9135666 L1.01927682,1.74032948 L4.30168796,5.02247617 C4.40123733,5.12197017 4.53163681,5.17171717 4.66203629,5.17171717 C4.79250372,5.17171717 4.92297116,5.12197017 5.02245257,5.02240821 C5.22148336,4.82335225 5.22148336,4.50060839 5.02238462,4.30162039 L1.73983759,1.01940574 L3.91327553,1.01940574 C4.19473184,1.01940574 4.42291395,0.791194777 4.42291395,0.509702871 C4.42291395,0.228210965 4.19479979,0 3.91327553,0 L0.509638412,0 C0.228114153,0 0,0.228210965 0,0.509702871 L0,3.91363457 C0,4.19505851 0.228114153,4.42326948 0.509638412,4.42326948 Z" id="Path"></path>
                    <path d="M13.7222908,9.884295 C13.4461656,9.884295 13.2224261,10.1081098 13.2224261,10.3841791 L13.2224261,12.515618 L9.90385746,9.19692109 C9.70857697,9.0016997 9.39212927,9.0016997 9.19691543,9.19692109 C9.00170159,9.39214248 9.00170159,9.70866907 9.19691543,9.9038238 L12.5154174,13.2224541 L10.3841941,13.2224541 C10.1080689,13.2224541 9.88432941,13.4462689 9.88432941,13.7223382 C9.88432941,13.9984075 10.1080689,14.2222222 10.3841941,14.2222222 L13.7223575,14.2222222 C13.9984828,14.2222222 14.2222222,13.9984075 14.2222222,13.7223382 L14.2222222,10.3841791 C14.2221556,10.1081098 13.9983495,9.884295 13.7222908,9.884295 Z" id="Path"></path>
                    <path d="M4.31830573,9.19692541 L0.999808386,12.5154648 L0.999808386,10.3841509 C0.999808386,10.1080891 0.776051269,9.8842805 0.499904193,9.8842805 C0.223757117,9.8842805 0,10.1080891 0,10.3841509 L0,13.7223519 C0,13.9984136 0.223757117,14.2222222 0.499904193,14.2222222 L3.83819774,14.2222222 C4.11427816,14.2222222 4.33810193,13.9984136 4.33810193,13.7223519 C4.33810193,13.4462901 4.11434482,13.2224815 3.83819774,13.2224815 L1.70673957,13.2224815 L5.02530356,9.90380877 C5.22053282,9.70859273 5.22053282,9.39207481 5.02523691,9.19685876 C4.83014097,9.00170937 4.51360163,9.00170937 4.31830573,9.19692541 Z" id="Path"></path>
                    <path d="M13.7124757,0 L10.3087741,0 C10.0272276,0 9.79909548,0.228195972 9.79909548,0.509669384 C9.79909548,0.791142796 10.0272276,1.01933877 10.3087741,1.01933877 L12.4819756,1.01933877 L9.19978142,4.30167756 C9.00073494,4.50072044 9.00073494,4.82344309 9.19984937,5.02248598 C9.29933863,5.12197344 9.42981635,5.17171717 9.56022612,5.17171717 C9.69063588,5.17171717 9.8211136,5.12190548 9.92067082,5.02241802 L13.202865,1.74007923 L13.202865,3.91330949 C13.202865,4.1947829 13.4309972,4.42297887 13.7125436,4.42297887 C13.9940901,4.42297887 14.2222222,4.1947829 14.2222222,3.91330949 L14.2222222,0.509669384 C14.2221543,0.228128016 13.9939542,0 13.7124757,0 Z" id="Path"></path>
                </g>
            </g>
        </g>
    </g>
</svg>