<?xml version="1.0" encoding="UTF-8"?>
<svg width="31px" height="26px" viewBox="0 0 31 26" version="1.1" xmlns="http://www.w3.org/2000/svg" xmlns:xlink="http://www.w3.org/1999/xlink">
    <!-- Generator: Sketch 52.2 (67145) - http://www.bohemiancoding.com/sketch -->
    <title>noun_workstation_438532</title>
    <desc>Created with Sketch.</desc>
    <g id="Page-1" stroke="none" stroke-width="1" fill="none" fill-rule="evenodd">
        <g id="20" transform="translate(-60.000000, -219.000000)" fill="#000000">
            <g id="noun_workstation_438532" transform="translate(60.000000, 219.000000)">
                <g id="Group">
                    <path d="M30.4259259,0 L21.2407407,0 C20.9232778,0 20.6666667,0.253217391 20.6666667,0.565217391 L20.6666667,6.7826087 L0.574074074,6.7826087 C0.257185185,6.7826087 0,7.03582609 0,7.34782609 L0,20.9130435 C0,21.2256087 0.257185185,21.4782609 0.574074074,21.4782609 L11.4814815,21.4782609 L11.4814815,24.8695652 L7.46296296,24.8695652 C7.14607407,24.8695652 6.88888889,25.1222174 6.88888889,25.4347826 C6.88888889,25.7473478 7.14607407,26 7.46296296,26 L16.6481481,26 C16.9656111,26 17.2222222,25.7473478 17.2222222,25.4347826 C17.2222222,25.1222174 16.9656111,24.8695652 16.6481481,24.8695652 L12.6296296,24.8695652 L12.6296296,21.4782609 L20.6666667,21.4782609 L20.6666667,25.4347826 C20.6666667,25.7473478 20.9232778,26 21.2407407,26 L30.4259259,26 C30.7433889,26 31,25.7473478 31,25.4347826 L31,0.565217391 C31,0.253217391 30.7433889,0 30.4259259,0 Z M1.14814815,20.3478261 L1.14814815,7.91304348 L20.6666667,7.91304348 L20.6666667,20.3478261 L1.14814815,20.3478261 Z M29.8518519,24.8695652 L21.8148148,24.8695652 L21.8148148,1.13043478 L29.8518519,1.13043478 L29.8518519,24.8695652 Z" id="Shape" fill-rule="nonzero"></path>
                    <path d="M23.537037,3.39130435 L28.1296296,3.39130435 C28.4470926,3.39130435 28.7037037,3.13808696 28.7037037,2.82608696 C28.7037037,2.51408696 28.4470926,2.26086957 28.1296296,2.26086957 L23.537037,2.26086957 C23.2195741,2.26086957 22.962963,2.51408696 22.962963,2.82608696 C22.962963,3.13808696 23.2195741,3.39130435 23.537037,3.39130435 Z" id="Path"></path>
                    <path d="M23.537037,5.65217391 L28.1296296,5.65217391 C28.4470926,5.65217391 28.7037037,5.39895652 28.7037037,5.08695652 C28.7037037,4.77495652 28.4470926,4.52173913 28.1296296,4.52173913 L23.537037,4.52173913 C23.2195741,4.52173913 22.962963,4.77495652 22.962963,5.08695652 C22.962963,5.39895652 23.2195741,5.65217391 23.537037,5.65217391 Z" id="Path"></path>
                    <path d="M25.8333333,16.9565217 C24.8838148,16.9565217 24.1111111,17.7173043 24.1111111,18.6521739 C24.1111111,19.5870435 24.8838148,20.3478261 25.8333333,20.3478261 C26.7828519,20.3478261 27.5555556,19.5870435 27.5555556,18.6521739 C27.5555556,17.7173043 26.7828519,16.9565217 25.8333333,16.9565217 Z M25.8333333,19.2173913 C25.5164444,19.2173913 25.2592593,18.9641739 25.2592593,18.6521739 C25.2592593,18.3401739 25.5164444,18.0869565 25.8333333,18.0869565 C26.1502222,18.0869565 26.4074074,18.3401739 26.4074074,18.6521739 C26.4074074,18.9641739 26.1502222,19.2173913 25.8333333,19.2173913 Z" id="Shape" fill-rule="nonzero"></path>
                </g>
            </g>
        </g>
    </g>
</svg>